M48
;DRILL file {KiCad 4.1.0-alpha+201608131231+7028~46~ubuntu16.04.1-product} date Sun Aug 14 13:26:08 2016
;FORMAT={-:-/ absolute / inch / decimal}
FMAT,2
INCH,TZ
T1C0.016
T2C0.032
T3C0.067
%
G90
G05
M72
T1
X3.459Y-3.2638
X3.4606Y-3.3031
X3.4626Y-3.4211
X3.5032Y-3.3683
X3.5197Y-3.4173
X3.5866Y-3.0315
X3.7283Y-3.4606
X3.7677Y-3.4242
X3.9055Y-3.0591
X3.9136Y-3.3582
X3.9764Y-3.2087
X3.9961Y-3.3307
X4.0669Y-3.1772
X4.1334Y-3.3393
T2
X3.8657Y-3.4055
X3.9657Y-3.4055
X4.0657Y-3.4055
X4.1657Y-3.4055
T3
X4.0551Y-3.2441
X4.3307Y-3.2441
T0
M30
