G04 #@! TF.GenerationSoftware,KiCad,Pcbnew,no-vcs-found-0e71686~58~ubuntu17.04.1*
G04 #@! TF.CreationDate,2017-06-20T15:12:17-04:00*
G04 #@! TF.ProjectId,android_debug_cable,616E64726F69645F64656275675F6361,rev?*
G04 #@! TF.FileFunction,Legend,Top*
G04 #@! TF.FilePolarity,Positive*
%FSLAX46Y46*%
G04 Gerber Fmt 4.6, Leading zero omitted, Abs format (unit mm)*
G04 Created by KiCad (PCBNEW no-vcs-found-0e71686~58~ubuntu17.04.1) date Tue Jun 20 15:12:17 2017*
%MOMM*%
%LPD*%
G01*
G04 APERTURE LIST*
%ADD10C,0.100000*%
%ADD11C,0.150000*%
%ADD12C,0.300000*%
%ADD13C,0.120000*%
%ADD14C,0.010000*%
G04 APERTURE END LIST*
D10*
D11*
X155573333Y-83506666D02*
X155806666Y-84206666D01*
X156040000Y-83506666D01*
X156206666Y-83506666D02*
X156640000Y-83506666D01*
X156406666Y-83773333D01*
X156506666Y-83773333D01*
X156573333Y-83806666D01*
X156606666Y-83840000D01*
X156640000Y-83906666D01*
X156640000Y-84073333D01*
X156606666Y-84140000D01*
X156573333Y-84173333D01*
X156506666Y-84206666D01*
X156306666Y-84206666D01*
X156240000Y-84173333D01*
X156206666Y-84140000D01*
X156940000Y-84140000D02*
X156973333Y-84173333D01*
X156940000Y-84206666D01*
X156906666Y-84173333D01*
X156940000Y-84140000D01*
X156940000Y-84206666D01*
X157206666Y-83506666D02*
X157640000Y-83506666D01*
X157406666Y-83773333D01*
X157506666Y-83773333D01*
X157573333Y-83806666D01*
X157606666Y-83840000D01*
X157640000Y-83906666D01*
X157640000Y-84073333D01*
X157606666Y-84140000D01*
X157573333Y-84173333D01*
X157506666Y-84206666D01*
X157306666Y-84206666D01*
X157240000Y-84173333D01*
X157206666Y-84140000D01*
X148186666Y-83576666D02*
X148586666Y-83576666D01*
X148386666Y-84276666D02*
X148386666Y-83576666D01*
X148753333Y-83576666D02*
X149220000Y-84276666D01*
X149220000Y-83576666D02*
X148753333Y-84276666D01*
X153446666Y-83490000D02*
X153380000Y-83456666D01*
X153280000Y-83456666D01*
X153180000Y-83490000D01*
X153113333Y-83556666D01*
X153080000Y-83623333D01*
X153046666Y-83756666D01*
X153046666Y-83856666D01*
X153080000Y-83990000D01*
X153113333Y-84056666D01*
X153180000Y-84123333D01*
X153280000Y-84156666D01*
X153346666Y-84156666D01*
X153446666Y-84123333D01*
X153480000Y-84090000D01*
X153480000Y-83856666D01*
X153346666Y-83856666D01*
X153780000Y-84156666D02*
X153780000Y-83456666D01*
X154180000Y-84156666D01*
X154180000Y-83456666D01*
X154513333Y-84156666D02*
X154513333Y-83456666D01*
X154680000Y-83456666D01*
X154780000Y-83490000D01*
X154846666Y-83556666D01*
X154880000Y-83623333D01*
X154913333Y-83756666D01*
X154913333Y-83856666D01*
X154880000Y-83990000D01*
X154846666Y-84056666D01*
X154780000Y-84123333D01*
X154680000Y-84156666D01*
X154513333Y-84156666D01*
X151183333Y-84266666D02*
X150950000Y-83933333D01*
X150783333Y-84266666D02*
X150783333Y-83566666D01*
X151050000Y-83566666D01*
X151116666Y-83600000D01*
X151150000Y-83633333D01*
X151183333Y-83700000D01*
X151183333Y-83800000D01*
X151150000Y-83866666D01*
X151116666Y-83900000D01*
X151050000Y-83933333D01*
X150783333Y-83933333D01*
X151416666Y-83566666D02*
X151883333Y-84266666D01*
X151883333Y-83566666D02*
X151416666Y-84266666D01*
D12*
X129476526Y-93895816D02*
X129473261Y-94752952D01*
X129474893Y-94324384D02*
X127974904Y-94318670D01*
X128188644Y-94462342D01*
X128330956Y-94605742D01*
X128401840Y-94748871D01*
X127980074Y-92961537D02*
X127980618Y-92818680D01*
X128052591Y-92676096D01*
X128124291Y-92604941D01*
X128267419Y-92534057D01*
X128553403Y-92463717D01*
X128910544Y-92465078D01*
X129195984Y-92537594D01*
X129338568Y-92609566D01*
X129409724Y-92681266D01*
X129480608Y-92824395D01*
X129480063Y-92967251D01*
X129408091Y-93109835D01*
X129336391Y-93180991D01*
X129193263Y-93251875D01*
X128907278Y-93322214D01*
X128550138Y-93320854D01*
X128264698Y-93248337D01*
X128122114Y-93176365D01*
X128050958Y-93104665D01*
X127980074Y-92961537D01*
X129341561Y-91823858D02*
X129413261Y-91752702D01*
X129484417Y-91824402D01*
X129412717Y-91895558D01*
X129341561Y-91823858D01*
X129484417Y-91824402D01*
X127989870Y-90390127D02*
X127987149Y-91104407D01*
X128701157Y-91178556D01*
X128630002Y-91106856D01*
X128559118Y-90963728D01*
X128560478Y-90606588D01*
X128632450Y-90464004D01*
X128704151Y-90392848D01*
X128847279Y-90321964D01*
X129204419Y-90323324D01*
X129347003Y-90395297D01*
X129418159Y-90466997D01*
X129489043Y-90610125D01*
X129487682Y-90967265D01*
X129415710Y-91109849D01*
X129344010Y-91181005D01*
X127993680Y-89390134D02*
X127994224Y-89247278D01*
X128066196Y-89104694D01*
X128137896Y-89033538D01*
X128281024Y-88962654D01*
X128567009Y-88892314D01*
X128924149Y-88893675D01*
X129209589Y-88966191D01*
X129352173Y-89038164D01*
X129423329Y-89109864D01*
X129494213Y-89252992D01*
X129493669Y-89395848D01*
X129421696Y-89538432D01*
X129349996Y-89609588D01*
X129206868Y-89680472D01*
X128920884Y-89750812D01*
X128563743Y-89749451D01*
X128278303Y-89676935D01*
X128135719Y-89604962D01*
X128064563Y-89533262D01*
X127993680Y-89390134D01*
X127999122Y-87961573D02*
X127999666Y-87818717D01*
X128071638Y-87676133D01*
X128143338Y-87604977D01*
X128286467Y-87534093D01*
X128572451Y-87463753D01*
X128929591Y-87465114D01*
X129215031Y-87537630D01*
X129357615Y-87609603D01*
X129428771Y-87681303D01*
X129499655Y-87824431D01*
X129499111Y-87967287D01*
X129427139Y-88109871D01*
X129355438Y-88181027D01*
X129212310Y-88251911D01*
X128926326Y-88322251D01*
X128569186Y-88320890D01*
X128283746Y-88248373D01*
X128141162Y-88176401D01*
X128070006Y-88104701D01*
X127999122Y-87961573D01*
X129507818Y-85681589D02*
X128507826Y-85677780D01*
X128650682Y-85678324D02*
X128579526Y-85606624D01*
X128508642Y-85463496D01*
X128509458Y-85249212D01*
X128581430Y-85106628D01*
X128724559Y-85035744D01*
X129510267Y-85038737D01*
X128724559Y-85035744D02*
X128581975Y-84963771D01*
X128511091Y-84820643D01*
X128511907Y-84606359D01*
X128583879Y-84463775D01*
X128727008Y-84392891D01*
X129512716Y-84395884D01*
X129515437Y-83681604D02*
X128515445Y-83677794D01*
X128658301Y-83678339D02*
X128587145Y-83606638D01*
X128516261Y-83463510D01*
X128517077Y-83249226D01*
X128589049Y-83106642D01*
X128732178Y-83035758D01*
X129517886Y-83038751D01*
X128732178Y-83035758D02*
X128589594Y-82963786D01*
X128518710Y-82820658D01*
X128519526Y-82606374D01*
X128591498Y-82463790D01*
X128734627Y-82392906D01*
X129520335Y-82395899D01*
X130188358Y-83291270D02*
X130148358Y-93791270D01*
X132480000Y-83300000D02*
X127488378Y-83280984D01*
X132440000Y-93800000D02*
X127448378Y-93780984D01*
X130148358Y-93791270D02*
X129566233Y-92662540D01*
X130148358Y-93791270D02*
X130739066Y-92667008D01*
X130188358Y-83291270D02*
X129597650Y-84415532D01*
X130188358Y-83291270D02*
X130770483Y-84420000D01*
X138785661Y-98323141D02*
X138856775Y-98251399D01*
X138999318Y-98179344D01*
X139356457Y-98177777D01*
X139499626Y-98248578D01*
X139571368Y-98319692D01*
X139643423Y-98462234D01*
X139644050Y-98605090D01*
X139573563Y-98819687D01*
X138720190Y-99680584D01*
X139648753Y-99676508D01*
X140999298Y-98170566D02*
X140285020Y-98173701D01*
X140216727Y-98888293D01*
X140287841Y-98816552D01*
X140430384Y-98744497D01*
X140787523Y-98742929D01*
X140930692Y-98813730D01*
X141002434Y-98884844D01*
X141074489Y-99027387D01*
X141076056Y-99384526D01*
X141005256Y-99527695D01*
X140934141Y-99599437D01*
X140791599Y-99671492D01*
X140434460Y-99673059D01*
X140291290Y-99602259D01*
X140219549Y-99531144D01*
X141719534Y-99524560D02*
X141791276Y-99595674D01*
X141720161Y-99667416D01*
X141648420Y-99596301D01*
X141719534Y-99524560D01*
X141720161Y-99667416D01*
X142713568Y-98163041D02*
X142856423Y-98162414D01*
X142999593Y-98233215D01*
X143071334Y-98304329D01*
X143143389Y-98446871D01*
X143216071Y-98732269D01*
X143217639Y-99089409D01*
X143147465Y-99375434D01*
X143076664Y-99518603D01*
X143005550Y-99590344D01*
X142863008Y-99662399D01*
X142720152Y-99663026D01*
X142576982Y-99592226D01*
X142505241Y-99521111D01*
X142433186Y-99378569D01*
X142360504Y-99093171D01*
X142358936Y-98736032D01*
X142429110Y-98450006D01*
X142499911Y-98306837D01*
X142571025Y-98235096D01*
X142713568Y-98163041D01*
X144499265Y-98155203D02*
X144213553Y-98156457D01*
X144071011Y-98228512D01*
X143999897Y-98300253D01*
X143857981Y-98515164D01*
X143787808Y-98801189D01*
X143790316Y-99372612D01*
X143862371Y-99515154D01*
X143934112Y-99586268D01*
X144077282Y-99657069D01*
X144362993Y-99655815D01*
X144505535Y-99583760D01*
X144576650Y-99512019D01*
X144647450Y-99368850D01*
X144645883Y-99011710D01*
X144573828Y-98869168D01*
X144502086Y-98798054D01*
X144358917Y-98727253D01*
X144073206Y-98728507D01*
X143930663Y-98800562D01*
X143859549Y-98872303D01*
X143788748Y-99015472D01*
X145570683Y-98150500D02*
X145713539Y-98149873D01*
X145856708Y-98220673D01*
X145928449Y-98291788D01*
X146000504Y-98434330D01*
X146073186Y-98719728D01*
X146074754Y-99076867D01*
X146004580Y-99362892D01*
X145933779Y-99506062D01*
X145862665Y-99577803D01*
X145720123Y-99649858D01*
X145577267Y-99650485D01*
X145434098Y-99579684D01*
X145362356Y-99508570D01*
X145290301Y-99366028D01*
X145217619Y-99080630D01*
X145216052Y-98723490D01*
X145286226Y-98437465D01*
X145357026Y-98294296D01*
X145428141Y-98222555D01*
X145570683Y-98150500D01*
X147862959Y-99640452D02*
X147858570Y-98640462D01*
X147859197Y-98783318D02*
X147930311Y-98711576D01*
X148072854Y-98639521D01*
X148287137Y-98638581D01*
X148430307Y-98709381D01*
X148502361Y-98851924D01*
X148505810Y-99637630D01*
X148502361Y-98851924D02*
X148573162Y-98708754D01*
X148715705Y-98636699D01*
X148929988Y-98635759D01*
X149073157Y-98706560D01*
X149145212Y-98849102D01*
X149148661Y-99634809D01*
X149862940Y-99631673D02*
X149858551Y-98631683D01*
X149859178Y-98774539D02*
X149930292Y-98702797D01*
X150072834Y-98630742D01*
X150287118Y-98629802D01*
X150430287Y-98700603D01*
X150502342Y-98843145D01*
X150505791Y-99628852D01*
X150502342Y-98843145D02*
X150573143Y-98699976D01*
X150715685Y-98627921D01*
X150929969Y-98626980D01*
X151073138Y-98697781D01*
X151145193Y-98840323D01*
X151148642Y-99626030D01*
X132466941Y-97679442D02*
X157526941Y-97569442D01*
X132450000Y-93820000D02*
X132478792Y-100379416D01*
X157510000Y-93710000D02*
X157538792Y-100269416D01*
X157526941Y-97569442D02*
X156403022Y-98160802D01*
X157526941Y-97569442D02*
X156397874Y-96987972D01*
X132466941Y-97679442D02*
X133596008Y-98260912D01*
X132466941Y-97679442D02*
X133590860Y-97088082D01*
D11*
X152570000Y-89570000D02*
X152570000Y-87770000D01*
X154170000Y-87270000D02*
X154170000Y-90070000D01*
X155770000Y-90470000D02*
X155770000Y-86870000D01*
X153070000Y-89570000D02*
X153070000Y-87770000D01*
X154670000Y-87270000D02*
X154670000Y-90070000D01*
X156320000Y-90470000D02*
X156320000Y-86870000D01*
D13*
X138580000Y-85990000D02*
X139080000Y-85990000D01*
X139080000Y-85050000D02*
X138580000Y-85050000D01*
X139090000Y-90090000D02*
X138590000Y-90090000D01*
X138590000Y-91030000D02*
X139090000Y-91030000D01*
X138590000Y-92160000D02*
X139090000Y-92160000D01*
X139090000Y-91220000D02*
X138590000Y-91220000D01*
X139090000Y-92470000D02*
X138590000Y-92470000D01*
X138590000Y-93410000D02*
X139090000Y-93410000D01*
X131220000Y-84290000D02*
X137630000Y-84290000D01*
X132450000Y-92990000D02*
X132450000Y-84290000D01*
X137630000Y-92990000D02*
X131220000Y-92990000D01*
X137630000Y-84290000D02*
X137630000Y-92990000D01*
X131220000Y-84290000D02*
X131220000Y-92990000D01*
X147740000Y-90470000D02*
X148240000Y-90470000D01*
X148240000Y-89410000D02*
X147740000Y-89410000D01*
X143380000Y-93580000D02*
X145830000Y-93580000D01*
X145180000Y-90360000D02*
X143380000Y-90360000D01*
D11*
X146550000Y-85210000D02*
X146025000Y-85210000D01*
X146550000Y-89510000D02*
X146025000Y-89510000D01*
X142250000Y-89510000D02*
X142775000Y-89510000D01*
X142250000Y-85210000D02*
X142775000Y-85210000D01*
X146550000Y-89510000D02*
X146550000Y-88985000D01*
X142250000Y-89510000D02*
X142250000Y-88985000D01*
X146550000Y-85210000D02*
X146550000Y-85735000D01*
D14*
G36*
X160624026Y-89825160D02*
X160989856Y-89849503D01*
X161316204Y-89897239D01*
X161850883Y-90030070D01*
X162347330Y-90211280D01*
X162811417Y-90444007D01*
X163249012Y-90731389D01*
X163665985Y-91076562D01*
X163846961Y-91250082D01*
X164219964Y-91661349D01*
X164533848Y-92091700D01*
X164791501Y-92546540D01*
X164995813Y-93031275D01*
X165149673Y-93551308D01*
X165199804Y-93780839D01*
X165248016Y-94111812D01*
X165272042Y-94477950D01*
X165271883Y-94855708D01*
X165247540Y-95221538D01*
X165199804Y-95547886D01*
X165066212Y-96084305D01*
X164883377Y-96583162D01*
X164648411Y-97049862D01*
X164358424Y-97489810D01*
X164010527Y-97908410D01*
X163846961Y-98078643D01*
X163432493Y-98454113D01*
X162998236Y-98770186D01*
X162540330Y-99028932D01*
X162054915Y-99232424D01*
X161538132Y-99382732D01*
X161337556Y-99425406D01*
X161113201Y-99460174D01*
X160855182Y-99486352D01*
X160583810Y-99502967D01*
X160319397Y-99509050D01*
X160082254Y-99503630D01*
X159940556Y-99492148D01*
X159380601Y-99396083D01*
X158844832Y-99241924D01*
X158335902Y-99031152D01*
X157856460Y-98765250D01*
X157409156Y-98445698D01*
X156996642Y-98073980D01*
X156621568Y-97651575D01*
X156600677Y-97625117D01*
X156291908Y-97181139D01*
X156038071Y-96709437D01*
X155839814Y-96215230D01*
X155697785Y-95703739D01*
X155612632Y-95180185D01*
X155585001Y-94649787D01*
X155615148Y-94124613D01*
X157732646Y-94124613D01*
X157820601Y-94277752D01*
X158028351Y-94639114D01*
X158236627Y-95000722D01*
X158442996Y-95358394D01*
X158645025Y-95707949D01*
X158840280Y-96045205D01*
X159026328Y-96365981D01*
X159200734Y-96666093D01*
X159361067Y-96941362D01*
X159504893Y-97187604D01*
X159629777Y-97400639D01*
X159733287Y-97576285D01*
X159812990Y-97710359D01*
X159866451Y-97798681D01*
X159891237Y-97837068D01*
X159892609Y-97838397D01*
X159911285Y-97811559D01*
X159958259Y-97735141D01*
X160030279Y-97614672D01*
X160124095Y-97455680D01*
X160236455Y-97263694D01*
X160364110Y-97044244D01*
X160503807Y-96802856D01*
X160616058Y-96608084D01*
X160779915Y-96323325D01*
X160948412Y-96030610D01*
X161115798Y-95739921D01*
X161276321Y-95461243D01*
X161424230Y-95204559D01*
X161553775Y-94979853D01*
X161659205Y-94797107D01*
X161686164Y-94750414D01*
X162049018Y-94122091D01*
X161792220Y-94131289D01*
X161535423Y-94140488D01*
X160723754Y-95545425D01*
X160565999Y-95817752D01*
X160417498Y-96072682D01*
X160281316Y-96305053D01*
X160160517Y-96509705D01*
X160058164Y-96681477D01*
X159977321Y-96815210D01*
X159921052Y-96905742D01*
X159892420Y-96947913D01*
X159889679Y-96950363D01*
X159869941Y-96923684D01*
X159821648Y-96847078D01*
X159747852Y-96725692D01*
X159651609Y-96564673D01*
X159535971Y-96369167D01*
X159403993Y-96144322D01*
X159258728Y-95895285D01*
X159103230Y-95627201D01*
X159051378Y-95537488D01*
X158235484Y-94124613D01*
X157732646Y-94124613D01*
X155615148Y-94124613D01*
X155615541Y-94117768D01*
X155704899Y-93589347D01*
X155853723Y-93069744D01*
X155991917Y-92717960D01*
X156210355Y-92283113D01*
X157739683Y-92283113D01*
X158808369Y-94137613D01*
X159033241Y-94527038D01*
X159228608Y-94863579D01*
X159396001Y-95149756D01*
X159536948Y-95388087D01*
X159652978Y-95581088D01*
X159745621Y-95731278D01*
X159816404Y-95841175D01*
X159866857Y-95913296D01*
X159898510Y-95950160D01*
X159912160Y-95955301D01*
X159945582Y-95909145D01*
X159996837Y-95826546D01*
X160044418Y-95743863D01*
X160141571Y-95569238D01*
X159318751Y-94145415D01*
X159160300Y-93870993D01*
X159011882Y-93613491D01*
X158876458Y-93378079D01*
X158783060Y-93215347D01*
X159362863Y-93215347D01*
X159371968Y-93246283D01*
X159407096Y-93316648D01*
X159460900Y-93411849D01*
X159466890Y-93421947D01*
X159582852Y-93616613D01*
X161233538Y-93616613D01*
X161599670Y-93616708D01*
X161907287Y-93617106D01*
X162161377Y-93617979D01*
X162366923Y-93619495D01*
X162528912Y-93621824D01*
X162652331Y-93625137D01*
X162742163Y-93629603D01*
X162803396Y-93635393D01*
X162841014Y-93642676D01*
X162860004Y-93651623D01*
X162865352Y-93662403D01*
X162863266Y-93672175D01*
X162843644Y-93709951D01*
X162795322Y-93797186D01*
X162721429Y-93928389D01*
X162625091Y-94098070D01*
X162509436Y-94300739D01*
X162377591Y-94530905D01*
X162232683Y-94783078D01*
X162077839Y-95051768D01*
X162050244Y-95099573D01*
X161894828Y-95369182D01*
X161749507Y-95622108D01*
X161617304Y-95853036D01*
X161501239Y-96056649D01*
X161404334Y-96227628D01*
X161329609Y-96360659D01*
X161280087Y-96450422D01*
X161258788Y-96491602D01*
X161258181Y-96493522D01*
X161272657Y-96535649D01*
X161309788Y-96609222D01*
X161360128Y-96698435D01*
X161414229Y-96787479D01*
X161462644Y-96860547D01*
X161495927Y-96901831D01*
X161504286Y-96905340D01*
X161522840Y-96875446D01*
X161570441Y-96795103D01*
X161644431Y-96668881D01*
X161742154Y-96501350D01*
X161860953Y-96297082D01*
X161998171Y-96060647D01*
X162151152Y-95796614D01*
X162317239Y-95509556D01*
X162493776Y-95204042D01*
X162580681Y-95053506D01*
X163639010Y-93219738D01*
X161506904Y-93211575D01*
X161144951Y-93210363D01*
X160801997Y-93209552D01*
X160483268Y-93209132D01*
X160193988Y-93209095D01*
X159939385Y-93209431D01*
X159724683Y-93210131D01*
X159555109Y-93211186D01*
X159435889Y-93212586D01*
X159372248Y-93214323D01*
X159362863Y-93215347D01*
X158783060Y-93215347D01*
X158756991Y-93169927D01*
X158656442Y-92994207D01*
X158577773Y-92856087D01*
X158523946Y-92760740D01*
X158497923Y-92713335D01*
X158495931Y-92709011D01*
X158526700Y-92706446D01*
X158615084Y-92703747D01*
X158755199Y-92700987D01*
X158941160Y-92698242D01*
X159167083Y-92695584D01*
X159427083Y-92693087D01*
X159715276Y-92690826D01*
X160025777Y-92688874D01*
X160152633Y-92688208D01*
X161809336Y-92679988D01*
X161913522Y-92505363D01*
X161967663Y-92411453D01*
X162005783Y-92339308D01*
X162018944Y-92306925D01*
X161988271Y-92302895D01*
X161899270Y-92299079D01*
X161757116Y-92295535D01*
X161566983Y-92292321D01*
X161334042Y-92289495D01*
X161063469Y-92287113D01*
X160760435Y-92285234D01*
X160430114Y-92283915D01*
X160077679Y-92283214D01*
X159879932Y-92283113D01*
X157739683Y-92283113D01*
X156210355Y-92283113D01*
X156212235Y-92279371D01*
X156477908Y-91868227D01*
X156796377Y-91473590D01*
X156954284Y-91303255D01*
X157362835Y-90922488D01*
X157801540Y-90597359D01*
X158271437Y-90327306D01*
X158773565Y-90111765D01*
X159308961Y-89950175D01*
X159549157Y-89897239D01*
X159880130Y-89849027D01*
X160246268Y-89825001D01*
X160624026Y-89825160D01*
X160624026Y-89825160D01*
G37*
X160624026Y-89825160D02*
X160989856Y-89849503D01*
X161316204Y-89897239D01*
X161850883Y-90030070D01*
X162347330Y-90211280D01*
X162811417Y-90444007D01*
X163249012Y-90731389D01*
X163665985Y-91076562D01*
X163846961Y-91250082D01*
X164219964Y-91661349D01*
X164533848Y-92091700D01*
X164791501Y-92546540D01*
X164995813Y-93031275D01*
X165149673Y-93551308D01*
X165199804Y-93780839D01*
X165248016Y-94111812D01*
X165272042Y-94477950D01*
X165271883Y-94855708D01*
X165247540Y-95221538D01*
X165199804Y-95547886D01*
X165066212Y-96084305D01*
X164883377Y-96583162D01*
X164648411Y-97049862D01*
X164358424Y-97489810D01*
X164010527Y-97908410D01*
X163846961Y-98078643D01*
X163432493Y-98454113D01*
X162998236Y-98770186D01*
X162540330Y-99028932D01*
X162054915Y-99232424D01*
X161538132Y-99382732D01*
X161337556Y-99425406D01*
X161113201Y-99460174D01*
X160855182Y-99486352D01*
X160583810Y-99502967D01*
X160319397Y-99509050D01*
X160082254Y-99503630D01*
X159940556Y-99492148D01*
X159380601Y-99396083D01*
X158844832Y-99241924D01*
X158335902Y-99031152D01*
X157856460Y-98765250D01*
X157409156Y-98445698D01*
X156996642Y-98073980D01*
X156621568Y-97651575D01*
X156600677Y-97625117D01*
X156291908Y-97181139D01*
X156038071Y-96709437D01*
X155839814Y-96215230D01*
X155697785Y-95703739D01*
X155612632Y-95180185D01*
X155585001Y-94649787D01*
X155615148Y-94124613D01*
X157732646Y-94124613D01*
X157820601Y-94277752D01*
X158028351Y-94639114D01*
X158236627Y-95000722D01*
X158442996Y-95358394D01*
X158645025Y-95707949D01*
X158840280Y-96045205D01*
X159026328Y-96365981D01*
X159200734Y-96666093D01*
X159361067Y-96941362D01*
X159504893Y-97187604D01*
X159629777Y-97400639D01*
X159733287Y-97576285D01*
X159812990Y-97710359D01*
X159866451Y-97798681D01*
X159891237Y-97837068D01*
X159892609Y-97838397D01*
X159911285Y-97811559D01*
X159958259Y-97735141D01*
X160030279Y-97614672D01*
X160124095Y-97455680D01*
X160236455Y-97263694D01*
X160364110Y-97044244D01*
X160503807Y-96802856D01*
X160616058Y-96608084D01*
X160779915Y-96323325D01*
X160948412Y-96030610D01*
X161115798Y-95739921D01*
X161276321Y-95461243D01*
X161424230Y-95204559D01*
X161553775Y-94979853D01*
X161659205Y-94797107D01*
X161686164Y-94750414D01*
X162049018Y-94122091D01*
X161792220Y-94131289D01*
X161535423Y-94140488D01*
X160723754Y-95545425D01*
X160565999Y-95817752D01*
X160417498Y-96072682D01*
X160281316Y-96305053D01*
X160160517Y-96509705D01*
X160058164Y-96681477D01*
X159977321Y-96815210D01*
X159921052Y-96905742D01*
X159892420Y-96947913D01*
X159889679Y-96950363D01*
X159869941Y-96923684D01*
X159821648Y-96847078D01*
X159747852Y-96725692D01*
X159651609Y-96564673D01*
X159535971Y-96369167D01*
X159403993Y-96144322D01*
X159258728Y-95895285D01*
X159103230Y-95627201D01*
X159051378Y-95537488D01*
X158235484Y-94124613D01*
X157732646Y-94124613D01*
X155615148Y-94124613D01*
X155615541Y-94117768D01*
X155704899Y-93589347D01*
X155853723Y-93069744D01*
X155991917Y-92717960D01*
X156210355Y-92283113D01*
X157739683Y-92283113D01*
X158808369Y-94137613D01*
X159033241Y-94527038D01*
X159228608Y-94863579D01*
X159396001Y-95149756D01*
X159536948Y-95388087D01*
X159652978Y-95581088D01*
X159745621Y-95731278D01*
X159816404Y-95841175D01*
X159866857Y-95913296D01*
X159898510Y-95950160D01*
X159912160Y-95955301D01*
X159945582Y-95909145D01*
X159996837Y-95826546D01*
X160044418Y-95743863D01*
X160141571Y-95569238D01*
X159318751Y-94145415D01*
X159160300Y-93870993D01*
X159011882Y-93613491D01*
X158876458Y-93378079D01*
X158783060Y-93215347D01*
X159362863Y-93215347D01*
X159371968Y-93246283D01*
X159407096Y-93316648D01*
X159460900Y-93411849D01*
X159466890Y-93421947D01*
X159582852Y-93616613D01*
X161233538Y-93616613D01*
X161599670Y-93616708D01*
X161907287Y-93617106D01*
X162161377Y-93617979D01*
X162366923Y-93619495D01*
X162528912Y-93621824D01*
X162652331Y-93625137D01*
X162742163Y-93629603D01*
X162803396Y-93635393D01*
X162841014Y-93642676D01*
X162860004Y-93651623D01*
X162865352Y-93662403D01*
X162863266Y-93672175D01*
X162843644Y-93709951D01*
X162795322Y-93797186D01*
X162721429Y-93928389D01*
X162625091Y-94098070D01*
X162509436Y-94300739D01*
X162377591Y-94530905D01*
X162232683Y-94783078D01*
X162077839Y-95051768D01*
X162050244Y-95099573D01*
X161894828Y-95369182D01*
X161749507Y-95622108D01*
X161617304Y-95853036D01*
X161501239Y-96056649D01*
X161404334Y-96227628D01*
X161329609Y-96360659D01*
X161280087Y-96450422D01*
X161258788Y-96491602D01*
X161258181Y-96493522D01*
X161272657Y-96535649D01*
X161309788Y-96609222D01*
X161360128Y-96698435D01*
X161414229Y-96787479D01*
X161462644Y-96860547D01*
X161495927Y-96901831D01*
X161504286Y-96905340D01*
X161522840Y-96875446D01*
X161570441Y-96795103D01*
X161644431Y-96668881D01*
X161742154Y-96501350D01*
X161860953Y-96297082D01*
X161998171Y-96060647D01*
X162151152Y-95796614D01*
X162317239Y-95509556D01*
X162493776Y-95204042D01*
X162580681Y-95053506D01*
X163639010Y-93219738D01*
X161506904Y-93211575D01*
X161144951Y-93210363D01*
X160801997Y-93209552D01*
X160483268Y-93209132D01*
X160193988Y-93209095D01*
X159939385Y-93209431D01*
X159724683Y-93210131D01*
X159555109Y-93211186D01*
X159435889Y-93212586D01*
X159372248Y-93214323D01*
X159362863Y-93215347D01*
X158783060Y-93215347D01*
X158756991Y-93169927D01*
X158656442Y-92994207D01*
X158577773Y-92856087D01*
X158523946Y-92760740D01*
X158497923Y-92713335D01*
X158495931Y-92709011D01*
X158526700Y-92706446D01*
X158615084Y-92703747D01*
X158755199Y-92700987D01*
X158941160Y-92698242D01*
X159167083Y-92695584D01*
X159427083Y-92693087D01*
X159715276Y-92690826D01*
X160025777Y-92688874D01*
X160152633Y-92688208D01*
X161809336Y-92679988D01*
X161913522Y-92505363D01*
X161967663Y-92411453D01*
X162005783Y-92339308D01*
X162018944Y-92306925D01*
X161988271Y-92302895D01*
X161899270Y-92299079D01*
X161757116Y-92295535D01*
X161566983Y-92292321D01*
X161334042Y-92289495D01*
X161063469Y-92287113D01*
X160760435Y-92285234D01*
X160430114Y-92283915D01*
X160077679Y-92283214D01*
X159879932Y-92283113D01*
X157739683Y-92283113D01*
X156210355Y-92283113D01*
X156212235Y-92279371D01*
X156477908Y-91868227D01*
X156796377Y-91473590D01*
X156954284Y-91303255D01*
X157362835Y-90922488D01*
X157801540Y-90597359D01*
X158271437Y-90327306D01*
X158773565Y-90111765D01*
X159308961Y-89950175D01*
X159549157Y-89897239D01*
X159880130Y-89849027D01*
X160246268Y-89825001D01*
X160624026Y-89825160D01*
D11*
X152861904Y-93152380D02*
X152861904Y-92152380D01*
X153242857Y-92152380D01*
X153338095Y-92200000D01*
X153385714Y-92247619D01*
X153433333Y-92342857D01*
X153433333Y-92485714D01*
X153385714Y-92580952D01*
X153338095Y-92628571D01*
X153242857Y-92676190D01*
X152861904Y-92676190D01*
X153814285Y-92247619D02*
X153861904Y-92200000D01*
X153957142Y-92152380D01*
X154195238Y-92152380D01*
X154290476Y-92200000D01*
X154338095Y-92247619D01*
X154385714Y-92342857D01*
X154385714Y-92438095D01*
X154338095Y-92580952D01*
X153766666Y-93152380D01*
X154385714Y-93152380D01*
X140583333Y-85907142D02*
X140535714Y-85954761D01*
X140392857Y-86002380D01*
X140297619Y-86002380D01*
X140154761Y-85954761D01*
X140059523Y-85859523D01*
X140011904Y-85764285D01*
X139964285Y-85573809D01*
X139964285Y-85430952D01*
X140011904Y-85240476D01*
X140059523Y-85145238D01*
X140154761Y-85050000D01*
X140297619Y-85002380D01*
X140392857Y-85002380D01*
X140535714Y-85050000D01*
X140583333Y-85097619D01*
X141535714Y-86002380D02*
X140964285Y-86002380D01*
X141250000Y-86002380D02*
X141250000Y-85002380D01*
X141154761Y-85145238D01*
X141059523Y-85240476D01*
X140964285Y-85288095D01*
X140603333Y-90907142D02*
X140555714Y-90954761D01*
X140412857Y-91002380D01*
X140317619Y-91002380D01*
X140174761Y-90954761D01*
X140079523Y-90859523D01*
X140031904Y-90764285D01*
X139984285Y-90573809D01*
X139984285Y-90430952D01*
X140031904Y-90240476D01*
X140079523Y-90145238D01*
X140174761Y-90050000D01*
X140317619Y-90002380D01*
X140412857Y-90002380D01*
X140555714Y-90050000D01*
X140603333Y-90097619D01*
X140984285Y-90097619D02*
X141031904Y-90050000D01*
X141127142Y-90002380D01*
X141365238Y-90002380D01*
X141460476Y-90050000D01*
X141508095Y-90097619D01*
X141555714Y-90192857D01*
X141555714Y-90288095D01*
X141508095Y-90430952D01*
X140936666Y-91002380D01*
X141555714Y-91002380D01*
X140603333Y-92107142D02*
X140555714Y-92154761D01*
X140412857Y-92202380D01*
X140317619Y-92202380D01*
X140174761Y-92154761D01*
X140079523Y-92059523D01*
X140031904Y-91964285D01*
X139984285Y-91773809D01*
X139984285Y-91630952D01*
X140031904Y-91440476D01*
X140079523Y-91345238D01*
X140174761Y-91250000D01*
X140317619Y-91202380D01*
X140412857Y-91202380D01*
X140555714Y-91250000D01*
X140603333Y-91297619D01*
X140936666Y-91202380D02*
X141555714Y-91202380D01*
X141222380Y-91583333D01*
X141365238Y-91583333D01*
X141460476Y-91630952D01*
X141508095Y-91678571D01*
X141555714Y-91773809D01*
X141555714Y-92011904D01*
X141508095Y-92107142D01*
X141460476Y-92154761D01*
X141365238Y-92202380D01*
X141079523Y-92202380D01*
X140984285Y-92154761D01*
X140936666Y-92107142D01*
X140573333Y-93347142D02*
X140525714Y-93394761D01*
X140382857Y-93442380D01*
X140287619Y-93442380D01*
X140144761Y-93394761D01*
X140049523Y-93299523D01*
X140001904Y-93204285D01*
X139954285Y-93013809D01*
X139954285Y-92870952D01*
X140001904Y-92680476D01*
X140049523Y-92585238D01*
X140144761Y-92490000D01*
X140287619Y-92442380D01*
X140382857Y-92442380D01*
X140525714Y-92490000D01*
X140573333Y-92537619D01*
X141430476Y-92775714D02*
X141430476Y-93442380D01*
X141192380Y-92394761D02*
X140954285Y-93109047D01*
X141573333Y-93109047D01*
X133971904Y-89152380D02*
X133971904Y-88152380D01*
X134352857Y-88152380D01*
X134448095Y-88200000D01*
X134495714Y-88247619D01*
X134543333Y-88342857D01*
X134543333Y-88485714D01*
X134495714Y-88580952D01*
X134448095Y-88628571D01*
X134352857Y-88676190D01*
X133971904Y-88676190D01*
X135495714Y-89152380D02*
X134924285Y-89152380D01*
X135210000Y-89152380D02*
X135210000Y-88152380D01*
X135114761Y-88295238D01*
X135019523Y-88390476D01*
X134924285Y-88438095D01*
X147983333Y-89252380D02*
X147650000Y-88776190D01*
X147411904Y-89252380D02*
X147411904Y-88252380D01*
X147792857Y-88252380D01*
X147888095Y-88300000D01*
X147935714Y-88347619D01*
X147983333Y-88442857D01*
X147983333Y-88585714D01*
X147935714Y-88680952D01*
X147888095Y-88728571D01*
X147792857Y-88776190D01*
X147411904Y-88776190D01*
X148935714Y-89252380D02*
X148364285Y-89252380D01*
X148650000Y-89252380D02*
X148650000Y-88252380D01*
X148554761Y-88395238D01*
X148459523Y-88490476D01*
X148364285Y-88538095D01*
X146578095Y-91392380D02*
X146578095Y-92201904D01*
X146625714Y-92297142D01*
X146673333Y-92344761D01*
X146768571Y-92392380D01*
X146959047Y-92392380D01*
X147054285Y-92344761D01*
X147101904Y-92297142D01*
X147149523Y-92201904D01*
X147149523Y-91392380D01*
X148149523Y-92392380D02*
X147578095Y-92392380D01*
X147863809Y-92392380D02*
X147863809Y-91392380D01*
X147768571Y-91535238D01*
X147673333Y-91630476D01*
X147578095Y-91678095D01*
X143618095Y-83572380D02*
X143618095Y-84381904D01*
X143665714Y-84477142D01*
X143713333Y-84524761D01*
X143808571Y-84572380D01*
X143999047Y-84572380D01*
X144094285Y-84524761D01*
X144141904Y-84477142D01*
X144189523Y-84381904D01*
X144189523Y-83572380D01*
X144618095Y-83667619D02*
X144665714Y-83620000D01*
X144760952Y-83572380D01*
X144999047Y-83572380D01*
X145094285Y-83620000D01*
X145141904Y-83667619D01*
X145189523Y-83762857D01*
X145189523Y-83858095D01*
X145141904Y-84000952D01*
X144570476Y-84572380D01*
X145189523Y-84572380D01*
M02*
