G04 #@! TF.GenerationSoftware,KiCad,Pcbnew,no-vcs-found-0e71686~58~ubuntu17.04.1*
G04 #@! TF.CreationDate,2017-06-20T15:12:17-04:00*
G04 #@! TF.ProjectId,android_debug_cable,616E64726F69645F64656275675F6361,rev?*
G04 #@! TF.FileFunction,Copper,L1,Top,Signal*
G04 #@! TF.FilePolarity,Positive*
%FSLAX46Y46*%
G04 Gerber Fmt 4.6, Leading zero omitted, Abs format (unit mm)*
G04 Created by KiCad (PCBNEW no-vcs-found-0e71686~58~ubuntu17.04.1) date Tue Jun 20 15:12:17 2017*
%MOMM*%
%LPD*%
G01*
G04 APERTURE LIST*
%ADD10C,0.100000*%
%ADD11R,0.400000X1.000000*%
%ADD12R,1.200000X1.500000*%
%ADD13R,1.050000X1.500000*%
%ADD14R,1.100000X1.500000*%
%ADD15R,1.300000X1.500000*%
%ADD16R,1.500000X4.300000*%
%ADD17R,0.600000X0.500000*%
%ADD18O,1.550000X1.000000*%
%ADD19O,0.950000X1.250000*%
%ADD20R,1.350000X0.400000*%
%ADD21C,1.397000*%
%ADD22O,1.397000X1.397000*%
%ADD23R,0.400000X0.600000*%
%ADD24R,1.060000X0.650000*%
%ADD25R,1.300000X1.300000*%
%ADD26R,0.300000X0.850000*%
%ADD27R,0.850000X0.300000*%
%ADD28C,0.800000*%
%ADD29C,0.250000*%
G04 APERTURE END LIST*
D10*
D11*
X157720000Y-85870000D03*
D12*
X156920000Y-86120000D03*
D13*
X155220000Y-86520000D03*
D14*
X153620000Y-87020000D03*
D15*
X151920000Y-87270000D03*
D16*
X150520000Y-88670000D03*
D15*
X151920000Y-90070000D03*
D14*
X153620000Y-90320000D03*
D13*
X155220000Y-90820000D03*
D11*
X157720000Y-91470000D03*
D12*
X156920000Y-91220000D03*
D17*
X139380000Y-85520000D03*
X138280000Y-85520000D03*
X138290000Y-90560000D03*
X139390000Y-90560000D03*
X139390000Y-91690000D03*
X138290000Y-91690000D03*
X138290000Y-92940000D03*
X139390000Y-92940000D03*
D18*
X133900000Y-92140000D03*
X133900000Y-85140000D03*
D19*
X136600000Y-91140000D03*
X136600000Y-86140000D03*
D20*
X136600000Y-89940000D03*
X136600000Y-89290000D03*
X136600000Y-88640000D03*
X136600000Y-87990000D03*
X136600000Y-87340000D03*
D21*
X152640000Y-84870000D03*
X150100000Y-84870000D03*
D22*
X155180000Y-84870000D03*
D21*
X147560000Y-84870000D03*
D23*
X148440000Y-89940000D03*
X147540000Y-89940000D03*
D24*
X143180000Y-92920000D03*
X143180000Y-91020000D03*
X145380000Y-91020000D03*
X145380000Y-91970000D03*
X145380000Y-92920000D03*
D25*
X143750000Y-86710000D03*
X143750000Y-88010000D03*
X145050000Y-86710000D03*
X145050000Y-88010000D03*
D26*
X143150000Y-85410000D03*
X143650000Y-85410000D03*
X144150000Y-85410000D03*
X144650000Y-85410000D03*
X145150000Y-85410000D03*
X145650000Y-85410000D03*
D27*
X146350000Y-86110000D03*
X146350000Y-86610000D03*
X146350000Y-87110000D03*
X146350000Y-87610000D03*
X146350000Y-88110000D03*
X146350000Y-88610000D03*
D26*
X145650000Y-89310000D03*
X145150000Y-89310000D03*
X144650000Y-89310000D03*
X144150000Y-89310000D03*
X143650000Y-89310000D03*
X143150000Y-89310000D03*
D27*
X142450000Y-88610000D03*
X142450000Y-88110000D03*
X142450000Y-87610000D03*
X142450000Y-87110000D03*
X142450000Y-86610000D03*
X142450000Y-86110000D03*
D28*
X140890135Y-84647166D03*
X156950000Y-92900000D03*
X150720000Y-92550000D03*
X139290000Y-86370002D03*
X139289821Y-89259989D03*
X142111204Y-92330990D03*
X135930000Y-92930000D03*
X147480000Y-93020000D03*
X143834685Y-92435279D03*
X148645924Y-92611244D03*
X141177147Y-88406811D03*
X137380000Y-92050000D03*
X142177321Y-90325439D03*
X147820000Y-87360000D03*
X155190000Y-92224989D03*
X144280856Y-91540319D03*
X137995175Y-87264990D03*
X138140000Y-89430000D03*
X148792660Y-86472660D03*
X142290000Y-84640000D03*
X152230000Y-91670000D03*
X149519042Y-88912368D03*
D29*
X139380000Y-85520000D02*
X140017301Y-85520000D01*
X140490136Y-85047165D02*
X140890135Y-84647166D01*
X140017301Y-85520000D02*
X140490136Y-85047165D01*
X156920000Y-91220000D02*
X156920000Y-92870000D01*
X156920000Y-92870000D02*
X156950000Y-92900000D01*
X150720000Y-92550000D02*
X151119999Y-92949999D01*
X151119999Y-92949999D02*
X156900001Y-92949999D01*
X156900001Y-92949999D02*
X156950000Y-92900000D01*
X155180000Y-84870000D02*
X156670000Y-84870000D01*
X156670000Y-84870000D02*
X156920000Y-85120000D01*
X156920000Y-85120000D02*
X156920000Y-86120000D01*
X156910000Y-86110000D02*
X156920000Y-86120000D01*
X157170000Y-85870000D02*
X156920000Y-86120000D01*
X157170000Y-91470000D02*
X156920000Y-91220000D01*
X155220000Y-84880000D02*
X155130000Y-84790000D01*
X155170000Y-85060000D02*
X155170000Y-84650000D01*
X155170000Y-84650000D02*
X155490000Y-84330000D01*
X155170000Y-84420000D02*
X155170000Y-85060000D01*
X139290000Y-86370002D02*
X139130002Y-86370002D01*
X139130002Y-86370002D02*
X138280000Y-85520000D01*
X138330000Y-85520000D02*
X138280000Y-85520000D01*
X139855506Y-89259989D02*
X139289821Y-89259989D01*
X141396971Y-89259989D02*
X139855506Y-89259989D01*
X142450000Y-88610000D02*
X142046960Y-88610000D01*
X142046960Y-88610000D02*
X141396971Y-89259989D01*
X138915001Y-89984999D02*
X141308371Y-89984999D01*
X138290000Y-90560000D02*
X138340000Y-90560000D01*
X142750000Y-89310000D02*
X143150000Y-89310000D01*
X138340000Y-90560000D02*
X138915001Y-89984999D01*
X141308371Y-89984999D02*
X141983370Y-89310000D01*
X141983370Y-89310000D02*
X142750000Y-89310000D01*
X139390000Y-92940000D02*
X141502194Y-92940000D01*
X141502194Y-92940000D02*
X142111204Y-92330990D01*
X135950000Y-92500508D02*
X135950000Y-92910000D01*
X135950000Y-92910000D02*
X135930000Y-92930000D01*
X143650000Y-89985000D02*
X143650000Y-89310000D01*
X144358904Y-90815317D02*
X143650000Y-90106413D01*
X145380000Y-91020000D02*
X145175317Y-90815317D01*
X145175317Y-90815317D02*
X144358904Y-90815317D01*
X143650000Y-90106413D02*
X143650000Y-89985000D01*
X134492288Y-91042796D02*
X135950000Y-92500508D01*
X145380000Y-92920000D02*
X147380000Y-92920000D01*
X147380000Y-92920000D02*
X147480000Y-93020000D01*
X134492288Y-91042796D02*
X134492288Y-88522712D01*
X134492288Y-88522712D02*
X135675000Y-87340000D01*
X135675000Y-87340000D02*
X136600000Y-87340000D01*
X139390000Y-92940000D02*
X139440000Y-92940000D01*
X139469990Y-90639990D02*
X139390000Y-90560000D01*
X139440000Y-92940000D02*
X140015001Y-92364999D01*
X140015001Y-92364999D02*
X140015001Y-91078591D01*
X139576400Y-90639990D02*
X139469990Y-90639990D01*
X140015001Y-91078591D02*
X139576400Y-90639990D01*
X139370000Y-92940000D02*
X139320000Y-92940000D01*
X145380000Y-92920000D02*
X145175000Y-92920000D01*
X139420000Y-92940000D02*
X139370000Y-92940000D01*
X146240000Y-92840000D02*
X146240000Y-91100000D01*
X146240000Y-91100000D02*
X146160000Y-91020000D01*
X146160000Y-91020000D02*
X145380000Y-91020000D01*
X145380000Y-92920000D02*
X146160000Y-92920000D01*
X146160000Y-92920000D02*
X146240000Y-92840000D01*
X143434686Y-92835278D02*
X143834685Y-92435279D01*
X143349964Y-92920000D02*
X143434686Y-92835278D01*
X143180000Y-92920000D02*
X143349964Y-92920000D01*
X148440000Y-89940000D02*
X148440000Y-92405320D01*
X148440000Y-92405320D02*
X148645924Y-92611244D01*
X141473958Y-88110000D02*
X141177147Y-88406811D01*
X142450000Y-88110000D02*
X141473958Y-88110000D01*
X139390000Y-91690000D02*
X139340000Y-91690000D01*
X139340000Y-91690000D02*
X138760954Y-92269046D01*
X138760954Y-92269046D02*
X137599046Y-92269046D01*
X137599046Y-92269046D02*
X137380000Y-92050000D01*
X142177321Y-91342321D02*
X142177321Y-90325439D01*
X143180000Y-92920000D02*
X143180000Y-92345000D01*
X143180000Y-92345000D02*
X142177321Y-91342321D01*
X148583501Y-85656499D02*
X147820000Y-86420000D01*
X147820000Y-86420000D02*
X147820000Y-87360000D01*
X148583501Y-84646499D02*
X148583501Y-85656499D01*
X149383501Y-83846499D02*
X148583501Y-84646499D01*
X152640000Y-84870000D02*
X151616499Y-83846499D01*
X151616499Y-83846499D02*
X149383501Y-83846499D01*
X155220000Y-92194989D02*
X155190000Y-92224989D01*
X155220000Y-90820000D02*
X155220000Y-92194989D01*
X152640000Y-84870000D02*
X153338499Y-85568499D01*
X153338499Y-85568499D02*
X154268499Y-85568499D01*
X154268499Y-85568499D02*
X155220000Y-86520000D01*
X144600000Y-91970000D02*
X144280856Y-91650856D01*
X144280856Y-91650856D02*
X144280856Y-91540319D01*
X145380000Y-91970000D02*
X144600000Y-91970000D01*
X137986996Y-86140000D02*
X137325000Y-86140000D01*
X137325000Y-86140000D02*
X136600000Y-86140000D01*
X138941999Y-87095003D02*
X137986996Y-86140000D01*
X140123004Y-86610000D02*
X139638001Y-87095003D01*
X142450000Y-86610000D02*
X140123004Y-86610000D01*
X139638001Y-87095003D02*
X138941999Y-87095003D01*
X137210000Y-92940000D02*
X136600000Y-92330000D01*
X136600000Y-92330000D02*
X136600000Y-91140000D01*
X138290000Y-92940000D02*
X137210000Y-92940000D01*
X136600000Y-91140000D02*
X137740000Y-91140000D01*
X137740000Y-91140000D02*
X138290000Y-91690000D01*
X138290000Y-91590000D02*
X138110000Y-91770000D01*
X136620000Y-91160000D02*
X136600000Y-91140000D01*
X145050000Y-88010000D02*
X145050000Y-86710000D01*
X143750000Y-88010000D02*
X145050000Y-88010000D01*
X143750000Y-86710000D02*
X143750000Y-88010000D01*
X142450000Y-86610000D02*
X143650000Y-86610000D01*
X143650000Y-86610000D02*
X143750000Y-86710000D01*
X136760000Y-85980000D02*
X136600000Y-86140000D01*
X136600000Y-91140000D02*
X136600000Y-89940000D01*
X155180000Y-86480000D02*
X155220000Y-86520000D01*
X155170000Y-86470000D02*
X155220000Y-86520000D01*
X155230000Y-90830000D02*
X155220000Y-90820000D01*
X155220000Y-86295000D02*
X155220000Y-86520000D01*
X138275199Y-87545014D02*
X137995175Y-87264990D01*
X139824401Y-87545014D02*
X138275199Y-87545014D01*
X140259415Y-87110000D02*
X139824401Y-87545014D01*
X142450000Y-87110000D02*
X140259415Y-87110000D01*
X136600000Y-88640000D02*
X137350000Y-88640000D01*
X137350000Y-88640000D02*
X138140000Y-89430000D01*
X138140000Y-89430000D02*
X137980000Y-89270000D01*
X142430000Y-87090000D02*
X142450000Y-87110000D01*
X141134510Y-87610000D02*
X141775000Y-87610000D01*
X136600000Y-87990000D02*
X140464510Y-87990000D01*
X141039529Y-87694981D02*
X141044508Y-87690002D01*
X141044508Y-87690002D02*
X141054508Y-87690002D01*
X140759529Y-87694981D02*
X141039529Y-87694981D01*
X141775000Y-87610000D02*
X142450000Y-87610000D01*
X140464510Y-87990000D02*
X140759529Y-87694981D01*
X141054508Y-87690002D02*
X141134510Y-87610000D01*
X148792660Y-86177340D02*
X148792660Y-86472660D01*
X150100000Y-84870000D02*
X148792660Y-86177340D01*
X148792660Y-87038345D02*
X148792660Y-86472660D01*
X148965001Y-90600003D02*
X148965001Y-89379999D01*
X152230000Y-91670000D02*
X150034998Y-91670000D01*
X148965001Y-89379999D02*
X148792660Y-89207658D01*
X150034998Y-91670000D02*
X148965001Y-90600003D01*
X148792660Y-89207658D02*
X148792660Y-87038345D01*
X144650000Y-84735000D02*
X144555000Y-84640000D01*
X144650000Y-85410000D02*
X144650000Y-84735000D01*
X144555000Y-84640000D02*
X142290000Y-84640000D01*
X152230000Y-91670000D02*
X152270000Y-91670000D01*
X152270000Y-91670000D02*
X153620000Y-90320000D01*
X150100000Y-84870000D02*
X151123501Y-85893501D01*
X151123501Y-85893501D02*
X152693501Y-85893501D01*
X152693501Y-85893501D02*
X153620000Y-86820000D01*
X153620000Y-86820000D02*
X153620000Y-87020000D01*
X153620000Y-90520000D02*
X153620000Y-90320000D01*
X149519042Y-88670958D02*
X149519042Y-88912368D01*
X150520000Y-88670000D02*
X149519999Y-88670001D01*
X149519999Y-88670001D02*
X149519042Y-88670958D01*
X145150000Y-84866445D02*
X145150000Y-85410000D01*
X145844944Y-84171501D02*
X145150000Y-84866445D01*
X146861501Y-84171501D02*
X145844944Y-84171501D01*
X147560000Y-84870000D02*
X146861501Y-84171501D01*
X151920000Y-90070000D02*
X150520000Y-88670000D01*
X151920000Y-87270000D02*
X150520000Y-88670000D01*
X147114694Y-90365306D02*
X147540000Y-89940000D01*
X144150000Y-89310000D02*
X144150000Y-89970002D01*
X144545304Y-90365306D02*
X147114694Y-90365306D01*
X144150000Y-89970002D02*
X144545304Y-90365306D01*
M02*
