G04 #@! TF.FileFunction,Legend,Top*
%FSLAX46Y46*%
G04 Gerber Fmt 4.6, Leading zero omitted, Abs format (unit mm)*
G04 Created by KiCad (PCBNEW 4.1.0-alpha+201608281547+7098~46~ubuntu16.04.1-product) date Tue Aug 30 23:09:05 2016*
%MOMM*%
%LPD*%
G01*
G04 APERTURE LIST*
%ADD10C,0.100000*%
%ADD11C,0.150000*%
G04 APERTURE END LIST*
D10*
D11*
X104733333Y-87416666D02*
X104966666Y-88116666D01*
X105200000Y-87416666D01*
X105366666Y-87416666D02*
X105800000Y-87416666D01*
X105566666Y-87683333D01*
X105666666Y-87683333D01*
X105733333Y-87716666D01*
X105766666Y-87750000D01*
X105800000Y-87816666D01*
X105800000Y-87983333D01*
X105766666Y-88050000D01*
X105733333Y-88083333D01*
X105666666Y-88116666D01*
X105466666Y-88116666D01*
X105400000Y-88083333D01*
X105366666Y-88050000D01*
X106100000Y-88050000D02*
X106133333Y-88083333D01*
X106100000Y-88116666D01*
X106066666Y-88083333D01*
X106100000Y-88050000D01*
X106100000Y-88116666D01*
X106366666Y-87416666D02*
X106800000Y-87416666D01*
X106566666Y-87683333D01*
X106666666Y-87683333D01*
X106733333Y-87716666D01*
X106766666Y-87750000D01*
X106800000Y-87816666D01*
X106800000Y-87983333D01*
X106766666Y-88050000D01*
X106733333Y-88083333D01*
X106666666Y-88116666D01*
X106466666Y-88116666D01*
X106400000Y-88083333D01*
X106366666Y-88050000D01*
X102766666Y-87450000D02*
X102700000Y-87416666D01*
X102600000Y-87416666D01*
X102500000Y-87450000D01*
X102433333Y-87516666D01*
X102400000Y-87583333D01*
X102366666Y-87716666D01*
X102366666Y-87816666D01*
X102400000Y-87950000D01*
X102433333Y-88016666D01*
X102500000Y-88083333D01*
X102600000Y-88116666D01*
X102666666Y-88116666D01*
X102766666Y-88083333D01*
X102800000Y-88050000D01*
X102800000Y-87816666D01*
X102666666Y-87816666D01*
X103100000Y-88116666D02*
X103100000Y-87416666D01*
X103500000Y-88116666D01*
X103500000Y-87416666D01*
X103833333Y-88116666D02*
X103833333Y-87416666D01*
X104000000Y-87416666D01*
X104100000Y-87450000D01*
X104166666Y-87516666D01*
X104200000Y-87583333D01*
X104233333Y-87716666D01*
X104233333Y-87816666D01*
X104200000Y-87950000D01*
X104166666Y-88016666D01*
X104100000Y-88083333D01*
X104000000Y-88116666D01*
X103833333Y-88116666D01*
X100166666Y-87416666D02*
X100566666Y-87416666D01*
X100366666Y-88116666D02*
X100366666Y-87416666D01*
X100733333Y-87416666D02*
X101200000Y-88116666D01*
X101200000Y-87416666D02*
X100733333Y-88116666D01*
X97983333Y-88116666D02*
X97750000Y-87783333D01*
X97583333Y-88116666D02*
X97583333Y-87416666D01*
X97850000Y-87416666D01*
X97916666Y-87450000D01*
X97950000Y-87483333D01*
X97983333Y-87550000D01*
X97983333Y-87650000D01*
X97950000Y-87716666D01*
X97916666Y-87750000D01*
X97850000Y-87783333D01*
X97583333Y-87783333D01*
X98216666Y-87416666D02*
X98683333Y-88116666D01*
X98683333Y-87416666D02*
X98216666Y-88116666D01*
X91950000Y-84375000D02*
X92450000Y-84375000D01*
X92450000Y-83425000D02*
X91950000Y-83425000D01*
X91950000Y-85575000D02*
X92450000Y-85575000D01*
X92450000Y-84625000D02*
X91950000Y-84625000D01*
X103625000Y-77600000D02*
X103625000Y-78100000D01*
X104575000Y-78100000D02*
X104575000Y-77600000D01*
X108225000Y-77650000D02*
X108225000Y-78150000D01*
X109175000Y-78150000D02*
X109175000Y-77650000D01*
X91950000Y-87975000D02*
X92450000Y-87975000D01*
X92450000Y-87025000D02*
X91950000Y-87025000D01*
X96575000Y-77375000D02*
X96575000Y-78125000D01*
X91325000Y-82625000D02*
X91325000Y-81875000D01*
X96575000Y-82625000D02*
X96575000Y-81875000D01*
X91325000Y-77375000D02*
X92075000Y-77375000D01*
X91325000Y-82625000D02*
X92075000Y-82625000D01*
X96575000Y-82625000D02*
X95825000Y-82625000D01*
X96575000Y-77375000D02*
X95825000Y-77375000D01*
X106716000Y-79039600D02*
X106716000Y-78739600D01*
X106716000Y-78739600D02*
X107016000Y-78739600D01*
X105816000Y-76839600D02*
X105816000Y-79039600D01*
X105816000Y-79039600D02*
X107016000Y-79039600D01*
X107016000Y-79039600D02*
X107016000Y-76839600D01*
X107016000Y-76839600D02*
X105816000Y-76839600D01*
X92450000Y-85875000D02*
X91950000Y-85875000D01*
X91950000Y-86925000D02*
X92450000Y-86925000D01*
X96974000Y-80100000D02*
X114563500Y-80100000D01*
X114500000Y-84735500D02*
X97000000Y-84735500D01*
X114500000Y-80100000D02*
X114500000Y-84700000D01*
X97000000Y-80135500D02*
X97000000Y-84735500D01*
X90083333Y-84150000D02*
X90050000Y-84183333D01*
X89950000Y-84216666D01*
X89883333Y-84216666D01*
X89783333Y-84183333D01*
X89716666Y-84116666D01*
X89683333Y-84050000D01*
X89650000Y-83916666D01*
X89650000Y-83816666D01*
X89683333Y-83683333D01*
X89716666Y-83616666D01*
X89783333Y-83550000D01*
X89883333Y-83516666D01*
X89950000Y-83516666D01*
X90050000Y-83550000D01*
X90083333Y-83583333D01*
X90750000Y-84216666D02*
X90350000Y-84216666D01*
X90550000Y-84216666D02*
X90550000Y-83516666D01*
X90483333Y-83616666D01*
X90416666Y-83683333D01*
X90350000Y-83716666D01*
X89983333Y-85350000D02*
X89950000Y-85383333D01*
X89850000Y-85416666D01*
X89783333Y-85416666D01*
X89683333Y-85383333D01*
X89616666Y-85316666D01*
X89583333Y-85250000D01*
X89550000Y-85116666D01*
X89550000Y-85016666D01*
X89583333Y-84883333D01*
X89616666Y-84816666D01*
X89683333Y-84750000D01*
X89783333Y-84716666D01*
X89850000Y-84716666D01*
X89950000Y-84750000D01*
X89983333Y-84783333D01*
X90250000Y-84783333D02*
X90283333Y-84750000D01*
X90350000Y-84716666D01*
X90516666Y-84716666D01*
X90583333Y-84750000D01*
X90616666Y-84783333D01*
X90650000Y-84850000D01*
X90650000Y-84916666D01*
X90616666Y-85016666D01*
X90216666Y-85416666D01*
X90650000Y-85416666D01*
X104350000Y-80266666D02*
X104383333Y-80300000D01*
X104416666Y-80400000D01*
X104416666Y-80466666D01*
X104383333Y-80566666D01*
X104316666Y-80633333D01*
X104250000Y-80666666D01*
X104116666Y-80700000D01*
X104016666Y-80700000D01*
X103883333Y-80666666D01*
X103816666Y-80633333D01*
X103750000Y-80566666D01*
X103716666Y-80466666D01*
X103716666Y-80400000D01*
X103750000Y-80300000D01*
X103783333Y-80266666D01*
X103950000Y-79666666D02*
X104416666Y-79666666D01*
X103683333Y-79833333D02*
X104183333Y-80000000D01*
X104183333Y-79566666D01*
X108950000Y-80316666D02*
X108983333Y-80350000D01*
X109016666Y-80450000D01*
X109016666Y-80516666D01*
X108983333Y-80616666D01*
X108916666Y-80683333D01*
X108850000Y-80716666D01*
X108716666Y-80750000D01*
X108616666Y-80750000D01*
X108483333Y-80716666D01*
X108416666Y-80683333D01*
X108350000Y-80616666D01*
X108316666Y-80516666D01*
X108316666Y-80450000D01*
X108350000Y-80350000D01*
X108383333Y-80316666D01*
X108316666Y-79683333D02*
X108316666Y-80016666D01*
X108650000Y-80050000D01*
X108616666Y-80016666D01*
X108583333Y-79950000D01*
X108583333Y-79783333D01*
X108616666Y-79716666D01*
X108650000Y-79683333D01*
X108716666Y-79650000D01*
X108883333Y-79650000D01*
X108950000Y-79683333D01*
X108983333Y-79716666D01*
X109016666Y-79783333D01*
X109016666Y-79950000D01*
X108983333Y-80016666D01*
X108950000Y-80050000D01*
X89983333Y-87750000D02*
X89950000Y-87783333D01*
X89850000Y-87816666D01*
X89783333Y-87816666D01*
X89683333Y-87783333D01*
X89616666Y-87716666D01*
X89583333Y-87650000D01*
X89550000Y-87516666D01*
X89550000Y-87416666D01*
X89583333Y-87283333D01*
X89616666Y-87216666D01*
X89683333Y-87150000D01*
X89783333Y-87116666D01*
X89850000Y-87116666D01*
X89950000Y-87150000D01*
X89983333Y-87183333D01*
X90583333Y-87116666D02*
X90450000Y-87116666D01*
X90383333Y-87150000D01*
X90350000Y-87183333D01*
X90283333Y-87283333D01*
X90250000Y-87416666D01*
X90250000Y-87683333D01*
X90283333Y-87750000D01*
X90316666Y-87783333D01*
X90383333Y-87816666D01*
X90516666Y-87816666D01*
X90583333Y-87783333D01*
X90616666Y-87750000D01*
X90650000Y-87683333D01*
X90650000Y-87516666D01*
X90616666Y-87450000D01*
X90583333Y-87416666D01*
X90516666Y-87383333D01*
X90383333Y-87383333D01*
X90316666Y-87416666D01*
X90283333Y-87450000D01*
X90250000Y-87516666D01*
X89366666Y-79716666D02*
X89366666Y-80283333D01*
X89400000Y-80350000D01*
X89433333Y-80383333D01*
X89500000Y-80416666D01*
X89633333Y-80416666D01*
X89700000Y-80383333D01*
X89733333Y-80350000D01*
X89766666Y-80283333D01*
X89766666Y-79716666D01*
X90066666Y-79783333D02*
X90100000Y-79750000D01*
X90166666Y-79716666D01*
X90333333Y-79716666D01*
X90400000Y-79750000D01*
X90433333Y-79783333D01*
X90466666Y-79850000D01*
X90466666Y-79916666D01*
X90433333Y-80016666D01*
X90033333Y-80416666D01*
X90466666Y-80416666D01*
X106032666Y-80772933D02*
X106599333Y-80772933D01*
X106666000Y-80739600D01*
X106699333Y-80706266D01*
X106732666Y-80639600D01*
X106732666Y-80506266D01*
X106699333Y-80439600D01*
X106666000Y-80406266D01*
X106599333Y-80372933D01*
X106032666Y-80372933D01*
X106732666Y-79672933D02*
X106732666Y-80072933D01*
X106732666Y-79872933D02*
X106032666Y-79872933D01*
X106132666Y-79939600D01*
X106199333Y-80006266D01*
X106232666Y-80072933D01*
X90083333Y-86716666D02*
X89850000Y-86383333D01*
X89683333Y-86716666D02*
X89683333Y-86016666D01*
X89950000Y-86016666D01*
X90016666Y-86050000D01*
X90050000Y-86083333D01*
X90083333Y-86150000D01*
X90083333Y-86250000D01*
X90050000Y-86316666D01*
X90016666Y-86350000D01*
X89950000Y-86383333D01*
X89683333Y-86383333D01*
X90750000Y-86716666D02*
X90350000Y-86716666D01*
X90550000Y-86716666D02*
X90550000Y-86016666D01*
X90483333Y-86116666D01*
X90416666Y-86183333D01*
X90350000Y-86216666D01*
X113816666Y-82816666D02*
X113116666Y-82816666D01*
X113116666Y-82550000D01*
X113150000Y-82483333D01*
X113183333Y-82450000D01*
X113250000Y-82416666D01*
X113350000Y-82416666D01*
X113416666Y-82450000D01*
X113450000Y-82483333D01*
X113483333Y-82550000D01*
X113483333Y-82816666D01*
X113116666Y-82183333D02*
X113116666Y-81750000D01*
X113383333Y-81983333D01*
X113383333Y-81883333D01*
X113416666Y-81816666D01*
X113450000Y-81783333D01*
X113516666Y-81750000D01*
X113683333Y-81750000D01*
X113750000Y-81783333D01*
X113783333Y-81816666D01*
X113816666Y-81883333D01*
X113816666Y-82083333D01*
X113783333Y-82150000D01*
X113750000Y-82183333D01*
M02*
