G04 #@! TF.GenerationSoftware,KiCad,Pcbnew,no-vcs-found-7409~56~ubuntu16.10.1*
G04 #@! TF.CreationDate,2017-01-11T20:07:43-05:00*
G04 #@! TF.ProjectId,android_debug_cable,616E64726F69645F64656275675F6361,rev?*
G04 #@! TF.FileFunction,Copper,L1,Top,Signal*
G04 #@! TF.FilePolarity,Positive*
%FSLAX46Y46*%
G04 Gerber Fmt 4.6, Leading zero omitted, Abs format (unit mm)*
G04 Created by KiCad (PCBNEW no-vcs-found-7409~56~ubuntu16.10.1) date Wed Jan 11 20:07:43 2017*
%MOMM*%
%LPD*%
G01*
G04 APERTURE LIST*
%ADD10C,0.100000*%
%ADD11R,2.000000X2.800000*%
%ADD12R,2.200000X2.800000*%
%ADD13R,0.600000X0.500000*%
%ADD14R,0.500000X0.600000*%
%ADD15R,8.000000X1.900000*%
%ADD16R,7.500000X2.000000*%
%ADD17C,1.397000*%
%ADD18O,1.397000X1.397000*%
%ADD19O,0.850000X0.300000*%
%ADD20O,0.300000X0.850000*%
%ADD21R,1.675000X1.675000*%
%ADD22R,0.660400X0.406400*%
%ADD23R,0.400000X0.600000*%
%ADD24C,0.800000*%
%ADD25C,0.250000*%
G04 APERTURE END LIST*
D10*
D11*
X113900000Y-78700000D03*
D12*
X111100000Y-78700000D03*
X101700000Y-78700000D03*
D11*
X109200000Y-86100000D03*
D13*
X92750000Y-83900000D03*
X91650000Y-83900000D03*
X92750000Y-85100000D03*
X91650000Y-85100000D03*
D14*
X104100000Y-78400000D03*
X104100000Y-77300000D03*
X108700000Y-78450000D03*
X108700000Y-77350000D03*
D13*
X92750000Y-87500000D03*
X91650000Y-87500000D03*
D15*
X83150000Y-86210000D03*
X83150000Y-78590000D03*
D16*
X83400000Y-81100000D03*
X83400000Y-83700000D03*
D17*
X100730000Y-86500000D03*
X103270000Y-86500000D03*
D18*
X98190000Y-86500000D03*
D17*
X105810000Y-86500000D03*
D19*
X91500000Y-78500000D03*
X91500000Y-79000000D03*
X91500000Y-79500000D03*
X91500000Y-80000000D03*
X91500000Y-80500000D03*
X91500000Y-81000000D03*
X91500000Y-81500000D03*
D20*
X92450000Y-82450000D03*
X92950000Y-82450000D03*
X93450000Y-82450000D03*
X93950000Y-82450000D03*
X94450000Y-82450000D03*
X94950000Y-82450000D03*
X95450000Y-82450000D03*
D19*
X96400000Y-81500000D03*
X96400000Y-81000000D03*
X96400000Y-80500000D03*
X96400000Y-80000000D03*
X96400000Y-79500000D03*
X96400000Y-79000000D03*
X96400000Y-78500000D03*
D20*
X95450000Y-77550000D03*
X94950000Y-77550000D03*
X94450000Y-77550000D03*
X93950000Y-77550000D03*
X93450000Y-77550000D03*
X92950000Y-77550000D03*
X92450000Y-77550000D03*
D21*
X94787500Y-80837500D03*
X94787500Y-79162500D03*
X93112500Y-80837500D03*
X93112500Y-79162500D03*
D22*
X107432000Y-78600000D03*
X107432000Y-77279200D03*
X107432000Y-77939600D03*
X105400000Y-77279200D03*
X105400000Y-78600000D03*
D23*
X91750000Y-86400000D03*
X92650000Y-86400000D03*
D24*
X96800000Y-87000000D03*
X105815222Y-85010098D03*
X98915010Y-84735737D03*
X88980777Y-85553957D03*
X87900000Y-83900000D03*
X101500000Y-84600000D03*
X89400000Y-86800000D03*
X87949988Y-86895050D03*
X94700000Y-87900023D03*
X103300000Y-80449989D03*
X87857847Y-82900877D03*
X100600000Y-83600000D03*
X106000000Y-83800000D03*
X98200000Y-78400000D03*
X91300000Y-76900000D03*
D25*
X96800000Y-87000000D02*
X95725010Y-87000000D01*
X95725010Y-87000000D02*
X95700000Y-86974990D01*
X93112500Y-79162500D02*
X95973070Y-82023070D01*
X93112500Y-79162500D02*
X91974990Y-78024990D01*
X91974990Y-78024990D02*
X87965010Y-78024990D01*
X87965010Y-78024990D02*
X87400000Y-78590000D01*
X94787500Y-79162500D02*
X93112500Y-79162500D01*
X94787500Y-80837500D02*
X94787500Y-79162500D01*
X93112500Y-80837500D02*
X94787500Y-80837500D01*
X95700000Y-86974990D02*
X95500000Y-86774990D01*
X95500000Y-86774990D02*
X93825010Y-85100000D01*
X95973070Y-86801611D02*
X95526621Y-86801611D01*
X95526621Y-86801611D02*
X95500000Y-86774990D01*
X95973070Y-86801611D02*
X95973070Y-86951940D01*
X95973070Y-86951940D02*
X95825010Y-87100000D01*
X104650000Y-76700000D02*
X104100000Y-77250000D01*
X104100000Y-77250000D02*
X104100000Y-77300000D01*
X108700000Y-77350000D02*
X109750000Y-77350000D01*
X109750000Y-77350000D02*
X111100000Y-78700000D01*
X109750000Y-78700000D02*
X111100000Y-78700000D01*
X103270000Y-85180000D02*
X109750000Y-78700000D01*
X103270000Y-86500000D02*
X103270000Y-85180000D01*
X95973070Y-86235926D02*
X95973070Y-86801611D01*
X95973070Y-82023070D02*
X95973070Y-86235926D01*
X94787500Y-80837500D02*
X95973070Y-82023070D01*
X95700000Y-86974990D02*
X95825010Y-87100000D01*
X93825010Y-85100000D02*
X92750000Y-85100000D01*
X107432000Y-77939600D02*
X108110400Y-77939600D01*
X108110400Y-77939600D02*
X108700000Y-77350000D01*
X104650000Y-76700000D02*
X108100000Y-76700000D01*
X108100000Y-76700000D02*
X108700000Y-77300000D01*
X108700000Y-77300000D02*
X108700000Y-77350000D01*
X111100000Y-78700000D02*
X111100000Y-78400000D01*
X95825010Y-87100000D02*
X93700000Y-87100000D01*
X93700000Y-87100000D02*
X93300000Y-87500000D01*
X93300000Y-87500000D02*
X92750000Y-87500000D01*
X83150000Y-78590000D02*
X87400000Y-78590000D01*
X91500000Y-79000000D02*
X92950000Y-79000000D01*
X92950000Y-79000000D02*
X93112500Y-79162500D01*
X87400000Y-78590000D02*
X87810000Y-79000000D01*
X90825000Y-79000000D02*
X91500000Y-79000000D01*
X87810000Y-79000000D02*
X90825000Y-79000000D01*
X92750000Y-84600000D02*
X92750000Y-85100000D01*
X92750000Y-83900000D02*
X92750000Y-84600000D01*
X110450000Y-78050000D02*
X111100000Y-78700000D01*
X105810000Y-85015320D02*
X105815222Y-85010098D01*
X105810000Y-86500000D02*
X105810000Y-85015320D01*
X99050747Y-84600000D02*
X98915010Y-84735737D01*
X101500000Y-84600000D02*
X99050747Y-84600000D01*
X90634734Y-83900000D02*
X89380776Y-85153958D01*
X91650000Y-83900000D02*
X90634734Y-83900000D01*
X89380776Y-85153958D02*
X88980777Y-85553957D01*
X90954177Y-81000000D02*
X90924748Y-81000000D01*
X90924748Y-81000000D02*
X88024748Y-83900000D01*
X88024748Y-83900000D02*
X87900000Y-83900000D01*
X90929187Y-81024990D02*
X91475009Y-81024990D01*
X91475009Y-81024990D02*
X91500000Y-81000000D01*
X91500000Y-81000000D02*
X90954177Y-81000000D01*
X105810000Y-86500000D02*
X107935001Y-84374999D01*
X107935001Y-84374999D02*
X109875001Y-84374999D01*
X109875001Y-84374999D02*
X113900000Y-80350000D01*
X113900000Y-80350000D02*
X113900000Y-78700000D01*
X87949988Y-86895050D02*
X87264938Y-86210000D01*
X87264938Y-86210000D02*
X83150000Y-86210000D01*
X87949988Y-86895050D02*
X87949988Y-87460735D01*
X87949988Y-87460735D02*
X88489253Y-88000000D01*
X88489253Y-88000000D02*
X91100000Y-88000000D01*
X106600000Y-77500000D02*
X106820800Y-77279200D01*
X106820800Y-77279200D02*
X107432000Y-77279200D01*
X106600000Y-78348200D02*
X106600000Y-77500000D01*
X107432000Y-78600000D02*
X106851800Y-78600000D01*
X106851800Y-78600000D02*
X106600000Y-78348200D01*
X91750000Y-86400000D02*
X91750000Y-87400000D01*
X91750000Y-87400000D02*
X91650000Y-87500000D01*
X107432000Y-78600000D02*
X107432000Y-79781002D01*
X107432000Y-79781002D02*
X101736503Y-85476499D01*
X101736503Y-85476499D02*
X100023501Y-85476499D01*
X100023501Y-85476499D02*
X99400000Y-86100000D01*
X99400000Y-86100000D02*
X99400000Y-87500000D01*
X99400000Y-87500000D02*
X98999977Y-87900023D01*
X98999977Y-87900023D02*
X95899977Y-87900023D01*
X95899977Y-87900023D02*
X94700000Y-87900023D01*
X107432000Y-78600000D02*
X108550000Y-78600000D01*
X108550000Y-78600000D02*
X108700000Y-78450000D01*
X86200000Y-86210000D02*
X83150000Y-86210000D01*
X87400000Y-85010000D02*
X86200000Y-86210000D01*
X91700000Y-82100000D02*
X90773004Y-82100000D01*
X87863004Y-85010000D02*
X87400000Y-85010000D01*
X90773004Y-82100000D02*
X87863004Y-85010000D01*
X91600000Y-87500000D02*
X91650000Y-87500000D01*
X91100000Y-88000000D02*
X91600000Y-87500000D01*
X91650000Y-85100000D02*
X91100000Y-85100000D01*
X91100000Y-85100000D02*
X89400000Y-86800000D01*
X91700000Y-82100000D02*
X91500000Y-81900000D01*
X92050000Y-82450000D02*
X91700000Y-82100000D01*
X92450000Y-82450000D02*
X92050000Y-82450000D01*
X91500000Y-81900000D02*
X91500000Y-81500000D01*
X103699999Y-80049990D02*
X103300000Y-80449989D01*
X104100000Y-79649989D02*
X103699999Y-80049990D01*
X104100000Y-78400000D02*
X104100000Y-79649989D01*
X105400000Y-78600000D02*
X104300000Y-78600000D01*
X104300000Y-78600000D02*
X104100000Y-78400000D01*
X88000000Y-82769522D02*
X87868645Y-82900877D01*
X87868645Y-82900877D02*
X87857847Y-82900877D01*
X91500000Y-80500000D02*
X90269522Y-80500000D01*
X88285680Y-82483842D02*
X87885681Y-82883841D01*
X90269522Y-80500000D02*
X88285680Y-82483842D01*
X83400000Y-81100000D02*
X86150000Y-81100000D01*
X86150000Y-81100000D02*
X87750000Y-79500000D01*
X90825000Y-79500000D02*
X91500000Y-79500000D01*
X87750000Y-79500000D02*
X90825000Y-79500000D01*
X90825000Y-80000000D02*
X91500000Y-80000000D01*
X89710672Y-80000000D02*
X90825000Y-80000000D01*
X83400000Y-83700000D02*
X86010672Y-83700000D01*
X86010672Y-83700000D02*
X89710672Y-80000000D01*
X101300000Y-81500000D02*
X101300000Y-82900000D01*
X101300000Y-82900000D02*
X100600000Y-83600000D01*
X94525000Y-76800000D02*
X98450000Y-76800000D01*
X98450000Y-76800000D02*
X100350000Y-78700000D01*
X100350000Y-78700000D02*
X101700000Y-78700000D01*
X94450000Y-77550000D02*
X94450000Y-76875000D01*
X94450000Y-76875000D02*
X94525000Y-76800000D01*
X101300000Y-81500000D02*
X101700000Y-81100000D01*
X101700000Y-81100000D02*
X101700000Y-78700000D01*
X109200000Y-86100000D02*
X107950000Y-86100000D01*
X107950000Y-86100000D02*
X106526499Y-87523501D01*
X105123501Y-87523501D02*
X104600000Y-87000000D01*
X106526499Y-87523501D02*
X105123501Y-87523501D01*
X104600000Y-87000000D02*
X104600000Y-85200000D01*
X104600000Y-85200000D02*
X106000000Y-83800000D01*
X98190000Y-79343235D02*
X98200000Y-79333235D01*
X98200000Y-79333235D02*
X98200000Y-78400000D01*
X93875000Y-76800000D02*
X91400000Y-76800000D01*
X91400000Y-76800000D02*
X91300000Y-76900000D01*
X93950000Y-77550000D02*
X93950000Y-76875000D01*
X93950000Y-76875000D02*
X93875000Y-76800000D01*
X98190000Y-86500000D02*
X98190000Y-79343235D01*
X92950000Y-82450000D02*
X92950000Y-83125000D01*
X90725002Y-86974998D02*
X90725002Y-86189996D01*
X92950000Y-83125000D02*
X92874990Y-83200010D01*
X90725002Y-86189996D02*
X91214998Y-85700000D01*
X92874990Y-83200010D02*
X90309405Y-83200010D01*
X91214998Y-85700000D02*
X92500000Y-85700000D01*
X90309405Y-83200010D02*
X88174999Y-85334416D01*
X88174999Y-85334416D02*
X88174999Y-85848001D01*
X88174999Y-85848001D02*
X88674998Y-86348000D01*
X88674998Y-86348000D02*
X88674998Y-87148002D01*
X88674998Y-87148002D02*
X89051998Y-87525002D01*
X89051998Y-87525002D02*
X90174998Y-87525002D01*
X90174998Y-87525002D02*
X90725002Y-86974998D01*
X92650000Y-85850000D02*
X92650000Y-86400000D01*
X92500000Y-85700000D02*
X92650000Y-85850000D01*
X92950000Y-82450000D02*
X92950000Y-82896765D01*
M02*
