G04 #@! TF.GenerationSoftware,KiCad,Pcbnew,no-vcs-found-0e71686~58~ubuntu17.04.1*
G04 #@! TF.CreationDate,2017-06-21T14:12:46-04:00*
G04 #@! TF.ProjectId,android_debug_cable,616E64726F69645F64656275675F6361,rev?*
G04 #@! TF.FileFunction,Soldermask,Top*
G04 #@! TF.FilePolarity,Negative*
%FSLAX46Y46*%
G04 Gerber Fmt 4.6, Leading zero omitted, Abs format (unit mm)*
G04 Created by KiCad (PCBNEW no-vcs-found-0e71686~58~ubuntu17.04.1) date Wed Jun 21 14:12:46 2017*
%MOMM*%
%LPD*%
G01*
G04 APERTURE LIST*
%ADD10C,0.100000*%
%ADD11R,1.750000X0.800000*%
%ADD12C,1.750000*%
%ADD13C,2.150000*%
%ADD14R,1.900000X4.700000*%
%ADD15R,1.700000X1.900000*%
%ADD16R,0.800000X1.400000*%
%ADD17R,1.450000X1.900000*%
%ADD18R,1.600000X1.900000*%
%ADD19R,1.500000X1.900000*%
%ADD20R,1.000000X0.900000*%
%ADD21C,1.797000*%
%ADD22O,1.797000X1.797000*%
%ADD23R,0.800000X1.000000*%
%ADD24R,1.460000X1.050000*%
%ADD25R,1.700000X1.700000*%
%ADD26R,0.700000X1.250000*%
%ADD27R,1.250000X0.700000*%
G04 APERTURE END LIST*
D10*
D11*
X136600000Y-87340000D03*
X136600000Y-87990000D03*
X136600000Y-88640000D03*
X136600000Y-89290000D03*
X136600000Y-89940000D03*
D12*
X136270000Y-86140000D03*
X136270000Y-91140000D03*
D13*
X133900000Y-85140000D03*
X133900000Y-92140000D03*
D14*
X150520000Y-88670000D03*
D15*
X151920000Y-87270000D03*
D16*
X157720000Y-85870000D03*
X157720000Y-91470000D03*
D17*
X155220000Y-86520000D03*
D18*
X156920000Y-86120000D03*
D17*
X155220000Y-90820000D03*
D19*
X153620000Y-87020000D03*
D15*
X151920000Y-90070000D03*
D18*
X156920000Y-91220000D03*
D19*
X153620000Y-90320000D03*
D16*
X157720000Y-85870000D03*
D18*
X156920000Y-86120000D03*
D17*
X155220000Y-86520000D03*
D19*
X153620000Y-87020000D03*
D15*
X151920000Y-87270000D03*
D14*
X150520000Y-88670000D03*
D15*
X151920000Y-90070000D03*
D19*
X153620000Y-90320000D03*
D17*
X155220000Y-90820000D03*
D16*
X157720000Y-91470000D03*
D18*
X156920000Y-91220000D03*
D20*
X139380000Y-85520000D03*
X138280000Y-85520000D03*
X138290000Y-90560000D03*
X139390000Y-90560000D03*
X139390000Y-91690000D03*
X138290000Y-91690000D03*
X138290000Y-92940000D03*
X139390000Y-92940000D03*
D21*
X152640000Y-84870000D03*
X150100000Y-84870000D03*
D22*
X155180000Y-84870000D03*
D21*
X147560000Y-84870000D03*
D23*
X148440000Y-89940000D03*
X147540000Y-89940000D03*
D24*
X143180000Y-92920000D03*
X143180000Y-91020000D03*
X145380000Y-91020000D03*
X145380000Y-91970000D03*
X145380000Y-92920000D03*
D25*
X143750000Y-86710000D03*
X143750000Y-88010000D03*
X145050000Y-86710000D03*
X145050000Y-88010000D03*
D26*
X143150000Y-85410000D03*
X143650000Y-85410000D03*
X144150000Y-85410000D03*
X144650000Y-85410000D03*
X145150000Y-85410000D03*
X145650000Y-85410000D03*
D27*
X146350000Y-86110000D03*
X146350000Y-86610000D03*
X146350000Y-87110000D03*
X146350000Y-87610000D03*
X146350000Y-88110000D03*
X146350000Y-88610000D03*
D26*
X145650000Y-89310000D03*
X145150000Y-89310000D03*
X144650000Y-89310000D03*
X144150000Y-89310000D03*
X143650000Y-89310000D03*
X143150000Y-89310000D03*
D27*
X142450000Y-88610000D03*
X142450000Y-88110000D03*
X142450000Y-87610000D03*
X142450000Y-87110000D03*
X142450000Y-86610000D03*
X142450000Y-86110000D03*
M02*
