G04 #@! TF.GenerationSoftware,KiCad,Pcbnew,no-vcs-found-c93ab4d~58~ubuntu17.04.1*
G04 #@! TF.CreationDate,2017-07-20T17:59:11+02:00*
G04 #@! TF.ProjectId,android_debug_cable,616E64726F69645F64656275675F6361,rev?*
G04 #@! TF.SameCoordinates,Original
G04 #@! TF.FileFunction,Legend,Top*
G04 #@! TF.FilePolarity,Positive*
%FSLAX46Y46*%
G04 Gerber Fmt 4.6, Leading zero omitted, Abs format (unit mm)*
G04 Created by KiCad (PCBNEW no-vcs-found-c93ab4d~58~ubuntu17.04.1) date Thu Jul 20 17:59:11 2017*
%MOMM*%
%LPD*%
G01*
G04 APERTURE LIST*
%ADD10C,0.150000*%
%ADD11C,0.120000*%
G04 APERTURE END LIST*
D10*
X156893333Y-83763333D02*
X156193333Y-83996666D01*
X156893333Y-84230000D01*
X156893333Y-84396666D02*
X156893333Y-84830000D01*
X156626666Y-84596666D01*
X156626666Y-84696666D01*
X156593333Y-84763333D01*
X156560000Y-84796666D01*
X156493333Y-84830000D01*
X156326666Y-84830000D01*
X156260000Y-84796666D01*
X156226666Y-84763333D01*
X156193333Y-84696666D01*
X156193333Y-84496666D01*
X156226666Y-84430000D01*
X156260000Y-84396666D01*
X156260000Y-85130000D02*
X156226666Y-85163333D01*
X156193333Y-85130000D01*
X156226666Y-85096666D01*
X156260000Y-85130000D01*
X156193333Y-85130000D01*
X156893333Y-85396666D02*
X156893333Y-85830000D01*
X156626666Y-85596666D01*
X156626666Y-85696666D01*
X156593333Y-85763333D01*
X156560000Y-85796666D01*
X156493333Y-85830000D01*
X156326666Y-85830000D01*
X156260000Y-85796666D01*
X156226666Y-85763333D01*
X156193333Y-85696666D01*
X156193333Y-85496666D01*
X156226666Y-85430000D01*
X156260000Y-85396666D01*
X149153333Y-84356666D02*
X149153333Y-84756666D01*
X148453333Y-84556666D02*
X149153333Y-84556666D01*
X149153333Y-84923333D02*
X148453333Y-85390000D01*
X149153333Y-85390000D02*
X148453333Y-84923333D01*
X154200000Y-84346666D02*
X154233333Y-84280000D01*
X154233333Y-84180000D01*
X154200000Y-84080000D01*
X154133333Y-84013333D01*
X154066666Y-83980000D01*
X153933333Y-83946666D01*
X153833333Y-83946666D01*
X153700000Y-83980000D01*
X153633333Y-84013333D01*
X153566666Y-84080000D01*
X153533333Y-84180000D01*
X153533333Y-84246666D01*
X153566666Y-84346666D01*
X153600000Y-84380000D01*
X153833333Y-84380000D01*
X153833333Y-84246666D01*
X153533333Y-84680000D02*
X154233333Y-84680000D01*
X153533333Y-85080000D01*
X154233333Y-85080000D01*
X153533333Y-85413333D02*
X154233333Y-85413333D01*
X154233333Y-85580000D01*
X154200000Y-85680000D01*
X154133333Y-85746666D01*
X154066666Y-85780000D01*
X153933333Y-85813333D01*
X153833333Y-85813333D01*
X153700000Y-85780000D01*
X153633333Y-85746666D01*
X153566666Y-85680000D01*
X153533333Y-85580000D01*
X153533333Y-85413333D01*
X151003333Y-84753333D02*
X151336666Y-84520000D01*
X151003333Y-84353333D02*
X151703333Y-84353333D01*
X151703333Y-84620000D01*
X151670000Y-84686666D01*
X151636666Y-84720000D01*
X151570000Y-84753333D01*
X151470000Y-84753333D01*
X151403333Y-84720000D01*
X151370000Y-84686666D01*
X151336666Y-84620000D01*
X151336666Y-84353333D01*
X151703333Y-84986666D02*
X151003333Y-85453333D01*
X151703333Y-85453333D02*
X151003333Y-84986666D01*
D11*
X139090000Y-90090000D02*
X138590000Y-90090000D01*
X138590000Y-91030000D02*
X139090000Y-91030000D01*
X138590000Y-92160000D02*
X139090000Y-92160000D01*
X139090000Y-91220000D02*
X138590000Y-91220000D01*
X139090000Y-92470000D02*
X138590000Y-92470000D01*
X138590000Y-93410000D02*
X139090000Y-93410000D01*
X147740000Y-90470000D02*
X148240000Y-90470000D01*
X148240000Y-89410000D02*
X147740000Y-89410000D01*
X143380000Y-93580000D02*
X145830000Y-93580000D01*
X145180000Y-90360000D02*
X143380000Y-90360000D01*
D10*
X146550000Y-85210000D02*
X146025000Y-85210000D01*
X146550000Y-89510000D02*
X146025000Y-89510000D01*
X142250000Y-89510000D02*
X142775000Y-89510000D01*
X142250000Y-85210000D02*
X142775000Y-85210000D01*
X146550000Y-89510000D02*
X146550000Y-88985000D01*
X142250000Y-89510000D02*
X142250000Y-88985000D01*
X146550000Y-85210000D02*
X146550000Y-85735000D01*
D11*
X139080000Y-85080000D02*
X138580000Y-85080000D01*
X138580000Y-86020000D02*
X139080000Y-86020000D01*
D10*
X152411904Y-92512380D02*
X152411904Y-91512380D01*
X152792857Y-91512380D01*
X152888095Y-91560000D01*
X152935714Y-91607619D01*
X152983333Y-91702857D01*
X152983333Y-91845714D01*
X152935714Y-91940952D01*
X152888095Y-91988571D01*
X152792857Y-92036190D01*
X152411904Y-92036190D01*
X153364285Y-91607619D02*
X153411904Y-91560000D01*
X153507142Y-91512380D01*
X153745238Y-91512380D01*
X153840476Y-91560000D01*
X153888095Y-91607619D01*
X153935714Y-91702857D01*
X153935714Y-91798095D01*
X153888095Y-91940952D01*
X153316666Y-92512380D01*
X153935714Y-92512380D01*
X133971904Y-89152380D02*
X133971904Y-88152380D01*
X134352857Y-88152380D01*
X134448095Y-88200000D01*
X134495714Y-88247619D01*
X134543333Y-88342857D01*
X134543333Y-88485714D01*
X134495714Y-88580952D01*
X134448095Y-88628571D01*
X134352857Y-88676190D01*
X133971904Y-88676190D01*
X135495714Y-89152380D02*
X134924285Y-89152380D01*
X135210000Y-89152380D02*
X135210000Y-88152380D01*
X135114761Y-88295238D01*
X135019523Y-88390476D01*
X134924285Y-88438095D01*
X140603333Y-90907142D02*
X140555714Y-90954761D01*
X140412857Y-91002380D01*
X140317619Y-91002380D01*
X140174761Y-90954761D01*
X140079523Y-90859523D01*
X140031904Y-90764285D01*
X139984285Y-90573809D01*
X139984285Y-90430952D01*
X140031904Y-90240476D01*
X140079523Y-90145238D01*
X140174761Y-90050000D01*
X140317619Y-90002380D01*
X140412857Y-90002380D01*
X140555714Y-90050000D01*
X140603333Y-90097619D01*
X140984285Y-90097619D02*
X141031904Y-90050000D01*
X141127142Y-90002380D01*
X141365238Y-90002380D01*
X141460476Y-90050000D01*
X141508095Y-90097619D01*
X141555714Y-90192857D01*
X141555714Y-90288095D01*
X141508095Y-90430952D01*
X140936666Y-91002380D01*
X141555714Y-91002380D01*
X140603333Y-92107142D02*
X140555714Y-92154761D01*
X140412857Y-92202380D01*
X140317619Y-92202380D01*
X140174761Y-92154761D01*
X140079523Y-92059523D01*
X140031904Y-91964285D01*
X139984285Y-91773809D01*
X139984285Y-91630952D01*
X140031904Y-91440476D01*
X140079523Y-91345238D01*
X140174761Y-91250000D01*
X140317619Y-91202380D01*
X140412857Y-91202380D01*
X140555714Y-91250000D01*
X140603333Y-91297619D01*
X140936666Y-91202380D02*
X141555714Y-91202380D01*
X141222380Y-91583333D01*
X141365238Y-91583333D01*
X141460476Y-91630952D01*
X141508095Y-91678571D01*
X141555714Y-91773809D01*
X141555714Y-92011904D01*
X141508095Y-92107142D01*
X141460476Y-92154761D01*
X141365238Y-92202380D01*
X141079523Y-92202380D01*
X140984285Y-92154761D01*
X140936666Y-92107142D01*
X140573333Y-93347142D02*
X140525714Y-93394761D01*
X140382857Y-93442380D01*
X140287619Y-93442380D01*
X140144761Y-93394761D01*
X140049523Y-93299523D01*
X140001904Y-93204285D01*
X139954285Y-93013809D01*
X139954285Y-92870952D01*
X140001904Y-92680476D01*
X140049523Y-92585238D01*
X140144761Y-92490000D01*
X140287619Y-92442380D01*
X140382857Y-92442380D01*
X140525714Y-92490000D01*
X140573333Y-92537619D01*
X141430476Y-92775714D02*
X141430476Y-93442380D01*
X141192380Y-92394761D02*
X140954285Y-93109047D01*
X141573333Y-93109047D01*
X147983333Y-89252380D02*
X147650000Y-88776190D01*
X147411904Y-89252380D02*
X147411904Y-88252380D01*
X147792857Y-88252380D01*
X147888095Y-88300000D01*
X147935714Y-88347619D01*
X147983333Y-88442857D01*
X147983333Y-88585714D01*
X147935714Y-88680952D01*
X147888095Y-88728571D01*
X147792857Y-88776190D01*
X147411904Y-88776190D01*
X148935714Y-89252380D02*
X148364285Y-89252380D01*
X148650000Y-89252380D02*
X148650000Y-88252380D01*
X148554761Y-88395238D01*
X148459523Y-88490476D01*
X148364285Y-88538095D01*
X146578095Y-91492380D02*
X146578095Y-92301904D01*
X146625714Y-92397142D01*
X146673333Y-92444761D01*
X146768571Y-92492380D01*
X146959047Y-92492380D01*
X147054285Y-92444761D01*
X147101904Y-92397142D01*
X147149523Y-92301904D01*
X147149523Y-91492380D01*
X148149523Y-92492380D02*
X147578095Y-92492380D01*
X147863809Y-92492380D02*
X147863809Y-91492380D01*
X147768571Y-91635238D01*
X147673333Y-91730476D01*
X147578095Y-91778095D01*
X143618095Y-83572380D02*
X143618095Y-84381904D01*
X143665714Y-84477142D01*
X143713333Y-84524761D01*
X143808571Y-84572380D01*
X143999047Y-84572380D01*
X144094285Y-84524761D01*
X144141904Y-84477142D01*
X144189523Y-84381904D01*
X144189523Y-83572380D01*
X144618095Y-83667619D02*
X144665714Y-83620000D01*
X144760952Y-83572380D01*
X144999047Y-83572380D01*
X145094285Y-83620000D01*
X145141904Y-83667619D01*
X145189523Y-83762857D01*
X145189523Y-83858095D01*
X145141904Y-84000952D01*
X144570476Y-84572380D01*
X145189523Y-84572380D01*
X140543333Y-85907142D02*
X140495714Y-85954761D01*
X140352857Y-86002380D01*
X140257619Y-86002380D01*
X140114761Y-85954761D01*
X140019523Y-85859523D01*
X139971904Y-85764285D01*
X139924285Y-85573809D01*
X139924285Y-85430952D01*
X139971904Y-85240476D01*
X140019523Y-85145238D01*
X140114761Y-85050000D01*
X140257619Y-85002380D01*
X140352857Y-85002380D01*
X140495714Y-85050000D01*
X140543333Y-85097619D01*
X141495714Y-86002380D02*
X140924285Y-86002380D01*
X141210000Y-86002380D02*
X141210000Y-85002380D01*
X141114761Y-85145238D01*
X141019523Y-85240476D01*
X140924285Y-85288095D01*
M02*
