G04 #@! TF.FileFunction,Copper,L2,Bot,Signal*
%FSLAX46Y46*%
G04 Gerber Fmt 4.6, Leading zero omitted, Abs format (unit mm)*
G04 Created by KiCad (PCBNEW 4.1.0-alpha+201608281547+7098~46~ubuntu16.04.1-product) date Tue Aug 30 23:09:05 2016*
%MOMM*%
%LPD*%
G01*
G04 APERTURE LIST*
%ADD10C,0.100000*%
%ADD11C,1.397000*%
%ADD12O,1.397000X1.397000*%
%ADD13C,1.800000*%
%ADD14C,0.800000*%
%ADD15C,0.250000*%
G04 APERTURE END LIST*
D10*
D11*
X100730000Y-86500000D03*
X103270000Y-86500000D03*
D12*
X98190000Y-86500000D03*
D11*
X105810000Y-86500000D03*
D13*
X110000000Y-82400000D03*
X103000000Y-82400000D03*
D14*
X96800000Y-87000000D03*
X105815222Y-85010098D03*
X98915010Y-84735737D03*
X88980777Y-85553957D03*
X87900000Y-83900000D03*
X101500000Y-84600000D03*
X89400000Y-86800000D03*
X87949988Y-86895050D03*
X94700000Y-87900023D03*
X103300000Y-80449989D03*
X87857847Y-82900877D03*
X100600000Y-83600000D03*
X106000000Y-83800000D03*
X98200000Y-78400000D03*
X91300000Y-76900000D03*
D15*
X102168379Y-87601621D02*
X97401621Y-87601621D01*
X97401621Y-87601621D02*
X96800000Y-87000000D01*
X102170001Y-87599999D02*
X102195011Y-87574989D01*
X103270000Y-86500000D02*
X102168379Y-87601621D01*
X103270000Y-86500000D02*
X102195011Y-87574989D01*
X101500000Y-84600000D02*
X105405124Y-84600000D01*
X105405124Y-84600000D02*
X105415223Y-84610099D01*
X105415223Y-84610099D02*
X105815222Y-85010098D01*
X88980777Y-85553957D02*
X89798997Y-84735737D01*
X98349325Y-84735737D02*
X98915010Y-84735737D01*
X89798997Y-84735737D02*
X98349325Y-84735737D01*
X87900000Y-83900000D02*
X87900000Y-84473180D01*
X87900000Y-84473180D02*
X88980777Y-85553957D01*
X87949988Y-86895050D02*
X89304950Y-86895050D01*
X89304950Y-86895050D02*
X89400000Y-86800000D01*
X88045038Y-86800000D02*
X87949988Y-86895050D01*
X94700000Y-87900023D02*
X88954961Y-87900023D01*
X88954961Y-87900023D02*
X88349987Y-87295049D01*
X88349987Y-87295049D02*
X87949988Y-86895050D01*
X90319533Y-80449989D02*
X102734315Y-80449989D01*
X102734315Y-80449989D02*
X103300000Y-80449989D01*
X88100000Y-82669522D02*
X90319533Y-80449989D01*
X87868645Y-82900877D02*
X87857847Y-82900877D01*
X88100000Y-82669522D02*
X87868645Y-82900877D01*
X88100000Y-82669522D02*
X87885681Y-82883841D01*
X100600000Y-83600000D02*
X100600000Y-86370000D01*
X100600000Y-86370000D02*
X100730000Y-86500000D01*
X99700000Y-81400000D02*
X99700000Y-84990000D01*
X99700000Y-84990000D02*
X98190000Y-86500000D01*
X99925001Y-81174999D02*
X99700000Y-81400000D01*
X106000000Y-83800000D02*
X106000000Y-83234315D01*
X106000000Y-83234315D02*
X103940684Y-81174999D01*
X103940684Y-81174999D02*
X99925001Y-81174999D01*
X98200000Y-77700000D02*
X98200000Y-78400000D01*
X97300000Y-76800000D02*
X98200000Y-77700000D01*
X91400000Y-76800000D02*
X97300000Y-76800000D01*
X91300000Y-76900000D02*
X91400000Y-76800000D01*
M02*
