G04 #@! TF.FileFunction,Copper,L2,Bot,Signal*
%FSLAX46Y46*%
G04 Gerber Fmt 4.6, Leading zero omitted, Abs format (unit mm)*
G04 Created by KiCad (PCBNEW 4.1.0-alpha+201608131231+7028~46~ubuntu16.04.1-product) date Sun Aug 14 13:26:06 2016*
%MOMM*%
%LPD*%
G01*
G04 APERTURE LIST*
%ADD10C,0.100000*%
%ADD11C,1.397000*%
%ADD12O,1.397000X1.397000*%
%ADD13C,1.800000*%
%ADD14C,0.800000*%
%ADD15C,0.250000*%
%ADD16C,0.254000*%
G04 APERTURE END LIST*
D10*
D11*
X100730000Y-86500000D03*
X103270000Y-86500000D03*
D12*
X98190000Y-86500000D03*
D11*
X105810000Y-86500000D03*
D13*
X110000000Y-82400000D03*
X103000000Y-82400000D03*
D14*
X95700000Y-86974990D03*
X88980777Y-85553957D03*
X87900000Y-83900000D03*
X104988935Y-84818556D03*
X99405152Y-85298011D03*
X101500000Y-84600000D03*
X89400000Y-86800000D03*
X87949988Y-86895050D03*
X94700000Y-87900023D03*
X87857847Y-82900877D03*
X103300000Y-80700000D03*
X101000000Y-81500000D03*
X99200000Y-77700000D03*
X91100000Y-77000000D03*
D15*
X94725010Y-86000000D02*
X95700000Y-86974990D01*
X96099999Y-87374989D02*
X95700000Y-86974990D01*
X102195011Y-87574989D02*
X96299999Y-87574989D01*
X96299999Y-87574989D02*
X96099999Y-87374989D01*
X103270000Y-86500000D02*
X102195011Y-87574989D01*
X95700000Y-86600000D02*
X95700000Y-86974990D01*
X87900000Y-83900000D02*
X87900000Y-84473180D01*
X87900000Y-84473180D02*
X88980777Y-85553957D01*
X99405152Y-85298011D02*
X89236723Y-85298011D01*
X89236723Y-85298011D02*
X88980777Y-85553957D01*
X104770379Y-84600000D02*
X104988935Y-84818556D01*
X101500000Y-84600000D02*
X104770379Y-84600000D01*
X89400000Y-86800000D02*
X88045038Y-86800000D01*
X88045038Y-86800000D02*
X87949988Y-86895050D01*
X94700000Y-87900023D02*
X88954961Y-87900023D01*
X88954961Y-87900023D02*
X88349987Y-87295049D01*
X88349987Y-87295049D02*
X87949988Y-86895050D01*
X87868645Y-82900877D02*
X87857847Y-82900877D01*
X88100000Y-82669522D02*
X87868645Y-82900877D01*
X88285680Y-82483842D02*
X88100000Y-82669522D01*
X88100000Y-82669522D02*
X87885681Y-82883841D01*
X90069522Y-80700000D02*
X88285680Y-82483842D01*
X103300000Y-80700000D02*
X90069522Y-80700000D01*
X100730000Y-86500000D02*
X100730000Y-81770000D01*
X100730000Y-81770000D02*
X101000000Y-81500000D01*
X95100000Y-76700000D02*
X98200000Y-76700000D01*
X98200000Y-76700000D02*
X99200000Y-77700000D01*
X91300000Y-76700000D02*
X91300000Y-76800000D01*
X91300000Y-76800000D02*
X91100000Y-77000000D01*
X95100000Y-76700000D02*
X91300000Y-76700000D01*
D16*
G36*
X102515417Y-85565812D02*
X103270000Y-86320395D01*
X104024583Y-85565812D01*
X103970727Y-85360000D01*
X104092783Y-85360000D01*
X104110993Y-85404071D01*
X104401889Y-85695475D01*
X104656309Y-85801119D01*
X104546686Y-86065118D01*
X104439800Y-85807071D01*
X104204188Y-85745417D01*
X103449605Y-86500000D01*
X104204188Y-87254583D01*
X104439800Y-87192929D01*
X104538083Y-86913688D01*
X104678854Y-87254380D01*
X105053647Y-87629827D01*
X105198560Y-87690000D01*
X103914162Y-87690000D01*
X103962929Y-87669800D01*
X104024583Y-87434188D01*
X103270000Y-86679605D01*
X102515417Y-87434188D01*
X102577071Y-87669800D01*
X102634463Y-87690000D01*
X101341942Y-87690000D01*
X101484380Y-87631146D01*
X101859827Y-87256353D01*
X101993314Y-86934882D01*
X102100200Y-87192929D01*
X102335812Y-87254583D01*
X103090395Y-86500000D01*
X102335812Y-85745417D01*
X102100200Y-85807071D01*
X102001917Y-86086312D01*
X101861146Y-85745620D01*
X101737486Y-85621744D01*
X102085515Y-85477942D01*
X102203663Y-85360000D01*
X102569273Y-85360000D01*
X102515417Y-85565812D01*
X102515417Y-85565812D01*
G37*
X102515417Y-85565812D02*
X103270000Y-86320395D01*
X104024583Y-85565812D01*
X103970727Y-85360000D01*
X104092783Y-85360000D01*
X104110993Y-85404071D01*
X104401889Y-85695475D01*
X104656309Y-85801119D01*
X104546686Y-86065118D01*
X104439800Y-85807071D01*
X104204188Y-85745417D01*
X103449605Y-86500000D01*
X104204188Y-87254583D01*
X104439800Y-87192929D01*
X104538083Y-86913688D01*
X104678854Y-87254380D01*
X105053647Y-87629827D01*
X105198560Y-87690000D01*
X103914162Y-87690000D01*
X103962929Y-87669800D01*
X104024583Y-87434188D01*
X103270000Y-86679605D01*
X102515417Y-87434188D01*
X102577071Y-87669800D01*
X102634463Y-87690000D01*
X101341942Y-87690000D01*
X101484380Y-87631146D01*
X101859827Y-87256353D01*
X101993314Y-86934882D01*
X102100200Y-87192929D01*
X102335812Y-87254583D01*
X103090395Y-86500000D01*
X102335812Y-85745417D01*
X102100200Y-85807071D01*
X102001917Y-86086312D01*
X101861146Y-85745620D01*
X101737486Y-85621744D01*
X102085515Y-85477942D01*
X102203663Y-85360000D01*
X102569273Y-85360000D01*
X102515417Y-85565812D01*
G36*
X96830375Y-86500000D02*
X96931882Y-87010308D01*
X97220948Y-87442927D01*
X97590720Y-87690000D01*
X95733092Y-87690000D01*
X95577942Y-87314508D01*
X95287046Y-87023104D01*
X94906777Y-86865203D01*
X94495029Y-86864844D01*
X94114485Y-87022081D01*
X93996337Y-87140023D01*
X90379492Y-87140023D01*
X90434820Y-87006777D01*
X90435179Y-86595029D01*
X90277942Y-86214485D01*
X90121741Y-86058011D01*
X96918292Y-86058011D01*
X96830375Y-86500000D01*
X96830375Y-86500000D01*
G37*
X96830375Y-86500000D02*
X96931882Y-87010308D01*
X97220948Y-87442927D01*
X97590720Y-87690000D01*
X95733092Y-87690000D01*
X95577942Y-87314508D01*
X95287046Y-87023104D01*
X94906777Y-86865203D01*
X94495029Y-86864844D01*
X94114485Y-87022081D01*
X93996337Y-87140023D01*
X90379492Y-87140023D01*
X90434820Y-87006777D01*
X90435179Y-86595029D01*
X90277942Y-86214485D01*
X90121741Y-86058011D01*
X96918292Y-86058011D01*
X96830375Y-86500000D01*
M02*
