G04 #@! TF.FileFunction,Legend,Bot*
%FSLAX46Y46*%
G04 Gerber Fmt 4.6, Leading zero omitted, Abs format (unit mm)*
G04 Created by KiCad (PCBNEW 4.1.0-alpha+201608131231+7028~46~ubuntu16.04.1-product) date Sun Aug 14 13:26:06 2016*
%MOMM*%
%LPD*%
G01*
G04 APERTURE LIST*
%ADD10C,0.100000*%
%ADD11C,0.150000*%
%ADD12C,0.200000*%
%ADD13C,0.010000*%
G04 APERTURE END LIST*
D10*
D11*
X106866666Y-87516666D02*
X106633333Y-88216666D01*
X106400000Y-87516666D01*
X106233333Y-87516666D02*
X105800000Y-87516666D01*
X106033333Y-87783333D01*
X105933333Y-87783333D01*
X105866666Y-87816666D01*
X105833333Y-87850000D01*
X105800000Y-87916666D01*
X105800000Y-88083333D01*
X105833333Y-88150000D01*
X105866666Y-88183333D01*
X105933333Y-88216666D01*
X106133333Y-88216666D01*
X106200000Y-88183333D01*
X106233333Y-88150000D01*
X105500000Y-88150000D02*
X105466666Y-88183333D01*
X105500000Y-88216666D01*
X105533333Y-88183333D01*
X105500000Y-88150000D01*
X105500000Y-88216666D01*
X105233333Y-87516666D02*
X104800000Y-87516666D01*
X105033333Y-87783333D01*
X104933333Y-87783333D01*
X104866666Y-87816666D01*
X104833333Y-87850000D01*
X104800000Y-87916666D01*
X104800000Y-88083333D01*
X104833333Y-88150000D01*
X104866666Y-88183333D01*
X104933333Y-88216666D01*
X105133333Y-88216666D01*
X105200000Y-88183333D01*
X105233333Y-88150000D01*
X103833333Y-87550000D02*
X103900000Y-87516666D01*
X104000000Y-87516666D01*
X104100000Y-87550000D01*
X104166666Y-87616666D01*
X104200000Y-87683333D01*
X104233333Y-87816666D01*
X104233333Y-87916666D01*
X104200000Y-88050000D01*
X104166666Y-88116666D01*
X104100000Y-88183333D01*
X104000000Y-88216666D01*
X103933333Y-88216666D01*
X103833333Y-88183333D01*
X103800000Y-88150000D01*
X103800000Y-87916666D01*
X103933333Y-87916666D01*
X103500000Y-88216666D02*
X103500000Y-87516666D01*
X103100000Y-88216666D01*
X103100000Y-87516666D01*
X102766666Y-88216666D02*
X102766666Y-87516666D01*
X102600000Y-87516666D01*
X102500000Y-87550000D01*
X102433333Y-87616666D01*
X102400000Y-87683333D01*
X102366666Y-87816666D01*
X102366666Y-87916666D01*
X102400000Y-88050000D01*
X102433333Y-88116666D01*
X102500000Y-88183333D01*
X102600000Y-88216666D01*
X102766666Y-88216666D01*
X101233333Y-87516666D02*
X100833333Y-87516666D01*
X101033333Y-88216666D02*
X101033333Y-87516666D01*
X100666666Y-87516666D02*
X100200000Y-88216666D01*
X100200000Y-87516666D02*
X100666666Y-88216666D01*
X98216666Y-88216666D02*
X98450000Y-87883333D01*
X98616666Y-88216666D02*
X98616666Y-87516666D01*
X98350000Y-87516666D01*
X98283333Y-87550000D01*
X98250000Y-87583333D01*
X98216666Y-87650000D01*
X98216666Y-87750000D01*
X98250000Y-87816666D01*
X98283333Y-87850000D01*
X98350000Y-87883333D01*
X98616666Y-87883333D01*
X97983333Y-87516666D02*
X97516666Y-88216666D01*
X97516666Y-87516666D02*
X97983333Y-88216666D01*
X111369166Y-87616666D02*
X111769166Y-87616666D01*
X111569166Y-87616666D02*
X111569166Y-86916666D01*
X111635833Y-87016666D01*
X111702500Y-87083333D01*
X111769166Y-87116666D01*
X111069166Y-87550000D02*
X111035833Y-87583333D01*
X111069166Y-87616666D01*
X111102500Y-87583333D01*
X111069166Y-87550000D01*
X111069166Y-87616666D01*
X110635833Y-87216666D02*
X110702500Y-87183333D01*
X110735833Y-87150000D01*
X110769166Y-87083333D01*
X110769166Y-87050000D01*
X110735833Y-86983333D01*
X110702500Y-86950000D01*
X110635833Y-86916666D01*
X110502500Y-86916666D01*
X110435833Y-86950000D01*
X110402500Y-86983333D01*
X110369166Y-87050000D01*
X110369166Y-87083333D01*
X110402500Y-87150000D01*
X110435833Y-87183333D01*
X110502500Y-87216666D01*
X110635833Y-87216666D01*
X110702500Y-87250000D01*
X110735833Y-87283333D01*
X110769166Y-87350000D01*
X110769166Y-87483333D01*
X110735833Y-87550000D01*
X110702500Y-87583333D01*
X110635833Y-87616666D01*
X110502500Y-87616666D01*
X110435833Y-87583333D01*
X110402500Y-87550000D01*
X110369166Y-87483333D01*
X110369166Y-87350000D01*
X110402500Y-87283333D01*
X110435833Y-87250000D01*
X110502500Y-87216666D01*
X110169166Y-86916666D02*
X109935833Y-87616666D01*
X109702500Y-86916666D01*
D12*
X114279523Y-77766666D02*
X113803333Y-77766666D01*
X114374761Y-78052380D02*
X114041428Y-77052380D01*
X113708095Y-78052380D01*
X113374761Y-77385714D02*
X113374761Y-78052380D01*
X113374761Y-77480952D02*
X113327142Y-77433333D01*
X113231904Y-77385714D01*
X113089047Y-77385714D01*
X112993809Y-77433333D01*
X112946190Y-77528571D01*
X112946190Y-78052380D01*
X112041428Y-78052380D02*
X112041428Y-77052380D01*
X112041428Y-78004761D02*
X112136666Y-78052380D01*
X112327142Y-78052380D01*
X112422380Y-78004761D01*
X112470000Y-77957142D01*
X112517619Y-77861904D01*
X112517619Y-77576190D01*
X112470000Y-77480952D01*
X112422380Y-77433333D01*
X112327142Y-77385714D01*
X112136666Y-77385714D01*
X112041428Y-77433333D01*
X111565238Y-78052380D02*
X111565238Y-77385714D01*
X111565238Y-77576190D02*
X111517619Y-77480952D01*
X111470000Y-77433333D01*
X111374761Y-77385714D01*
X111279523Y-77385714D01*
X110803333Y-78052380D02*
X110898571Y-78004761D01*
X110946190Y-77957142D01*
X110993809Y-77861904D01*
X110993809Y-77576190D01*
X110946190Y-77480952D01*
X110898571Y-77433333D01*
X110803333Y-77385714D01*
X110660476Y-77385714D01*
X110565238Y-77433333D01*
X110517619Y-77480952D01*
X110470000Y-77576190D01*
X110470000Y-77861904D01*
X110517619Y-77957142D01*
X110565238Y-78004761D01*
X110660476Y-78052380D01*
X110803333Y-78052380D01*
X110041428Y-78052380D02*
X110041428Y-77385714D01*
X110041428Y-77052380D02*
X110089047Y-77100000D01*
X110041428Y-77147619D01*
X109993809Y-77100000D01*
X110041428Y-77052380D01*
X110041428Y-77147619D01*
X109136666Y-78052380D02*
X109136666Y-77052380D01*
X109136666Y-78004761D02*
X109231904Y-78052380D01*
X109422380Y-78052380D01*
X109517619Y-78004761D01*
X109565238Y-77957142D01*
X109612857Y-77861904D01*
X109612857Y-77576190D01*
X109565238Y-77480952D01*
X109517619Y-77433333D01*
X109422380Y-77385714D01*
X109231904Y-77385714D01*
X109136666Y-77433333D01*
X107898571Y-78052380D02*
X107898571Y-77052380D01*
X107660476Y-77052380D01*
X107517619Y-77100000D01*
X107422380Y-77195238D01*
X107374761Y-77290476D01*
X107327142Y-77480952D01*
X107327142Y-77623809D01*
X107374761Y-77814285D01*
X107422380Y-77909523D01*
X107517619Y-78004761D01*
X107660476Y-78052380D01*
X107898571Y-78052380D01*
X106517619Y-78004761D02*
X106612857Y-78052380D01*
X106803333Y-78052380D01*
X106898571Y-78004761D01*
X106946190Y-77909523D01*
X106946190Y-77528571D01*
X106898571Y-77433333D01*
X106803333Y-77385714D01*
X106612857Y-77385714D01*
X106517619Y-77433333D01*
X106470000Y-77528571D01*
X106470000Y-77623809D01*
X106946190Y-77719047D01*
X106041428Y-78052380D02*
X106041428Y-77052380D01*
X106041428Y-77433333D02*
X105946190Y-77385714D01*
X105755714Y-77385714D01*
X105660476Y-77433333D01*
X105612857Y-77480952D01*
X105565238Y-77576190D01*
X105565238Y-77861904D01*
X105612857Y-77957142D01*
X105660476Y-78004761D01*
X105755714Y-78052380D01*
X105946190Y-78052380D01*
X106041428Y-78004761D01*
X104708095Y-77385714D02*
X104708095Y-78052380D01*
X105136666Y-77385714D02*
X105136666Y-77909523D01*
X105089047Y-78004761D01*
X104993809Y-78052380D01*
X104850952Y-78052380D01*
X104755714Y-78004761D01*
X104708095Y-77957142D01*
X103803333Y-77385714D02*
X103803333Y-78195238D01*
X103850952Y-78290476D01*
X103898571Y-78338095D01*
X103993809Y-78385714D01*
X104136666Y-78385714D01*
X104231904Y-78338095D01*
X103803333Y-78004761D02*
X103898571Y-78052380D01*
X104089047Y-78052380D01*
X104184285Y-78004761D01*
X104231904Y-77957142D01*
X104279523Y-77861904D01*
X104279523Y-77576190D01*
X104231904Y-77480952D01*
X104184285Y-77433333D01*
X104089047Y-77385714D01*
X103898571Y-77385714D01*
X103803333Y-77433333D01*
X101993809Y-77957142D02*
X102041428Y-78004761D01*
X102184285Y-78052380D01*
X102279523Y-78052380D01*
X102422380Y-78004761D01*
X102517619Y-77909523D01*
X102565238Y-77814285D01*
X102612857Y-77623809D01*
X102612857Y-77480952D01*
X102565238Y-77290476D01*
X102517619Y-77195238D01*
X102422380Y-77100000D01*
X102279523Y-77052380D01*
X102184285Y-77052380D01*
X102041428Y-77100000D01*
X101993809Y-77147619D01*
X101136666Y-78052380D02*
X101136666Y-77528571D01*
X101184285Y-77433333D01*
X101279523Y-77385714D01*
X101470000Y-77385714D01*
X101565238Y-77433333D01*
X101136666Y-78004761D02*
X101231904Y-78052380D01*
X101470000Y-78052380D01*
X101565238Y-78004761D01*
X101612857Y-77909523D01*
X101612857Y-77814285D01*
X101565238Y-77719047D01*
X101470000Y-77671428D01*
X101231904Y-77671428D01*
X101136666Y-77623809D01*
X100660476Y-78052380D02*
X100660476Y-77052380D01*
X100660476Y-77433333D02*
X100565238Y-77385714D01*
X100374761Y-77385714D01*
X100279523Y-77433333D01*
X100231904Y-77480952D01*
X100184285Y-77576190D01*
X100184285Y-77861904D01*
X100231904Y-77957142D01*
X100279523Y-78004761D01*
X100374761Y-78052380D01*
X100565238Y-78052380D01*
X100660476Y-78004761D01*
X99612857Y-78052380D02*
X99708095Y-78004761D01*
X99755714Y-77909523D01*
X99755714Y-77052380D01*
X98850952Y-78004761D02*
X98946190Y-78052380D01*
X99136666Y-78052380D01*
X99231904Y-78004761D01*
X99279523Y-77909523D01*
X99279523Y-77528571D01*
X99231904Y-77433333D01*
X99136666Y-77385714D01*
X98946190Y-77385714D01*
X98850952Y-77433333D01*
X98803333Y-77528571D01*
X98803333Y-77623809D01*
X99279523Y-77719047D01*
X114327142Y-79085714D02*
X114089047Y-79752380D01*
X113850952Y-79085714D01*
X113279523Y-78752380D02*
X113184285Y-78752380D01*
X113089047Y-78800000D01*
X113041428Y-78847619D01*
X112993809Y-78942857D01*
X112946190Y-79133333D01*
X112946190Y-79371428D01*
X112993809Y-79561904D01*
X113041428Y-79657142D01*
X113089047Y-79704761D01*
X113184285Y-79752380D01*
X113279523Y-79752380D01*
X113374761Y-79704761D01*
X113422380Y-79657142D01*
X113470000Y-79561904D01*
X113517619Y-79371428D01*
X113517619Y-79133333D01*
X113470000Y-78942857D01*
X113422380Y-78847619D01*
X113374761Y-78800000D01*
X113279523Y-78752380D01*
X112517619Y-79657142D02*
X112470000Y-79704761D01*
X112517619Y-79752380D01*
X112565238Y-79704761D01*
X112517619Y-79657142D01*
X112517619Y-79752380D01*
X111517619Y-79752380D02*
X112089047Y-79752380D01*
X111803333Y-79752380D02*
X111803333Y-78752380D01*
X111898571Y-78895238D01*
X111993809Y-78990476D01*
X112089047Y-79038095D01*
D11*
X114235833Y-84516666D02*
X114235833Y-85083333D01*
X114202500Y-85150000D01*
X114169166Y-85183333D01*
X114102500Y-85216666D01*
X113969166Y-85216666D01*
X113902500Y-85183333D01*
X113869166Y-85150000D01*
X113835833Y-85083333D01*
X113835833Y-84516666D01*
X113535833Y-85183333D02*
X113435833Y-85216666D01*
X113269166Y-85216666D01*
X113202500Y-85183333D01*
X113169166Y-85150000D01*
X113135833Y-85083333D01*
X113135833Y-85016666D01*
X113169166Y-84950000D01*
X113202500Y-84916666D01*
X113269166Y-84883333D01*
X113402500Y-84850000D01*
X113469166Y-84816666D01*
X113502500Y-84783333D01*
X113535833Y-84716666D01*
X113535833Y-84650000D01*
X113502500Y-84583333D01*
X113469166Y-84550000D01*
X113402500Y-84516666D01*
X113235833Y-84516666D01*
X113135833Y-84550000D01*
X112602500Y-84850000D02*
X112502500Y-84883333D01*
X112469166Y-84916666D01*
X112435833Y-84983333D01*
X112435833Y-85083333D01*
X112469166Y-85150000D01*
X112502500Y-85183333D01*
X112569166Y-85216666D01*
X112835833Y-85216666D01*
X112835833Y-84516666D01*
X112602500Y-84516666D01*
X112535833Y-84550000D01*
X112502500Y-84583333D01*
X112469166Y-84650000D01*
X112469166Y-84716666D01*
X112502500Y-84783333D01*
X112535833Y-84816666D01*
X112602500Y-84850000D01*
X112835833Y-84850000D01*
X111702500Y-84750000D02*
X111435833Y-84750000D01*
X111602500Y-84516666D02*
X111602500Y-85116666D01*
X111569166Y-85183333D01*
X111502500Y-85216666D01*
X111435833Y-85216666D01*
X111102500Y-85216666D02*
X111169166Y-85183333D01*
X111202500Y-85150000D01*
X111235833Y-85083333D01*
X111235833Y-84883333D01*
X111202500Y-84816666D01*
X111169166Y-84783333D01*
X111102500Y-84750000D01*
X111002500Y-84750000D01*
X110935833Y-84783333D01*
X110902500Y-84816666D01*
X110869166Y-84883333D01*
X110869166Y-85083333D01*
X110902500Y-85150000D01*
X110935833Y-85183333D01*
X111002500Y-85216666D01*
X111102500Y-85216666D01*
X110035833Y-84516666D02*
X110035833Y-85083333D01*
X110002500Y-85150000D01*
X109969166Y-85183333D01*
X109902500Y-85216666D01*
X109769166Y-85216666D01*
X109702500Y-85183333D01*
X109669166Y-85150000D01*
X109635833Y-85083333D01*
X109635833Y-84516666D01*
X109335833Y-85016666D02*
X109002500Y-85016666D01*
X109402500Y-85216666D02*
X109169166Y-84516666D01*
X108935833Y-85216666D01*
X108302500Y-85216666D02*
X108535833Y-84883333D01*
X108702500Y-85216666D02*
X108702500Y-84516666D01*
X108435833Y-84516666D01*
X108369166Y-84550000D01*
X108335833Y-84583333D01*
X108302500Y-84650000D01*
X108302500Y-84750000D01*
X108335833Y-84816666D01*
X108369166Y-84850000D01*
X108435833Y-84883333D01*
X108702500Y-84883333D01*
X108102500Y-84516666D02*
X107702500Y-84516666D01*
X107902500Y-85216666D02*
X107902500Y-84516666D01*
X114335833Y-85716666D02*
X114102500Y-86416666D01*
X113869166Y-85716666D01*
X113235833Y-86350000D02*
X113269166Y-86383333D01*
X113369166Y-86416666D01*
X113435833Y-86416666D01*
X113535833Y-86383333D01*
X113602500Y-86316666D01*
X113635833Y-86250000D01*
X113669166Y-86116666D01*
X113669166Y-86016666D01*
X113635833Y-85883333D01*
X113602500Y-85816666D01*
X113535833Y-85750000D01*
X113435833Y-85716666D01*
X113369166Y-85716666D01*
X113269166Y-85750000D01*
X113235833Y-85783333D01*
X112535833Y-86350000D02*
X112569166Y-86383333D01*
X112669166Y-86416666D01*
X112735833Y-86416666D01*
X112835833Y-86383333D01*
X112902500Y-86316666D01*
X112935833Y-86250000D01*
X112969166Y-86116666D01*
X112969166Y-86016666D01*
X112935833Y-85883333D01*
X112902500Y-85816666D01*
X112835833Y-85750000D01*
X112735833Y-85716666D01*
X112669166Y-85716666D01*
X112569166Y-85750000D01*
X112535833Y-85783333D01*
X111769166Y-85716666D02*
X111335833Y-85716666D01*
X111569166Y-85983333D01*
X111469166Y-85983333D01*
X111402500Y-86016666D01*
X111369166Y-86050000D01*
X111335833Y-86116666D01*
X111335833Y-86283333D01*
X111369166Y-86350000D01*
X111402500Y-86383333D01*
X111469166Y-86416666D01*
X111669166Y-86416666D01*
X111735833Y-86383333D01*
X111769166Y-86350000D01*
X111035833Y-86350000D02*
X111002500Y-86383333D01*
X111035833Y-86416666D01*
X111069166Y-86383333D01*
X111035833Y-86350000D01*
X111035833Y-86416666D01*
X110769166Y-85716666D02*
X110335833Y-85716666D01*
X110569166Y-85983333D01*
X110469166Y-85983333D01*
X110402500Y-86016666D01*
X110369166Y-86050000D01*
X110335833Y-86116666D01*
X110335833Y-86283333D01*
X110369166Y-86350000D01*
X110402500Y-86383333D01*
X110469166Y-86416666D01*
X110669166Y-86416666D01*
X110735833Y-86383333D01*
X110769166Y-86350000D01*
X110135833Y-85716666D02*
X109902500Y-86416666D01*
X109669166Y-85716666D01*
X114335833Y-86916666D02*
X114102500Y-87616666D01*
X113869166Y-86916666D01*
X113635833Y-87616666D02*
X113635833Y-86916666D01*
X113169166Y-86916666D02*
X113035833Y-86916666D01*
X112969166Y-86950000D01*
X112902500Y-87016666D01*
X112869166Y-87150000D01*
X112869166Y-87383333D01*
X112902500Y-87516666D01*
X112969166Y-87583333D01*
X113035833Y-87616666D01*
X113169166Y-87616666D01*
X113235833Y-87583333D01*
X113302500Y-87516666D01*
X113335833Y-87383333D01*
X113335833Y-87150000D01*
X113302500Y-87016666D01*
X113235833Y-86950000D01*
X113169166Y-86916666D01*
D13*
G36*
X93186595Y-87097953D02*
X93552425Y-87073610D01*
X93878773Y-87025874D01*
X94413452Y-86893043D01*
X94909899Y-86711833D01*
X95373986Y-86479106D01*
X95811581Y-86191724D01*
X96228554Y-85846551D01*
X96409530Y-85673031D01*
X96782533Y-85261764D01*
X97096417Y-84831413D01*
X97354070Y-84376573D01*
X97558382Y-83891838D01*
X97712242Y-83371805D01*
X97762373Y-83142274D01*
X97810585Y-82811301D01*
X97834611Y-82445163D01*
X97834452Y-82067405D01*
X97810109Y-81701575D01*
X97762373Y-81375227D01*
X97628781Y-80838808D01*
X97445946Y-80339951D01*
X97210980Y-79873251D01*
X96920993Y-79433303D01*
X96573096Y-79014703D01*
X96409530Y-78844470D01*
X95995062Y-78469000D01*
X95560805Y-78152927D01*
X95102899Y-77894181D01*
X94617484Y-77690689D01*
X94100701Y-77540381D01*
X93900125Y-77497707D01*
X93675770Y-77462939D01*
X93417751Y-77436761D01*
X93146379Y-77420146D01*
X92881966Y-77414063D01*
X92644823Y-77419483D01*
X92503125Y-77430965D01*
X91943170Y-77527030D01*
X91407401Y-77681189D01*
X90898471Y-77891961D01*
X90419029Y-78157863D01*
X89971725Y-78477415D01*
X89559211Y-78849133D01*
X89184137Y-79271538D01*
X89163246Y-79297996D01*
X88854477Y-79741974D01*
X88600640Y-80213676D01*
X88402383Y-80707883D01*
X88260354Y-81219374D01*
X88175201Y-81742928D01*
X88147570Y-82273326D01*
X88177717Y-82798500D01*
X90295215Y-82798500D01*
X90383170Y-82645361D01*
X90590920Y-82283999D01*
X90799196Y-81922391D01*
X91005565Y-81564719D01*
X91207594Y-81215164D01*
X91402849Y-80877908D01*
X91588897Y-80557132D01*
X91763303Y-80257020D01*
X91923636Y-79981751D01*
X92067462Y-79735509D01*
X92192346Y-79522474D01*
X92295856Y-79346828D01*
X92375559Y-79212754D01*
X92429020Y-79124432D01*
X92453806Y-79086045D01*
X92455178Y-79084716D01*
X92473854Y-79111554D01*
X92520828Y-79187972D01*
X92592848Y-79308441D01*
X92686664Y-79467433D01*
X92799024Y-79659419D01*
X92926679Y-79878869D01*
X93066376Y-80120257D01*
X93178627Y-80315029D01*
X93342484Y-80599788D01*
X93510981Y-80892503D01*
X93678367Y-81183192D01*
X93838890Y-81461870D01*
X93986799Y-81718554D01*
X94116344Y-81943260D01*
X94221774Y-82126006D01*
X94248733Y-82172699D01*
X94611587Y-82801022D01*
X94354789Y-82791824D01*
X94097992Y-82782625D01*
X93286323Y-81377688D01*
X93128568Y-81105361D01*
X92980067Y-80850431D01*
X92843885Y-80618060D01*
X92723086Y-80413408D01*
X92620733Y-80241636D01*
X92539890Y-80107903D01*
X92483621Y-80017371D01*
X92454989Y-79975200D01*
X92452248Y-79972750D01*
X92432510Y-79999429D01*
X92384217Y-80076035D01*
X92310421Y-80197421D01*
X92214178Y-80358440D01*
X92098540Y-80553946D01*
X91966562Y-80778791D01*
X91821297Y-81027828D01*
X91665799Y-81295912D01*
X91613947Y-81385625D01*
X90798053Y-82798500D01*
X90295215Y-82798500D01*
X88177717Y-82798500D01*
X88178110Y-82805345D01*
X88267468Y-83333766D01*
X88416292Y-83853369D01*
X88554486Y-84205153D01*
X88772924Y-84640000D01*
X90302252Y-84640000D01*
X91370938Y-82785500D01*
X91595810Y-82396075D01*
X91791177Y-82059534D01*
X91958570Y-81773357D01*
X92099517Y-81535026D01*
X92215547Y-81342025D01*
X92308190Y-81191835D01*
X92378973Y-81081938D01*
X92429426Y-81009817D01*
X92461079Y-80972953D01*
X92474729Y-80967812D01*
X92508151Y-81013968D01*
X92559406Y-81096567D01*
X92606987Y-81179250D01*
X92704140Y-81353875D01*
X91881320Y-82777698D01*
X91722869Y-83052120D01*
X91574451Y-83309622D01*
X91439027Y-83545034D01*
X91345629Y-83707766D01*
X91925432Y-83707766D01*
X91934537Y-83676830D01*
X91969665Y-83606465D01*
X92023469Y-83511264D01*
X92029459Y-83501166D01*
X92145421Y-83306500D01*
X93796107Y-83306500D01*
X94162239Y-83306405D01*
X94469856Y-83306007D01*
X94723946Y-83305134D01*
X94929492Y-83303618D01*
X95091481Y-83301289D01*
X95214900Y-83297976D01*
X95304732Y-83293510D01*
X95365965Y-83287720D01*
X95403583Y-83280437D01*
X95422573Y-83271490D01*
X95427921Y-83260710D01*
X95425835Y-83250938D01*
X95406213Y-83213162D01*
X95357891Y-83125927D01*
X95283998Y-82994724D01*
X95187660Y-82825043D01*
X95072005Y-82622374D01*
X94940160Y-82392208D01*
X94795252Y-82140035D01*
X94640408Y-81871345D01*
X94612813Y-81823540D01*
X94457397Y-81553931D01*
X94312076Y-81301005D01*
X94179873Y-81070077D01*
X94063808Y-80866464D01*
X93966903Y-80695485D01*
X93892178Y-80562454D01*
X93842656Y-80472691D01*
X93821357Y-80431511D01*
X93820750Y-80429591D01*
X93835226Y-80387464D01*
X93872357Y-80313891D01*
X93922697Y-80224678D01*
X93976798Y-80135634D01*
X94025213Y-80062566D01*
X94058496Y-80021282D01*
X94066855Y-80017773D01*
X94085409Y-80047667D01*
X94133010Y-80128010D01*
X94207000Y-80254232D01*
X94304723Y-80421763D01*
X94423522Y-80626031D01*
X94560740Y-80862466D01*
X94713721Y-81126499D01*
X94879808Y-81413557D01*
X95056345Y-81719071D01*
X95143250Y-81869607D01*
X96201579Y-83703375D01*
X94069473Y-83711538D01*
X93707520Y-83712750D01*
X93364566Y-83713561D01*
X93045837Y-83713981D01*
X92756557Y-83714018D01*
X92501954Y-83713682D01*
X92287252Y-83712982D01*
X92117678Y-83711927D01*
X91998458Y-83710527D01*
X91934817Y-83708790D01*
X91925432Y-83707766D01*
X91345629Y-83707766D01*
X91319560Y-83753186D01*
X91219011Y-83928906D01*
X91140342Y-84067026D01*
X91086515Y-84162373D01*
X91060492Y-84209778D01*
X91058500Y-84214102D01*
X91089269Y-84216667D01*
X91177653Y-84219366D01*
X91317768Y-84222126D01*
X91503729Y-84224871D01*
X91729652Y-84227529D01*
X91989652Y-84230026D01*
X92277845Y-84232287D01*
X92588346Y-84234239D01*
X92715202Y-84234905D01*
X94371905Y-84243125D01*
X94476091Y-84417750D01*
X94530232Y-84511660D01*
X94568352Y-84583805D01*
X94581513Y-84616188D01*
X94550840Y-84620218D01*
X94461839Y-84624034D01*
X94319685Y-84627578D01*
X94129552Y-84630792D01*
X93896611Y-84633618D01*
X93626038Y-84636000D01*
X93323004Y-84637879D01*
X92992683Y-84639198D01*
X92640248Y-84639899D01*
X92442501Y-84640000D01*
X90302252Y-84640000D01*
X88772924Y-84640000D01*
X88774804Y-84643742D01*
X89040477Y-85054886D01*
X89358946Y-85449523D01*
X89516853Y-85619858D01*
X89925404Y-86000625D01*
X90364109Y-86325754D01*
X90834006Y-86595807D01*
X91336134Y-86811348D01*
X91871530Y-86972938D01*
X92111726Y-87025874D01*
X92442699Y-87074086D01*
X92808837Y-87098112D01*
X93186595Y-87097953D01*
X93186595Y-87097953D01*
G37*
X93186595Y-87097953D02*
X93552425Y-87073610D01*
X93878773Y-87025874D01*
X94413452Y-86893043D01*
X94909899Y-86711833D01*
X95373986Y-86479106D01*
X95811581Y-86191724D01*
X96228554Y-85846551D01*
X96409530Y-85673031D01*
X96782533Y-85261764D01*
X97096417Y-84831413D01*
X97354070Y-84376573D01*
X97558382Y-83891838D01*
X97712242Y-83371805D01*
X97762373Y-83142274D01*
X97810585Y-82811301D01*
X97834611Y-82445163D01*
X97834452Y-82067405D01*
X97810109Y-81701575D01*
X97762373Y-81375227D01*
X97628781Y-80838808D01*
X97445946Y-80339951D01*
X97210980Y-79873251D01*
X96920993Y-79433303D01*
X96573096Y-79014703D01*
X96409530Y-78844470D01*
X95995062Y-78469000D01*
X95560805Y-78152927D01*
X95102899Y-77894181D01*
X94617484Y-77690689D01*
X94100701Y-77540381D01*
X93900125Y-77497707D01*
X93675770Y-77462939D01*
X93417751Y-77436761D01*
X93146379Y-77420146D01*
X92881966Y-77414063D01*
X92644823Y-77419483D01*
X92503125Y-77430965D01*
X91943170Y-77527030D01*
X91407401Y-77681189D01*
X90898471Y-77891961D01*
X90419029Y-78157863D01*
X89971725Y-78477415D01*
X89559211Y-78849133D01*
X89184137Y-79271538D01*
X89163246Y-79297996D01*
X88854477Y-79741974D01*
X88600640Y-80213676D01*
X88402383Y-80707883D01*
X88260354Y-81219374D01*
X88175201Y-81742928D01*
X88147570Y-82273326D01*
X88177717Y-82798500D01*
X90295215Y-82798500D01*
X90383170Y-82645361D01*
X90590920Y-82283999D01*
X90799196Y-81922391D01*
X91005565Y-81564719D01*
X91207594Y-81215164D01*
X91402849Y-80877908D01*
X91588897Y-80557132D01*
X91763303Y-80257020D01*
X91923636Y-79981751D01*
X92067462Y-79735509D01*
X92192346Y-79522474D01*
X92295856Y-79346828D01*
X92375559Y-79212754D01*
X92429020Y-79124432D01*
X92453806Y-79086045D01*
X92455178Y-79084716D01*
X92473854Y-79111554D01*
X92520828Y-79187972D01*
X92592848Y-79308441D01*
X92686664Y-79467433D01*
X92799024Y-79659419D01*
X92926679Y-79878869D01*
X93066376Y-80120257D01*
X93178627Y-80315029D01*
X93342484Y-80599788D01*
X93510981Y-80892503D01*
X93678367Y-81183192D01*
X93838890Y-81461870D01*
X93986799Y-81718554D01*
X94116344Y-81943260D01*
X94221774Y-82126006D01*
X94248733Y-82172699D01*
X94611587Y-82801022D01*
X94354789Y-82791824D01*
X94097992Y-82782625D01*
X93286323Y-81377688D01*
X93128568Y-81105361D01*
X92980067Y-80850431D01*
X92843885Y-80618060D01*
X92723086Y-80413408D01*
X92620733Y-80241636D01*
X92539890Y-80107903D01*
X92483621Y-80017371D01*
X92454989Y-79975200D01*
X92452248Y-79972750D01*
X92432510Y-79999429D01*
X92384217Y-80076035D01*
X92310421Y-80197421D01*
X92214178Y-80358440D01*
X92098540Y-80553946D01*
X91966562Y-80778791D01*
X91821297Y-81027828D01*
X91665799Y-81295912D01*
X91613947Y-81385625D01*
X90798053Y-82798500D01*
X90295215Y-82798500D01*
X88177717Y-82798500D01*
X88178110Y-82805345D01*
X88267468Y-83333766D01*
X88416292Y-83853369D01*
X88554486Y-84205153D01*
X88772924Y-84640000D01*
X90302252Y-84640000D01*
X91370938Y-82785500D01*
X91595810Y-82396075D01*
X91791177Y-82059534D01*
X91958570Y-81773357D01*
X92099517Y-81535026D01*
X92215547Y-81342025D01*
X92308190Y-81191835D01*
X92378973Y-81081938D01*
X92429426Y-81009817D01*
X92461079Y-80972953D01*
X92474729Y-80967812D01*
X92508151Y-81013968D01*
X92559406Y-81096567D01*
X92606987Y-81179250D01*
X92704140Y-81353875D01*
X91881320Y-82777698D01*
X91722869Y-83052120D01*
X91574451Y-83309622D01*
X91439027Y-83545034D01*
X91345629Y-83707766D01*
X91925432Y-83707766D01*
X91934537Y-83676830D01*
X91969665Y-83606465D01*
X92023469Y-83511264D01*
X92029459Y-83501166D01*
X92145421Y-83306500D01*
X93796107Y-83306500D01*
X94162239Y-83306405D01*
X94469856Y-83306007D01*
X94723946Y-83305134D01*
X94929492Y-83303618D01*
X95091481Y-83301289D01*
X95214900Y-83297976D01*
X95304732Y-83293510D01*
X95365965Y-83287720D01*
X95403583Y-83280437D01*
X95422573Y-83271490D01*
X95427921Y-83260710D01*
X95425835Y-83250938D01*
X95406213Y-83213162D01*
X95357891Y-83125927D01*
X95283998Y-82994724D01*
X95187660Y-82825043D01*
X95072005Y-82622374D01*
X94940160Y-82392208D01*
X94795252Y-82140035D01*
X94640408Y-81871345D01*
X94612813Y-81823540D01*
X94457397Y-81553931D01*
X94312076Y-81301005D01*
X94179873Y-81070077D01*
X94063808Y-80866464D01*
X93966903Y-80695485D01*
X93892178Y-80562454D01*
X93842656Y-80472691D01*
X93821357Y-80431511D01*
X93820750Y-80429591D01*
X93835226Y-80387464D01*
X93872357Y-80313891D01*
X93922697Y-80224678D01*
X93976798Y-80135634D01*
X94025213Y-80062566D01*
X94058496Y-80021282D01*
X94066855Y-80017773D01*
X94085409Y-80047667D01*
X94133010Y-80128010D01*
X94207000Y-80254232D01*
X94304723Y-80421763D01*
X94423522Y-80626031D01*
X94560740Y-80862466D01*
X94713721Y-81126499D01*
X94879808Y-81413557D01*
X95056345Y-81719071D01*
X95143250Y-81869607D01*
X96201579Y-83703375D01*
X94069473Y-83711538D01*
X93707520Y-83712750D01*
X93364566Y-83713561D01*
X93045837Y-83713981D01*
X92756557Y-83714018D01*
X92501954Y-83713682D01*
X92287252Y-83712982D01*
X92117678Y-83711927D01*
X91998458Y-83710527D01*
X91934817Y-83708790D01*
X91925432Y-83707766D01*
X91345629Y-83707766D01*
X91319560Y-83753186D01*
X91219011Y-83928906D01*
X91140342Y-84067026D01*
X91086515Y-84162373D01*
X91060492Y-84209778D01*
X91058500Y-84214102D01*
X91089269Y-84216667D01*
X91177653Y-84219366D01*
X91317768Y-84222126D01*
X91503729Y-84224871D01*
X91729652Y-84227529D01*
X91989652Y-84230026D01*
X92277845Y-84232287D01*
X92588346Y-84234239D01*
X92715202Y-84234905D01*
X94371905Y-84243125D01*
X94476091Y-84417750D01*
X94530232Y-84511660D01*
X94568352Y-84583805D01*
X94581513Y-84616188D01*
X94550840Y-84620218D01*
X94461839Y-84624034D01*
X94319685Y-84627578D01*
X94129552Y-84630792D01*
X93896611Y-84633618D01*
X93626038Y-84636000D01*
X93323004Y-84637879D01*
X92992683Y-84639198D01*
X92640248Y-84639899D01*
X92442501Y-84640000D01*
X90302252Y-84640000D01*
X88772924Y-84640000D01*
X88774804Y-84643742D01*
X89040477Y-85054886D01*
X89358946Y-85449523D01*
X89516853Y-85619858D01*
X89925404Y-86000625D01*
X90364109Y-86325754D01*
X90834006Y-86595807D01*
X91336134Y-86811348D01*
X91871530Y-86972938D01*
X92111726Y-87025874D01*
X92442699Y-87074086D01*
X92808837Y-87098112D01*
X93186595Y-87097953D01*
M02*
