G04 #@! TF.GenerationSoftware,KiCad,Pcbnew,no-vcs-found-0e71686~58~ubuntu17.04.1*
G04 #@! TF.CreationDate,2017-06-21T00:27:41-04:00*
G04 #@! TF.ProjectId,android_debug_cable,616E64726F69645F64656275675F6361,rev?*
G04 #@! TF.FileFunction,Legend,Top*
G04 #@! TF.FilePolarity,Positive*
%FSLAX46Y46*%
G04 Gerber Fmt 4.6, Leading zero omitted, Abs format (unit mm)*
G04 Created by KiCad (PCBNEW no-vcs-found-0e71686~58~ubuntu17.04.1) date Wed Jun 21 00:27:41 2017*
%MOMM*%
%LPD*%
G01*
G04 APERTURE LIST*
%ADD10C,0.100000*%
%ADD11C,0.150000*%
%ADD12C,0.120000*%
G04 APERTURE END LIST*
D10*
D11*
X155573333Y-83506666D02*
X155806666Y-84206666D01*
X156040000Y-83506666D01*
X156206666Y-83506666D02*
X156640000Y-83506666D01*
X156406666Y-83773333D01*
X156506666Y-83773333D01*
X156573333Y-83806666D01*
X156606666Y-83840000D01*
X156640000Y-83906666D01*
X156640000Y-84073333D01*
X156606666Y-84140000D01*
X156573333Y-84173333D01*
X156506666Y-84206666D01*
X156306666Y-84206666D01*
X156240000Y-84173333D01*
X156206666Y-84140000D01*
X156940000Y-84140000D02*
X156973333Y-84173333D01*
X156940000Y-84206666D01*
X156906666Y-84173333D01*
X156940000Y-84140000D01*
X156940000Y-84206666D01*
X157206666Y-83506666D02*
X157640000Y-83506666D01*
X157406666Y-83773333D01*
X157506666Y-83773333D01*
X157573333Y-83806666D01*
X157606666Y-83840000D01*
X157640000Y-83906666D01*
X157640000Y-84073333D01*
X157606666Y-84140000D01*
X157573333Y-84173333D01*
X157506666Y-84206666D01*
X157306666Y-84206666D01*
X157240000Y-84173333D01*
X157206666Y-84140000D01*
X148186666Y-83576666D02*
X148586666Y-83576666D01*
X148386666Y-84276666D02*
X148386666Y-83576666D01*
X148753333Y-83576666D02*
X149220000Y-84276666D01*
X149220000Y-83576666D02*
X148753333Y-84276666D01*
X153446666Y-83490000D02*
X153380000Y-83456666D01*
X153280000Y-83456666D01*
X153180000Y-83490000D01*
X153113333Y-83556666D01*
X153080000Y-83623333D01*
X153046666Y-83756666D01*
X153046666Y-83856666D01*
X153080000Y-83990000D01*
X153113333Y-84056666D01*
X153180000Y-84123333D01*
X153280000Y-84156666D01*
X153346666Y-84156666D01*
X153446666Y-84123333D01*
X153480000Y-84090000D01*
X153480000Y-83856666D01*
X153346666Y-83856666D01*
X153780000Y-84156666D02*
X153780000Y-83456666D01*
X154180000Y-84156666D01*
X154180000Y-83456666D01*
X154513333Y-84156666D02*
X154513333Y-83456666D01*
X154680000Y-83456666D01*
X154780000Y-83490000D01*
X154846666Y-83556666D01*
X154880000Y-83623333D01*
X154913333Y-83756666D01*
X154913333Y-83856666D01*
X154880000Y-83990000D01*
X154846666Y-84056666D01*
X154780000Y-84123333D01*
X154680000Y-84156666D01*
X154513333Y-84156666D01*
X151183333Y-84266666D02*
X150950000Y-83933333D01*
X150783333Y-84266666D02*
X150783333Y-83566666D01*
X151050000Y-83566666D01*
X151116666Y-83600000D01*
X151150000Y-83633333D01*
X151183333Y-83700000D01*
X151183333Y-83800000D01*
X151150000Y-83866666D01*
X151116666Y-83900000D01*
X151050000Y-83933333D01*
X150783333Y-83933333D01*
X151416666Y-83566666D02*
X151883333Y-84266666D01*
X151883333Y-83566666D02*
X151416666Y-84266666D01*
X152570000Y-89570000D02*
X152570000Y-87770000D01*
X154170000Y-87270000D02*
X154170000Y-90070000D01*
X155770000Y-90470000D02*
X155770000Y-86870000D01*
X153070000Y-89570000D02*
X153070000Y-87770000D01*
X154670000Y-87270000D02*
X154670000Y-90070000D01*
X156320000Y-90470000D02*
X156320000Y-86870000D01*
D12*
X138580000Y-85990000D02*
X139080000Y-85990000D01*
X139080000Y-85050000D02*
X138580000Y-85050000D01*
X139090000Y-90090000D02*
X138590000Y-90090000D01*
X138590000Y-91030000D02*
X139090000Y-91030000D01*
X138590000Y-92160000D02*
X139090000Y-92160000D01*
X139090000Y-91220000D02*
X138590000Y-91220000D01*
X139090000Y-92470000D02*
X138590000Y-92470000D01*
X138590000Y-93410000D02*
X139090000Y-93410000D01*
X147740000Y-90470000D02*
X148240000Y-90470000D01*
X148240000Y-89410000D02*
X147740000Y-89410000D01*
X143380000Y-93580000D02*
X145830000Y-93580000D01*
X145180000Y-90360000D02*
X143380000Y-90360000D01*
D11*
X146550000Y-85210000D02*
X146025000Y-85210000D01*
X146550000Y-89510000D02*
X146025000Y-89510000D01*
X142250000Y-89510000D02*
X142775000Y-89510000D01*
X142250000Y-85210000D02*
X142775000Y-85210000D01*
X146550000Y-89510000D02*
X146550000Y-88985000D01*
X142250000Y-89510000D02*
X142250000Y-88985000D01*
X146550000Y-85210000D02*
X146550000Y-85735000D01*
X133971904Y-89152380D02*
X133971904Y-88152380D01*
X134352857Y-88152380D01*
X134448095Y-88200000D01*
X134495714Y-88247619D01*
X134543333Y-88342857D01*
X134543333Y-88485714D01*
X134495714Y-88580952D01*
X134448095Y-88628571D01*
X134352857Y-88676190D01*
X133971904Y-88676190D01*
X135495714Y-89152380D02*
X134924285Y-89152380D01*
X135210000Y-89152380D02*
X135210000Y-88152380D01*
X135114761Y-88295238D01*
X135019523Y-88390476D01*
X134924285Y-88438095D01*
X152861904Y-93152380D02*
X152861904Y-92152380D01*
X153242857Y-92152380D01*
X153338095Y-92200000D01*
X153385714Y-92247619D01*
X153433333Y-92342857D01*
X153433333Y-92485714D01*
X153385714Y-92580952D01*
X153338095Y-92628571D01*
X153242857Y-92676190D01*
X152861904Y-92676190D01*
X153814285Y-92247619D02*
X153861904Y-92200000D01*
X153957142Y-92152380D01*
X154195238Y-92152380D01*
X154290476Y-92200000D01*
X154338095Y-92247619D01*
X154385714Y-92342857D01*
X154385714Y-92438095D01*
X154338095Y-92580952D01*
X153766666Y-93152380D01*
X154385714Y-93152380D01*
X140583333Y-85907142D02*
X140535714Y-85954761D01*
X140392857Y-86002380D01*
X140297619Y-86002380D01*
X140154761Y-85954761D01*
X140059523Y-85859523D01*
X140011904Y-85764285D01*
X139964285Y-85573809D01*
X139964285Y-85430952D01*
X140011904Y-85240476D01*
X140059523Y-85145238D01*
X140154761Y-85050000D01*
X140297619Y-85002380D01*
X140392857Y-85002380D01*
X140535714Y-85050000D01*
X140583333Y-85097619D01*
X141535714Y-86002380D02*
X140964285Y-86002380D01*
X141250000Y-86002380D02*
X141250000Y-85002380D01*
X141154761Y-85145238D01*
X141059523Y-85240476D01*
X140964285Y-85288095D01*
X140603333Y-90907142D02*
X140555714Y-90954761D01*
X140412857Y-91002380D01*
X140317619Y-91002380D01*
X140174761Y-90954761D01*
X140079523Y-90859523D01*
X140031904Y-90764285D01*
X139984285Y-90573809D01*
X139984285Y-90430952D01*
X140031904Y-90240476D01*
X140079523Y-90145238D01*
X140174761Y-90050000D01*
X140317619Y-90002380D01*
X140412857Y-90002380D01*
X140555714Y-90050000D01*
X140603333Y-90097619D01*
X140984285Y-90097619D02*
X141031904Y-90050000D01*
X141127142Y-90002380D01*
X141365238Y-90002380D01*
X141460476Y-90050000D01*
X141508095Y-90097619D01*
X141555714Y-90192857D01*
X141555714Y-90288095D01*
X141508095Y-90430952D01*
X140936666Y-91002380D01*
X141555714Y-91002380D01*
X140603333Y-92107142D02*
X140555714Y-92154761D01*
X140412857Y-92202380D01*
X140317619Y-92202380D01*
X140174761Y-92154761D01*
X140079523Y-92059523D01*
X140031904Y-91964285D01*
X139984285Y-91773809D01*
X139984285Y-91630952D01*
X140031904Y-91440476D01*
X140079523Y-91345238D01*
X140174761Y-91250000D01*
X140317619Y-91202380D01*
X140412857Y-91202380D01*
X140555714Y-91250000D01*
X140603333Y-91297619D01*
X140936666Y-91202380D02*
X141555714Y-91202380D01*
X141222380Y-91583333D01*
X141365238Y-91583333D01*
X141460476Y-91630952D01*
X141508095Y-91678571D01*
X141555714Y-91773809D01*
X141555714Y-92011904D01*
X141508095Y-92107142D01*
X141460476Y-92154761D01*
X141365238Y-92202380D01*
X141079523Y-92202380D01*
X140984285Y-92154761D01*
X140936666Y-92107142D01*
X140573333Y-93347142D02*
X140525714Y-93394761D01*
X140382857Y-93442380D01*
X140287619Y-93442380D01*
X140144761Y-93394761D01*
X140049523Y-93299523D01*
X140001904Y-93204285D01*
X139954285Y-93013809D01*
X139954285Y-92870952D01*
X140001904Y-92680476D01*
X140049523Y-92585238D01*
X140144761Y-92490000D01*
X140287619Y-92442380D01*
X140382857Y-92442380D01*
X140525714Y-92490000D01*
X140573333Y-92537619D01*
X141430476Y-92775714D02*
X141430476Y-93442380D01*
X141192380Y-92394761D02*
X140954285Y-93109047D01*
X141573333Y-93109047D01*
X147983333Y-89252380D02*
X147650000Y-88776190D01*
X147411904Y-89252380D02*
X147411904Y-88252380D01*
X147792857Y-88252380D01*
X147888095Y-88300000D01*
X147935714Y-88347619D01*
X147983333Y-88442857D01*
X147983333Y-88585714D01*
X147935714Y-88680952D01*
X147888095Y-88728571D01*
X147792857Y-88776190D01*
X147411904Y-88776190D01*
X148935714Y-89252380D02*
X148364285Y-89252380D01*
X148650000Y-89252380D02*
X148650000Y-88252380D01*
X148554761Y-88395238D01*
X148459523Y-88490476D01*
X148364285Y-88538095D01*
X146578095Y-91392380D02*
X146578095Y-92201904D01*
X146625714Y-92297142D01*
X146673333Y-92344761D01*
X146768571Y-92392380D01*
X146959047Y-92392380D01*
X147054285Y-92344761D01*
X147101904Y-92297142D01*
X147149523Y-92201904D01*
X147149523Y-91392380D01*
X148149523Y-92392380D02*
X147578095Y-92392380D01*
X147863809Y-92392380D02*
X147863809Y-91392380D01*
X147768571Y-91535238D01*
X147673333Y-91630476D01*
X147578095Y-91678095D01*
X143618095Y-83572380D02*
X143618095Y-84381904D01*
X143665714Y-84477142D01*
X143713333Y-84524761D01*
X143808571Y-84572380D01*
X143999047Y-84572380D01*
X144094285Y-84524761D01*
X144141904Y-84477142D01*
X144189523Y-84381904D01*
X144189523Y-83572380D01*
X144618095Y-83667619D02*
X144665714Y-83620000D01*
X144760952Y-83572380D01*
X144999047Y-83572380D01*
X145094285Y-83620000D01*
X145141904Y-83667619D01*
X145189523Y-83762857D01*
X145189523Y-83858095D01*
X145141904Y-84000952D01*
X144570476Y-84572380D01*
X145189523Y-84572380D01*
M02*
