G04 #@! TF.GenerationSoftware,KiCad,Pcbnew,no-vcs-found-c93ab4d~58~ubuntu17.04.1*
G04 #@! TF.CreationDate,2017-07-20T17:59:11+02:00*
G04 #@! TF.ProjectId,android_debug_cable,616E64726F69645F64656275675F6361,rev?*
G04 #@! TF.SameCoordinates,Original
G04 #@! TF.FileFunction,Copper,L1,Top,Signal*
G04 #@! TF.FilePolarity,Positive*
%FSLAX46Y46*%
G04 Gerber Fmt 4.6, Leading zero omitted, Abs format (unit mm)*
G04 Created by KiCad (PCBNEW no-vcs-found-c93ab4d~58~ubuntu17.04.1) date Thu Jul 20 17:59:11 2017*
%MOMM*%
%LPD*%
G01*
G04 APERTURE LIST*
%ADD10C,1.450000*%
%ADD11R,1.350000X0.400000*%
%ADD12C,1.350000*%
%ADD13C,1.750000*%
%ADD14R,0.600000X0.500000*%
%ADD15C,1.397000*%
%ADD16O,1.397000X1.397000*%
%ADD17R,0.400000X0.600000*%
%ADD18R,1.060000X0.650000*%
%ADD19R,1.300000X1.300000*%
%ADD20R,0.300000X0.850000*%
%ADD21R,0.850000X0.300000*%
%ADD22C,0.800000*%
%ADD23C,0.250000*%
G04 APERTURE END LIST*
D10*
X156350000Y-88680000D03*
X154450000Y-88680000D03*
X152750000Y-88680000D03*
X151050000Y-88680000D03*
D11*
X136600000Y-87340000D03*
X136600000Y-87990000D03*
X136600000Y-88640000D03*
X136600000Y-89290000D03*
X136600000Y-89940000D03*
D12*
X136270000Y-86140000D03*
X136270000Y-91140000D03*
D13*
X133900000Y-85140000D03*
X133900000Y-92140000D03*
D14*
X138290000Y-90560000D03*
X139390000Y-90560000D03*
X139390000Y-91690000D03*
X138290000Y-91690000D03*
X138290000Y-92940000D03*
X139390000Y-92940000D03*
D15*
X152640000Y-84870000D03*
X150100000Y-84870000D03*
D16*
X155180000Y-84870000D03*
D15*
X147560000Y-84870000D03*
D17*
X148440000Y-89940000D03*
X147540000Y-89940000D03*
D18*
X143180000Y-92920000D03*
X143180000Y-91020000D03*
X145380000Y-91020000D03*
X145380000Y-91970000D03*
X145380000Y-92920000D03*
D19*
X143750000Y-86710000D03*
X143750000Y-88010000D03*
X145050000Y-86710000D03*
X145050000Y-88010000D03*
D20*
X143150000Y-85410000D03*
X143650000Y-85410000D03*
X144150000Y-85410000D03*
X144650000Y-85410000D03*
X145150000Y-85410000D03*
X145650000Y-85410000D03*
D21*
X146350000Y-86110000D03*
X146350000Y-86610000D03*
X146350000Y-87110000D03*
X146350000Y-87610000D03*
X146350000Y-88110000D03*
X146350000Y-88610000D03*
D20*
X145650000Y-89310000D03*
X145150000Y-89310000D03*
X144650000Y-89310000D03*
X144150000Y-89310000D03*
X143650000Y-89310000D03*
X143150000Y-89310000D03*
D21*
X142450000Y-88610000D03*
X142450000Y-88110000D03*
X142450000Y-87610000D03*
X142450000Y-87110000D03*
X142450000Y-86610000D03*
X142450000Y-86110000D03*
D14*
X138280000Y-85550000D03*
X139380000Y-85550000D03*
D22*
X139350000Y-89709998D03*
X140890135Y-84647166D03*
X150720000Y-92550000D03*
X142111204Y-92330990D03*
X135930000Y-92930000D03*
X147480000Y-93020000D03*
X139820000Y-87450000D03*
X143834685Y-92435279D03*
X148645924Y-92611244D03*
X137380000Y-92050000D03*
X142177321Y-90325439D03*
X154770000Y-91890000D03*
X147820000Y-87360000D03*
X144280856Y-91540319D03*
X138050000Y-89709998D03*
X137995175Y-87264990D03*
X148792660Y-86990000D03*
X142350277Y-84660614D03*
X149520866Y-88910544D03*
D23*
X142450000Y-88610000D02*
X140449998Y-88610000D01*
X140449998Y-88610000D02*
X139350000Y-89709998D01*
X139380000Y-85550000D02*
X139987301Y-85550000D01*
X139987301Y-85550000D02*
X140890135Y-84647166D01*
X155180000Y-84870000D02*
X156350000Y-86040000D01*
X156350000Y-86040000D02*
X156350000Y-88680000D01*
X155670001Y-92949999D02*
X156350000Y-92270000D01*
X156350000Y-92270000D02*
X156350000Y-88680000D01*
X151119999Y-92949999D02*
X155670001Y-92949999D01*
X150720000Y-92550000D02*
X151119999Y-92949999D01*
X155220000Y-84880000D02*
X155130000Y-84790000D01*
X155170000Y-85060000D02*
X155170000Y-84650000D01*
X155170000Y-84650000D02*
X155490000Y-84330000D01*
X155170000Y-84420000D02*
X155170000Y-85060000D01*
X143150000Y-89310000D02*
X143650000Y-89310000D01*
X142120000Y-89300000D02*
X140860000Y-90560000D01*
X140860000Y-90560000D02*
X139390000Y-90560000D01*
X142740000Y-89300000D02*
X142120000Y-89300000D01*
X143150000Y-89310000D02*
X142750000Y-89310000D01*
X142750000Y-89310000D02*
X142740000Y-89300000D01*
X143150000Y-89310000D02*
X143150000Y-89985000D01*
X143271413Y-90106413D02*
X143650000Y-90106413D01*
X143150000Y-89985000D02*
X143271413Y-90106413D01*
X139390000Y-92940000D02*
X141502194Y-92940000D01*
X141502194Y-92940000D02*
X142111204Y-92330990D01*
X135950000Y-92500508D02*
X135950000Y-92910000D01*
X135950000Y-92910000D02*
X135930000Y-92930000D01*
X144358904Y-90815317D02*
X143650000Y-90106413D01*
X145380000Y-91020000D02*
X145175317Y-90815317D01*
X145175317Y-90815317D02*
X144358904Y-90815317D01*
X134492288Y-91042796D02*
X135950000Y-92500508D01*
X145380000Y-92920000D02*
X147380000Y-92920000D01*
X147380000Y-92920000D02*
X147480000Y-93020000D01*
X134492288Y-91042796D02*
X134492288Y-88522712D01*
X134492288Y-88522712D02*
X135675000Y-87340000D01*
X135675000Y-87340000D02*
X136600000Y-87340000D01*
X139390000Y-92940000D02*
X139440000Y-92940000D01*
X139469990Y-90639990D02*
X139390000Y-90560000D01*
X139440000Y-92940000D02*
X140015001Y-92364999D01*
X140015001Y-92364999D02*
X140015001Y-91078591D01*
X139576400Y-90639990D02*
X139469990Y-90639990D01*
X140015001Y-91078591D02*
X139576400Y-90639990D01*
X139370000Y-92940000D02*
X139320000Y-92940000D01*
X145380000Y-92920000D02*
X145175000Y-92920000D01*
X139420000Y-92940000D02*
X139370000Y-92940000D01*
X146240000Y-92840000D02*
X146240000Y-91100000D01*
X146240000Y-91100000D02*
X146160000Y-91020000D01*
X146160000Y-91020000D02*
X145380000Y-91020000D01*
X145380000Y-92920000D02*
X146160000Y-92920000D01*
X146160000Y-92920000D02*
X146240000Y-92840000D01*
X142450000Y-88110000D02*
X140480000Y-88110000D01*
X140480000Y-88110000D02*
X139820000Y-87450000D01*
X143434686Y-92835278D02*
X143834685Y-92435279D01*
X143349964Y-92920000D02*
X143434686Y-92835278D01*
X143180000Y-92920000D02*
X143349964Y-92920000D01*
X148440000Y-89940000D02*
X148440000Y-92405320D01*
X148440000Y-92405320D02*
X148645924Y-92611244D01*
X139390000Y-91690000D02*
X139340000Y-91690000D01*
X139340000Y-91690000D02*
X138760954Y-92269046D01*
X138760954Y-92269046D02*
X137599046Y-92269046D01*
X137599046Y-92269046D02*
X137380000Y-92050000D01*
X142177321Y-91342321D02*
X142177321Y-90325439D01*
X143180000Y-92920000D02*
X143180000Y-92345000D01*
X143180000Y-92345000D02*
X142177321Y-91342321D01*
X138280000Y-85550000D02*
X138280000Y-85050000D01*
X138280000Y-85050000D02*
X138817835Y-84512165D01*
X138817835Y-84512165D02*
X138817835Y-83922165D01*
X141238136Y-83922165D02*
X141313802Y-83846499D01*
X141313802Y-83846499D02*
X149383501Y-83846499D01*
X141615136Y-84299165D02*
X141238136Y-83922165D01*
X141238136Y-83922165D02*
X138817835Y-83922165D01*
X142450000Y-86610000D02*
X141775000Y-86610000D01*
X141775000Y-86610000D02*
X141615136Y-86450136D01*
X138817835Y-83922165D02*
X136760000Y-85980000D01*
X141615136Y-86450136D02*
X141615136Y-84299165D01*
X152640000Y-84870000D02*
X154450000Y-86680000D01*
X154450000Y-86680000D02*
X154450000Y-88680000D01*
X154770000Y-91890000D02*
X154770000Y-89000000D01*
X154770000Y-89000000D02*
X154450000Y-88680000D01*
X138290000Y-91690000D02*
X138290000Y-90560000D01*
X138290000Y-90560000D02*
X137220000Y-90560000D01*
X137220000Y-90560000D02*
X136600000Y-89940000D01*
X138290000Y-90560000D02*
X138340000Y-90560000D01*
X148583501Y-85656499D02*
X147820000Y-86420000D01*
X147820000Y-86420000D02*
X147820000Y-87360000D01*
X148583501Y-84646499D02*
X148583501Y-85656499D01*
X149383501Y-83846499D02*
X148583501Y-84646499D01*
X152640000Y-84870000D02*
X151616499Y-83846499D01*
X151616499Y-83846499D02*
X149383501Y-83846499D01*
X144600000Y-91970000D02*
X144280856Y-91650856D01*
X144280856Y-91650856D02*
X144280856Y-91540319D01*
X145380000Y-91970000D02*
X144600000Y-91970000D01*
X137210000Y-92940000D02*
X136600000Y-92330000D01*
X136600000Y-92330000D02*
X136600000Y-91140000D01*
X138290000Y-92940000D02*
X137210000Y-92940000D01*
X136600000Y-91140000D02*
X137740000Y-91140000D01*
X137740000Y-91140000D02*
X138290000Y-91690000D01*
X138290000Y-91590000D02*
X138110000Y-91770000D01*
X136620000Y-91160000D02*
X136600000Y-91140000D01*
X145050000Y-88010000D02*
X145050000Y-86710000D01*
X143750000Y-88010000D02*
X145050000Y-88010000D01*
X143750000Y-86710000D02*
X143750000Y-88010000D01*
X142450000Y-86610000D02*
X143650000Y-86610000D01*
X143650000Y-86610000D02*
X143750000Y-86710000D01*
X136600000Y-91140000D02*
X136600000Y-89940000D01*
X140356109Y-86295008D02*
X138965157Y-86295008D01*
X142450000Y-87110000D02*
X141171101Y-87110000D01*
X138395174Y-86864991D02*
X137995175Y-87264990D01*
X141171101Y-87110000D02*
X140356109Y-86295008D01*
X138965157Y-86295008D02*
X138395174Y-86864991D01*
X136600000Y-88640000D02*
X137525000Y-88640000D01*
X137525000Y-88640000D02*
X138050000Y-89165000D01*
X138050000Y-89165000D02*
X138050000Y-89709998D01*
X142430000Y-87090000D02*
X142450000Y-87110000D01*
X139471999Y-86724999D02*
X140168001Y-86724999D01*
X141053002Y-87610000D02*
X141775000Y-87610000D01*
X140168001Y-86724999D02*
X141053002Y-87610000D01*
X138606998Y-87990000D02*
X139054999Y-87541999D01*
X139054999Y-87141999D02*
X139471999Y-86724999D01*
X139054999Y-87541999D02*
X139054999Y-87141999D01*
X141775000Y-87610000D02*
X142450000Y-87610000D01*
X136600000Y-87990000D02*
X138606998Y-87990000D01*
X148792660Y-86177340D02*
X148792660Y-86880000D01*
X148792660Y-86990000D02*
X148792660Y-89207658D01*
X148792660Y-86880000D02*
X148792660Y-86990000D01*
X144650000Y-84735000D02*
X144287176Y-84372176D01*
X144287176Y-84372176D02*
X143204400Y-84372176D01*
X144650000Y-85410000D02*
X144650000Y-84735000D01*
X143204400Y-84372176D02*
X142915962Y-84660614D01*
X142915962Y-84660614D02*
X142350277Y-84660614D01*
X148792660Y-89207658D02*
X149340003Y-89755001D01*
X152200001Y-89429999D02*
X152950000Y-88680000D01*
X149340003Y-89755001D02*
X149340003Y-89760003D01*
X149340003Y-89760003D02*
X149630000Y-90050000D01*
X149630000Y-90050000D02*
X151580000Y-90050000D01*
X151580000Y-90050000D02*
X152200001Y-89429999D01*
X150100000Y-84870000D02*
X152750000Y-87520000D01*
X152750000Y-87520000D02*
X152750000Y-88680000D01*
X150100000Y-84870000D02*
X148792660Y-86177340D01*
X145998682Y-84296510D02*
X145588490Y-84296510D01*
X145150000Y-84735000D02*
X145150000Y-85410000D01*
X147560000Y-84870000D02*
X146572172Y-84870000D01*
X146572172Y-84870000D02*
X145998682Y-84296510D01*
X145588490Y-84296510D02*
X145150000Y-84735000D01*
X151050000Y-88680000D02*
X149751410Y-88680000D01*
X149751410Y-88680000D02*
X149520866Y-88910544D01*
X149519999Y-88909677D02*
X149520866Y-88910544D01*
X149519999Y-88670001D02*
X149519999Y-88909677D01*
X147114694Y-90365306D02*
X147540000Y-89940000D01*
X144150000Y-89310000D02*
X144150000Y-89970002D01*
X144545304Y-90365306D02*
X147114694Y-90365306D01*
X144150000Y-89970002D02*
X144545304Y-90365306D01*
M02*
