G04 #@! TF.FileFunction,Copper,L1,Top,Signal*
%FSLAX46Y46*%
G04 Gerber Fmt 4.6, Leading zero omitted, Abs format (unit mm)*
G04 Created by KiCad (PCBNEW 4.1.0-alpha+201608131231+7028~46~ubuntu16.04.1-product) date Sun Aug 14 13:26:06 2016*
%MOMM*%
%LPD*%
G01*
G04 APERTURE LIST*
%ADD10C,0.100000*%
%ADD11R,0.600000X0.500000*%
%ADD12R,0.500000X0.600000*%
%ADD13R,8.000000X1.900000*%
%ADD14R,7.500000X2.000000*%
%ADD15C,1.397000*%
%ADD16O,1.397000X1.397000*%
%ADD17C,1.800000*%
%ADD18R,2.000000X2.800000*%
%ADD19R,2.200000X2.800000*%
%ADD20R,2.800000X2.200000*%
%ADD21O,0.850000X0.300000*%
%ADD22O,0.300000X0.850000*%
%ADD23R,1.675000X1.675000*%
%ADD24R,0.660400X0.406400*%
%ADD25R,0.400000X0.600000*%
%ADD26C,0.800000*%
%ADD27C,0.250000*%
%ADD28C,0.254000*%
G04 APERTURE END LIST*
D10*
D11*
X92750000Y-83900000D03*
X91650000Y-83900000D03*
X92750000Y-85100000D03*
X91650000Y-85100000D03*
D12*
X104100000Y-79150000D03*
X104100000Y-78050000D03*
X108900000Y-79150000D03*
X108900000Y-78050000D03*
D11*
X92750000Y-87500000D03*
X91650000Y-87500000D03*
D13*
X83150000Y-86210000D03*
X83150000Y-78590000D03*
D14*
X83400000Y-81100000D03*
X83400000Y-83700000D03*
D15*
X100730000Y-86500000D03*
X103270000Y-86500000D03*
D16*
X98190000Y-86500000D03*
D15*
X105810000Y-86500000D03*
D17*
X110000000Y-82400000D03*
X103000000Y-82400000D03*
D18*
X113900000Y-78700000D03*
D19*
X111100000Y-78700000D03*
X101700000Y-78700000D03*
D20*
X98434500Y-83148000D03*
D18*
X112000000Y-86100000D03*
X109200000Y-86100000D03*
D21*
X91500000Y-78500000D03*
X91500000Y-79000000D03*
X91500000Y-79500000D03*
X91500000Y-80000000D03*
X91500000Y-80500000D03*
X91500000Y-81000000D03*
X91500000Y-81500000D03*
D22*
X92450000Y-82450000D03*
X92950000Y-82450000D03*
X93450000Y-82450000D03*
X93950000Y-82450000D03*
X94450000Y-82450000D03*
X94950000Y-82450000D03*
X95450000Y-82450000D03*
D21*
X96400000Y-81500000D03*
X96400000Y-81000000D03*
X96400000Y-80500000D03*
X96400000Y-80000000D03*
X96400000Y-79500000D03*
X96400000Y-79000000D03*
X96400000Y-78500000D03*
D22*
X95450000Y-77550000D03*
X94950000Y-77550000D03*
X94450000Y-77550000D03*
X93950000Y-77550000D03*
X93450000Y-77550000D03*
X92950000Y-77550000D03*
X92450000Y-77550000D03*
D23*
X94787500Y-80837500D03*
X94787500Y-79162500D03*
X93112500Y-80837500D03*
X93112500Y-79162500D03*
D24*
X107416000Y-79260400D03*
X107416000Y-77939600D03*
X107416000Y-78600000D03*
X105384000Y-77939600D03*
X105384000Y-79260400D03*
D25*
X91750000Y-86400000D03*
X92650000Y-86400000D03*
D26*
X95700000Y-86974990D03*
X88980777Y-85553957D03*
X87900000Y-83900000D03*
X104988935Y-84818556D03*
X99405152Y-85298011D03*
X101500000Y-84600000D03*
X89400000Y-86800000D03*
X87949988Y-86895050D03*
X94700000Y-87900023D03*
X87857847Y-82900877D03*
X103300000Y-80700000D03*
X101000000Y-81500000D03*
X99200000Y-77700000D03*
X91100000Y-77000000D03*
D27*
X103270000Y-85512172D02*
X108432172Y-80350000D01*
X108432172Y-80350000D02*
X109750000Y-80350000D01*
X109750000Y-80350000D02*
X111100000Y-79000000D01*
X111100000Y-79000000D02*
X111100000Y-78700000D01*
X103270000Y-86500000D02*
X103270000Y-85512172D01*
X83150000Y-78590000D02*
X87400000Y-78590000D01*
X87400000Y-78590000D02*
X87965010Y-78024990D01*
X87965010Y-78024990D02*
X91974990Y-78024990D01*
X91974990Y-78024990D02*
X93112500Y-79162500D01*
X92750000Y-85100000D02*
X93825010Y-85100000D01*
X93825010Y-85100000D02*
X95700000Y-86974990D01*
X92750000Y-87500000D02*
X93300000Y-87500000D01*
X93300000Y-87500000D02*
X93624987Y-87175013D01*
X94934292Y-87175013D02*
X95134315Y-86974990D01*
X93624987Y-87175013D02*
X94934292Y-87175013D01*
X95134315Y-86974990D02*
X95700000Y-86974990D01*
X96099999Y-86574991D02*
X95700000Y-86974990D01*
X94787500Y-80837500D02*
X96099999Y-82149999D01*
X96099999Y-82149999D02*
X96099999Y-86574991D01*
X91500000Y-79000000D02*
X92950000Y-79000000D01*
X92950000Y-79000000D02*
X93112500Y-79162500D01*
X87400000Y-78590000D02*
X87810000Y-79000000D01*
X90825000Y-79000000D02*
X91500000Y-79000000D01*
X87810000Y-79000000D02*
X90825000Y-79000000D01*
X92750000Y-84600000D02*
X92750000Y-85100000D01*
X92750000Y-83900000D02*
X92750000Y-84600000D01*
X104100000Y-78050000D02*
X104100000Y-78000000D01*
X104100000Y-78000000D02*
X104688601Y-77411399D01*
X104688601Y-77411399D02*
X108311399Y-77411399D01*
X108311399Y-77411399D02*
X108900000Y-78000000D01*
X108900000Y-78000000D02*
X108900000Y-78050000D01*
X108900000Y-78050000D02*
X110450000Y-78050000D01*
X110450000Y-78050000D02*
X111100000Y-78700000D01*
X107416000Y-78600000D02*
X108350000Y-78600000D01*
X108350000Y-78600000D02*
X108900000Y-78050000D01*
X90634734Y-83900000D02*
X89380776Y-85153958D01*
X91650000Y-83900000D02*
X90634734Y-83900000D01*
X89380776Y-85153958D02*
X88980777Y-85553957D01*
X90954177Y-81000000D02*
X90924748Y-81000000D01*
X90924748Y-81000000D02*
X88024748Y-83900000D01*
X88024748Y-83900000D02*
X87900000Y-83900000D01*
X90929187Y-81024990D02*
X91475009Y-81024990D01*
X91475009Y-81024990D02*
X91500000Y-81000000D01*
X104988935Y-85384241D02*
X104988935Y-84818556D01*
X105810000Y-86500000D02*
X104988935Y-85678935D01*
X104988935Y-85678935D02*
X104988935Y-85384241D01*
X91500000Y-81000000D02*
X90954177Y-81000000D01*
X101500000Y-84600000D02*
X101073512Y-85026488D01*
X101073512Y-85026488D02*
X99676675Y-85026488D01*
X99676675Y-85026488D02*
X99405152Y-85298011D01*
X105810000Y-86500000D02*
X107935001Y-84374999D01*
X107935001Y-84374999D02*
X109875001Y-84374999D01*
X109875001Y-84374999D02*
X113900000Y-80350000D01*
X113900000Y-80350000D02*
X113900000Y-78700000D01*
X91650000Y-87500000D02*
X91650000Y-86500000D01*
X91650000Y-86500000D02*
X91750000Y-86400000D01*
X86200000Y-86210000D02*
X83150000Y-86210000D01*
X87400000Y-85010000D02*
X86200000Y-86210000D01*
X91700000Y-82100000D02*
X90773004Y-82100000D01*
X87863004Y-85010000D02*
X87400000Y-85010000D01*
X90773004Y-82100000D02*
X87863004Y-85010000D01*
X95265685Y-87900023D02*
X94700000Y-87900023D01*
X98304759Y-87900023D02*
X95265685Y-87900023D01*
X99213501Y-86991281D02*
X98304759Y-87900023D01*
X99213501Y-86518000D02*
X99213501Y-86991281D01*
X107416000Y-79797002D02*
X101736503Y-85476499D01*
X107416000Y-79260400D02*
X107416000Y-79797002D01*
X101736503Y-85476499D02*
X100255002Y-85476499D01*
X100255002Y-85476499D02*
X99213501Y-86518000D01*
X87400000Y-86509415D02*
X88890585Y-88000000D01*
X87400000Y-86210000D02*
X87400000Y-86509415D01*
X87549989Y-86495051D02*
X87949988Y-86895050D01*
X88890585Y-88000000D02*
X91100000Y-88000000D01*
X91600000Y-87500000D02*
X91650000Y-87500000D01*
X91100000Y-88000000D02*
X91600000Y-87500000D01*
X91650000Y-85100000D02*
X91100000Y-85100000D01*
X91100000Y-85100000D02*
X89400000Y-86800000D01*
X87400000Y-86210000D02*
X87400000Y-86345062D01*
X87400000Y-86345062D02*
X87549989Y-86495051D01*
X83150000Y-86210000D02*
X87400000Y-86210000D01*
X91700000Y-82100000D02*
X91500000Y-81900000D01*
X92050000Y-82450000D02*
X91700000Y-82100000D01*
X92450000Y-82450000D02*
X92050000Y-82450000D01*
X91500000Y-81900000D02*
X91500000Y-81500000D01*
X107416000Y-79260400D02*
X106835800Y-79260400D01*
X106835800Y-79260400D02*
X106760799Y-79185399D01*
X106760799Y-79185399D02*
X106760799Y-78014601D01*
X106760799Y-78014601D02*
X106835800Y-77939600D01*
X106835800Y-77939600D02*
X107416000Y-77939600D01*
X108900000Y-79150000D02*
X107526400Y-79150000D01*
X107526400Y-79150000D02*
X107416000Y-79260400D01*
X88000000Y-82769522D02*
X87868645Y-82900877D01*
X87868645Y-82900877D02*
X87857847Y-82900877D01*
X91500000Y-80500000D02*
X90269522Y-80500000D01*
X88285680Y-82483842D02*
X87885681Y-82883841D01*
X90269522Y-80500000D02*
X88285680Y-82483842D01*
X104100000Y-79150000D02*
X104100000Y-79900000D01*
X104100000Y-79900000D02*
X103300000Y-80700000D01*
X104100000Y-79150000D02*
X105273600Y-79150000D01*
X105273600Y-79150000D02*
X105384000Y-79260400D01*
X83400000Y-81100000D02*
X86150000Y-81100000D01*
X86150000Y-81100000D02*
X87750000Y-79500000D01*
X90825000Y-79500000D02*
X91500000Y-79500000D01*
X87750000Y-79500000D02*
X90825000Y-79500000D01*
X90825000Y-80000000D02*
X91500000Y-80000000D01*
X89710672Y-80000000D02*
X90825000Y-80000000D01*
X83400000Y-83700000D02*
X86010672Y-83700000D01*
X86010672Y-83700000D02*
X89710672Y-80000000D01*
X101000000Y-81500000D02*
X96200001Y-76700001D01*
X96200001Y-76700001D02*
X94624999Y-76700001D01*
X94624999Y-76700001D02*
X94450000Y-76875000D01*
X94450000Y-76875000D02*
X94450000Y-77550000D01*
X109200000Y-86100000D02*
X107950000Y-86100000D01*
X107950000Y-86100000D02*
X106526499Y-87523501D01*
X106526499Y-87523501D02*
X101753501Y-87523501D01*
X101753501Y-87523501D02*
X101428499Y-87198499D01*
X101428499Y-87198499D02*
X100730000Y-86500000D01*
X100116999Y-84573001D02*
X101725001Y-82964999D01*
X101700000Y-80350000D02*
X101700000Y-78700000D01*
X101725001Y-82964999D02*
X101725001Y-80375001D01*
X98190000Y-85426894D02*
X99043893Y-84573001D01*
X98190000Y-86500000D02*
X98190000Y-85426894D01*
X101725001Y-80375001D02*
X101700000Y-80350000D01*
X99043893Y-84573001D02*
X100116999Y-84573001D01*
X99200000Y-77700000D02*
X100200000Y-78700000D01*
X100200000Y-78700000D02*
X101700000Y-78700000D01*
X91100000Y-77000000D02*
X91665685Y-77000000D01*
X91665685Y-77000000D02*
X91865695Y-76799990D01*
X93874990Y-76799990D02*
X93950000Y-76875000D01*
X91865695Y-76799990D02*
X93874990Y-76799990D01*
X93950000Y-76875000D02*
X93950000Y-77550000D01*
X88174999Y-85334416D02*
X90309405Y-83200010D01*
X89748002Y-87525002D02*
X89051998Y-87525002D01*
X92950000Y-83125000D02*
X92950000Y-82450000D01*
X88174999Y-85848001D02*
X88174999Y-85334416D01*
X90725002Y-86548002D02*
X89748002Y-87525002D01*
X92124999Y-85824999D02*
X91089999Y-85824999D01*
X89051998Y-87525002D02*
X88674998Y-87148002D01*
X88674998Y-87148002D02*
X88674998Y-86348000D01*
X88674998Y-86348000D02*
X88174999Y-85848001D01*
X92874990Y-83200010D02*
X92950000Y-83125000D01*
X90725002Y-86189996D02*
X90725002Y-86548002D01*
X90309405Y-83200010D02*
X92874990Y-83200010D01*
X92700000Y-86400000D02*
X92124999Y-85824999D01*
X91089999Y-85824999D02*
X90725002Y-86189996D01*
X92950000Y-82450000D02*
X92950000Y-82896765D01*
D28*
G36*
X91802560Y-86700000D02*
X91810555Y-86740195D01*
X91777000Y-86773750D01*
X91777000Y-87375000D01*
X91797000Y-87375000D01*
X91797000Y-87625000D01*
X91777000Y-87625000D01*
X91777000Y-87647000D01*
X91523000Y-87647000D01*
X91523000Y-87625000D01*
X91503000Y-87625000D01*
X91503000Y-87375000D01*
X91523000Y-87375000D01*
X91523000Y-87303250D01*
X91650000Y-87176250D01*
X91650000Y-86584999D01*
X91802560Y-86584999D01*
X91802560Y-86700000D01*
X91802560Y-86700000D01*
G37*
X91802560Y-86700000D02*
X91810555Y-86740195D01*
X91777000Y-86773750D01*
X91777000Y-87375000D01*
X91797000Y-87375000D01*
X91797000Y-87625000D01*
X91777000Y-87625000D01*
X91777000Y-87647000D01*
X91523000Y-87647000D01*
X91523000Y-87625000D01*
X91503000Y-87625000D01*
X91503000Y-87375000D01*
X91523000Y-87375000D01*
X91523000Y-87303250D01*
X91650000Y-87176250D01*
X91650000Y-86584999D01*
X91802560Y-86584999D01*
X91802560Y-86700000D01*
G36*
X106450800Y-78199950D02*
X106450800Y-78269109D01*
X106459555Y-78290245D01*
X106438360Y-78396800D01*
X106438360Y-78803200D01*
X106459555Y-78909755D01*
X106450800Y-78930891D01*
X106450800Y-79000050D01*
X106484149Y-79033399D01*
X106487643Y-79050965D01*
X106627991Y-79261009D01*
X106779134Y-79362000D01*
X106609550Y-79362000D01*
X106450800Y-79520750D01*
X106450800Y-79589909D01*
X106547473Y-79823298D01*
X106726101Y-80001927D01*
X106959490Y-80098600D01*
X107130250Y-80098600D01*
X107289000Y-79939850D01*
X107289000Y-79450640D01*
X107543000Y-79450640D01*
X107543000Y-79939850D01*
X107655260Y-80052110D01*
X102732599Y-84974771D01*
X102567852Y-85221333D01*
X102540558Y-85358550D01*
X102515620Y-85368854D01*
X102140173Y-85743647D01*
X101999906Y-86081446D01*
X101861146Y-85745620D01*
X101737486Y-85621744D01*
X102085515Y-85477942D01*
X102376919Y-85187046D01*
X102534820Y-84806777D01*
X102535179Y-84395029D01*
X102377942Y-84014485D01*
X102087046Y-83723081D01*
X102055020Y-83709782D01*
X102096832Y-83667970D01*
X102129357Y-83700551D01*
X102693330Y-83934733D01*
X103303991Y-83935265D01*
X103868371Y-83702068D01*
X104300551Y-83270643D01*
X104534733Y-82706670D01*
X104535265Y-82096009D01*
X104302068Y-81531629D01*
X104117312Y-81346549D01*
X104176919Y-81287046D01*
X104334820Y-80906777D01*
X104334966Y-80739836D01*
X104637401Y-80437401D01*
X104802148Y-80190839D01*
X104826995Y-80065926D01*
X105053800Y-80111040D01*
X105714200Y-80111040D01*
X105961965Y-80061757D01*
X106172009Y-79921409D01*
X106312357Y-79711365D01*
X106361640Y-79463600D01*
X106361640Y-79057200D01*
X106312357Y-78809435D01*
X106172416Y-78600000D01*
X106312357Y-78390565D01*
X106355951Y-78171399D01*
X106479351Y-78171399D01*
X106450800Y-78199950D01*
X106450800Y-78199950D01*
G37*
X106450800Y-78199950D02*
X106450800Y-78269109D01*
X106459555Y-78290245D01*
X106438360Y-78396800D01*
X106438360Y-78803200D01*
X106459555Y-78909755D01*
X106450800Y-78930891D01*
X106450800Y-79000050D01*
X106484149Y-79033399D01*
X106487643Y-79050965D01*
X106627991Y-79261009D01*
X106779134Y-79362000D01*
X106609550Y-79362000D01*
X106450800Y-79520750D01*
X106450800Y-79589909D01*
X106547473Y-79823298D01*
X106726101Y-80001927D01*
X106959490Y-80098600D01*
X107130250Y-80098600D01*
X107289000Y-79939850D01*
X107289000Y-79450640D01*
X107543000Y-79450640D01*
X107543000Y-79939850D01*
X107655260Y-80052110D01*
X102732599Y-84974771D01*
X102567852Y-85221333D01*
X102540558Y-85358550D01*
X102515620Y-85368854D01*
X102140173Y-85743647D01*
X101999906Y-86081446D01*
X101861146Y-85745620D01*
X101737486Y-85621744D01*
X102085515Y-85477942D01*
X102376919Y-85187046D01*
X102534820Y-84806777D01*
X102535179Y-84395029D01*
X102377942Y-84014485D01*
X102087046Y-83723081D01*
X102055020Y-83709782D01*
X102096832Y-83667970D01*
X102129357Y-83700551D01*
X102693330Y-83934733D01*
X103303991Y-83935265D01*
X103868371Y-83702068D01*
X104300551Y-83270643D01*
X104534733Y-82706670D01*
X104535265Y-82096009D01*
X104302068Y-81531629D01*
X104117312Y-81346549D01*
X104176919Y-81287046D01*
X104334820Y-80906777D01*
X104334966Y-80739836D01*
X104637401Y-80437401D01*
X104802148Y-80190839D01*
X104826995Y-80065926D01*
X105053800Y-80111040D01*
X105714200Y-80111040D01*
X105961965Y-80061757D01*
X106172009Y-79921409D01*
X106312357Y-79711365D01*
X106361640Y-79463600D01*
X106361640Y-79057200D01*
X106312357Y-78809435D01*
X106172416Y-78600000D01*
X106312357Y-78390565D01*
X106355951Y-78171399D01*
X106479351Y-78171399D01*
X106450800Y-78199950D01*
G36*
X91627000Y-82285000D02*
X91665000Y-82285000D01*
X91665000Y-82440010D01*
X90559540Y-82440010D01*
X90818658Y-82180892D01*
X91098000Y-82285000D01*
X91373000Y-82285000D01*
X91373000Y-81785000D01*
X91627000Y-81785000D01*
X91627000Y-82285000D01*
X91627000Y-82285000D01*
G37*
X91627000Y-82285000D02*
X91665000Y-82285000D01*
X91665000Y-82440010D01*
X90559540Y-82440010D01*
X90818658Y-82180892D01*
X91098000Y-82285000D01*
X91373000Y-82285000D01*
X91373000Y-81785000D01*
X91627000Y-81785000D01*
X91627000Y-82285000D01*
G36*
X109025000Y-79023000D02*
X109047000Y-79023000D01*
X109047000Y-79277000D01*
X109025000Y-79277000D01*
X109025000Y-79297000D01*
X108775000Y-79297000D01*
X108775000Y-79277000D01*
X108753000Y-79277000D01*
X108753000Y-79227205D01*
X108887401Y-79137401D01*
X109021802Y-79003000D01*
X109025000Y-79003000D01*
X109025000Y-79023000D01*
X109025000Y-79023000D01*
G37*
X109025000Y-79023000D02*
X109047000Y-79023000D01*
X109047000Y-79277000D01*
X109025000Y-79277000D01*
X109025000Y-79297000D01*
X108775000Y-79297000D01*
X108775000Y-79277000D01*
X108753000Y-79277000D01*
X108753000Y-79227205D01*
X108887401Y-79137401D01*
X109021802Y-79003000D01*
X109025000Y-79003000D01*
X109025000Y-79023000D01*
M02*
