G04 #@! TF.GenerationSoftware,KiCad,Pcbnew,no-vcs-found-7409~56~ubuntu16.10.1*
G04 #@! TF.CreationDate,2017-01-11T20:07:43-05:00*
G04 #@! TF.ProjectId,android_debug_cable,616E64726F69645F64656275675F6361,rev?*
G04 #@! TF.FileFunction,Legend,Bot*
G04 #@! TF.FilePolarity,Positive*
%FSLAX46Y46*%
G04 Gerber Fmt 4.6, Leading zero omitted, Abs format (unit mm)*
G04 Created by KiCad (PCBNEW no-vcs-found-7409~56~ubuntu16.10.1) date Wed Jan 11 20:07:43 2017*
%MOMM*%
%LPD*%
G01*
G04 APERTURE LIST*
%ADD10C,0.100000*%
%ADD11C,0.150000*%
%ADD12C,0.200000*%
G04 APERTURE END LIST*
D10*
D11*
X106866666Y-87416666D02*
X106633333Y-88116666D01*
X106400000Y-87416666D01*
X106233333Y-87416666D02*
X105800000Y-87416666D01*
X106033333Y-87683333D01*
X105933333Y-87683333D01*
X105866666Y-87716666D01*
X105833333Y-87750000D01*
X105800000Y-87816666D01*
X105800000Y-87983333D01*
X105833333Y-88050000D01*
X105866666Y-88083333D01*
X105933333Y-88116666D01*
X106133333Y-88116666D01*
X106200000Y-88083333D01*
X106233333Y-88050000D01*
X105500000Y-88050000D02*
X105466666Y-88083333D01*
X105500000Y-88116666D01*
X105533333Y-88083333D01*
X105500000Y-88050000D01*
X105500000Y-88116666D01*
X105233333Y-87416666D02*
X104800000Y-87416666D01*
X105033333Y-87683333D01*
X104933333Y-87683333D01*
X104866666Y-87716666D01*
X104833333Y-87750000D01*
X104800000Y-87816666D01*
X104800000Y-87983333D01*
X104833333Y-88050000D01*
X104866666Y-88083333D01*
X104933333Y-88116666D01*
X105133333Y-88116666D01*
X105200000Y-88083333D01*
X105233333Y-88050000D01*
X103833333Y-87450000D02*
X103900000Y-87416666D01*
X104000000Y-87416666D01*
X104100000Y-87450000D01*
X104166666Y-87516666D01*
X104200000Y-87583333D01*
X104233333Y-87716666D01*
X104233333Y-87816666D01*
X104200000Y-87950000D01*
X104166666Y-88016666D01*
X104100000Y-88083333D01*
X104000000Y-88116666D01*
X103933333Y-88116666D01*
X103833333Y-88083333D01*
X103800000Y-88050000D01*
X103800000Y-87816666D01*
X103933333Y-87816666D01*
X103500000Y-88116666D02*
X103500000Y-87416666D01*
X103100000Y-88116666D01*
X103100000Y-87416666D01*
X102766666Y-88116666D02*
X102766666Y-87416666D01*
X102600000Y-87416666D01*
X102500000Y-87450000D01*
X102433333Y-87516666D01*
X102400000Y-87583333D01*
X102366666Y-87716666D01*
X102366666Y-87816666D01*
X102400000Y-87950000D01*
X102433333Y-88016666D01*
X102500000Y-88083333D01*
X102600000Y-88116666D01*
X102766666Y-88116666D01*
X101233333Y-87416666D02*
X100833333Y-87416666D01*
X101033333Y-88116666D02*
X101033333Y-87416666D01*
X100666666Y-87416666D02*
X100200000Y-88116666D01*
X100200000Y-87416666D02*
X100666666Y-88116666D01*
X98216666Y-88116666D02*
X98450000Y-87783333D01*
X98616666Y-88116666D02*
X98616666Y-87416666D01*
X98350000Y-87416666D01*
X98283333Y-87450000D01*
X98250000Y-87483333D01*
X98216666Y-87550000D01*
X98216666Y-87650000D01*
X98250000Y-87716666D01*
X98283333Y-87750000D01*
X98350000Y-87783333D01*
X98616666Y-87783333D01*
X97983333Y-87416666D02*
X97516666Y-88116666D01*
X97516666Y-87416666D02*
X97983333Y-88116666D01*
X111369166Y-87616666D02*
X111769166Y-87616666D01*
X111569166Y-87616666D02*
X111569166Y-86916666D01*
X111635833Y-87016666D01*
X111702500Y-87083333D01*
X111769166Y-87116666D01*
X111069166Y-87550000D02*
X111035833Y-87583333D01*
X111069166Y-87616666D01*
X111102500Y-87583333D01*
X111069166Y-87550000D01*
X111069166Y-87616666D01*
X110635833Y-87216666D02*
X110702500Y-87183333D01*
X110735833Y-87150000D01*
X110769166Y-87083333D01*
X110769166Y-87050000D01*
X110735833Y-86983333D01*
X110702500Y-86950000D01*
X110635833Y-86916666D01*
X110502500Y-86916666D01*
X110435833Y-86950000D01*
X110402500Y-86983333D01*
X110369166Y-87050000D01*
X110369166Y-87083333D01*
X110402500Y-87150000D01*
X110435833Y-87183333D01*
X110502500Y-87216666D01*
X110635833Y-87216666D01*
X110702500Y-87250000D01*
X110735833Y-87283333D01*
X110769166Y-87350000D01*
X110769166Y-87483333D01*
X110735833Y-87550000D01*
X110702500Y-87583333D01*
X110635833Y-87616666D01*
X110502500Y-87616666D01*
X110435833Y-87583333D01*
X110402500Y-87550000D01*
X110369166Y-87483333D01*
X110369166Y-87350000D01*
X110402500Y-87283333D01*
X110435833Y-87250000D01*
X110502500Y-87216666D01*
X110169166Y-86916666D02*
X109935833Y-87616666D01*
X109702500Y-86916666D01*
D12*
X114279523Y-77766666D02*
X113803333Y-77766666D01*
X114374761Y-78052380D02*
X114041428Y-77052380D01*
X113708095Y-78052380D01*
X113374761Y-77385714D02*
X113374761Y-78052380D01*
X113374761Y-77480952D02*
X113327142Y-77433333D01*
X113231904Y-77385714D01*
X113089047Y-77385714D01*
X112993809Y-77433333D01*
X112946190Y-77528571D01*
X112946190Y-78052380D01*
X112041428Y-78052380D02*
X112041428Y-77052380D01*
X112041428Y-78004761D02*
X112136666Y-78052380D01*
X112327142Y-78052380D01*
X112422380Y-78004761D01*
X112470000Y-77957142D01*
X112517619Y-77861904D01*
X112517619Y-77576190D01*
X112470000Y-77480952D01*
X112422380Y-77433333D01*
X112327142Y-77385714D01*
X112136666Y-77385714D01*
X112041428Y-77433333D01*
X111565238Y-78052380D02*
X111565238Y-77385714D01*
X111565238Y-77576190D02*
X111517619Y-77480952D01*
X111470000Y-77433333D01*
X111374761Y-77385714D01*
X111279523Y-77385714D01*
X110803333Y-78052380D02*
X110898571Y-78004761D01*
X110946190Y-77957142D01*
X110993809Y-77861904D01*
X110993809Y-77576190D01*
X110946190Y-77480952D01*
X110898571Y-77433333D01*
X110803333Y-77385714D01*
X110660476Y-77385714D01*
X110565238Y-77433333D01*
X110517619Y-77480952D01*
X110470000Y-77576190D01*
X110470000Y-77861904D01*
X110517619Y-77957142D01*
X110565238Y-78004761D01*
X110660476Y-78052380D01*
X110803333Y-78052380D01*
X110041428Y-78052380D02*
X110041428Y-77385714D01*
X110041428Y-77052380D02*
X110089047Y-77100000D01*
X110041428Y-77147619D01*
X109993809Y-77100000D01*
X110041428Y-77052380D01*
X110041428Y-77147619D01*
X109136666Y-78052380D02*
X109136666Y-77052380D01*
X109136666Y-78004761D02*
X109231904Y-78052380D01*
X109422380Y-78052380D01*
X109517619Y-78004761D01*
X109565238Y-77957142D01*
X109612857Y-77861904D01*
X109612857Y-77576190D01*
X109565238Y-77480952D01*
X109517619Y-77433333D01*
X109422380Y-77385714D01*
X109231904Y-77385714D01*
X109136666Y-77433333D01*
X107898571Y-78052380D02*
X107898571Y-77052380D01*
X107660476Y-77052380D01*
X107517619Y-77100000D01*
X107422380Y-77195238D01*
X107374761Y-77290476D01*
X107327142Y-77480952D01*
X107327142Y-77623809D01*
X107374761Y-77814285D01*
X107422380Y-77909523D01*
X107517619Y-78004761D01*
X107660476Y-78052380D01*
X107898571Y-78052380D01*
X106517619Y-78004761D02*
X106612857Y-78052380D01*
X106803333Y-78052380D01*
X106898571Y-78004761D01*
X106946190Y-77909523D01*
X106946190Y-77528571D01*
X106898571Y-77433333D01*
X106803333Y-77385714D01*
X106612857Y-77385714D01*
X106517619Y-77433333D01*
X106470000Y-77528571D01*
X106470000Y-77623809D01*
X106946190Y-77719047D01*
X106041428Y-78052380D02*
X106041428Y-77052380D01*
X106041428Y-77433333D02*
X105946190Y-77385714D01*
X105755714Y-77385714D01*
X105660476Y-77433333D01*
X105612857Y-77480952D01*
X105565238Y-77576190D01*
X105565238Y-77861904D01*
X105612857Y-77957142D01*
X105660476Y-78004761D01*
X105755714Y-78052380D01*
X105946190Y-78052380D01*
X106041428Y-78004761D01*
X104708095Y-77385714D02*
X104708095Y-78052380D01*
X105136666Y-77385714D02*
X105136666Y-77909523D01*
X105089047Y-78004761D01*
X104993809Y-78052380D01*
X104850952Y-78052380D01*
X104755714Y-78004761D01*
X104708095Y-77957142D01*
X103803333Y-77385714D02*
X103803333Y-78195238D01*
X103850952Y-78290476D01*
X103898571Y-78338095D01*
X103993809Y-78385714D01*
X104136666Y-78385714D01*
X104231904Y-78338095D01*
X103803333Y-78004761D02*
X103898571Y-78052380D01*
X104089047Y-78052380D01*
X104184285Y-78004761D01*
X104231904Y-77957142D01*
X104279523Y-77861904D01*
X104279523Y-77576190D01*
X104231904Y-77480952D01*
X104184285Y-77433333D01*
X104089047Y-77385714D01*
X103898571Y-77385714D01*
X103803333Y-77433333D01*
X101993809Y-77957142D02*
X102041428Y-78004761D01*
X102184285Y-78052380D01*
X102279523Y-78052380D01*
X102422380Y-78004761D01*
X102517619Y-77909523D01*
X102565238Y-77814285D01*
X102612857Y-77623809D01*
X102612857Y-77480952D01*
X102565238Y-77290476D01*
X102517619Y-77195238D01*
X102422380Y-77100000D01*
X102279523Y-77052380D01*
X102184285Y-77052380D01*
X102041428Y-77100000D01*
X101993809Y-77147619D01*
X101136666Y-78052380D02*
X101136666Y-77528571D01*
X101184285Y-77433333D01*
X101279523Y-77385714D01*
X101470000Y-77385714D01*
X101565238Y-77433333D01*
X101136666Y-78004761D02*
X101231904Y-78052380D01*
X101470000Y-78052380D01*
X101565238Y-78004761D01*
X101612857Y-77909523D01*
X101612857Y-77814285D01*
X101565238Y-77719047D01*
X101470000Y-77671428D01*
X101231904Y-77671428D01*
X101136666Y-77623809D01*
X100660476Y-78052380D02*
X100660476Y-77052380D01*
X100660476Y-77433333D02*
X100565238Y-77385714D01*
X100374761Y-77385714D01*
X100279523Y-77433333D01*
X100231904Y-77480952D01*
X100184285Y-77576190D01*
X100184285Y-77861904D01*
X100231904Y-77957142D01*
X100279523Y-78004761D01*
X100374761Y-78052380D01*
X100565238Y-78052380D01*
X100660476Y-78004761D01*
X99612857Y-78052380D02*
X99708095Y-78004761D01*
X99755714Y-77909523D01*
X99755714Y-77052380D01*
X98850952Y-78004761D02*
X98946190Y-78052380D01*
X99136666Y-78052380D01*
X99231904Y-78004761D01*
X99279523Y-77909523D01*
X99279523Y-77528571D01*
X99231904Y-77433333D01*
X99136666Y-77385714D01*
X98946190Y-77385714D01*
X98850952Y-77433333D01*
X98803333Y-77528571D01*
X98803333Y-77623809D01*
X99279523Y-77719047D01*
X114327142Y-79085714D02*
X114089047Y-79752380D01*
X113850952Y-79085714D01*
X113279523Y-78752380D02*
X113184285Y-78752380D01*
X113089047Y-78800000D01*
X113041428Y-78847619D01*
X112993809Y-78942857D01*
X112946190Y-79133333D01*
X112946190Y-79371428D01*
X112993809Y-79561904D01*
X113041428Y-79657142D01*
X113089047Y-79704761D01*
X113184285Y-79752380D01*
X113279523Y-79752380D01*
X113374761Y-79704761D01*
X113422380Y-79657142D01*
X113470000Y-79561904D01*
X113517619Y-79371428D01*
X113517619Y-79133333D01*
X113470000Y-78942857D01*
X113422380Y-78847619D01*
X113374761Y-78800000D01*
X113279523Y-78752380D01*
X112517619Y-79657142D02*
X112470000Y-79704761D01*
X112517619Y-79752380D01*
X112565238Y-79704761D01*
X112517619Y-79657142D01*
X112517619Y-79752380D01*
X112136666Y-78752380D02*
X111517619Y-78752380D01*
X111850952Y-79133333D01*
X111708095Y-79133333D01*
X111612857Y-79180952D01*
X111565238Y-79228571D01*
X111517619Y-79323809D01*
X111517619Y-79561904D01*
X111565238Y-79657142D01*
X111612857Y-79704761D01*
X111708095Y-79752380D01*
X111993809Y-79752380D01*
X112089047Y-79704761D01*
X112136666Y-79657142D01*
D11*
X114235833Y-84516666D02*
X114235833Y-85083333D01*
X114202500Y-85150000D01*
X114169166Y-85183333D01*
X114102500Y-85216666D01*
X113969166Y-85216666D01*
X113902500Y-85183333D01*
X113869166Y-85150000D01*
X113835833Y-85083333D01*
X113835833Y-84516666D01*
X113535833Y-85183333D02*
X113435833Y-85216666D01*
X113269166Y-85216666D01*
X113202500Y-85183333D01*
X113169166Y-85150000D01*
X113135833Y-85083333D01*
X113135833Y-85016666D01*
X113169166Y-84950000D01*
X113202500Y-84916666D01*
X113269166Y-84883333D01*
X113402500Y-84850000D01*
X113469166Y-84816666D01*
X113502500Y-84783333D01*
X113535833Y-84716666D01*
X113535833Y-84650000D01*
X113502500Y-84583333D01*
X113469166Y-84550000D01*
X113402500Y-84516666D01*
X113235833Y-84516666D01*
X113135833Y-84550000D01*
X112602500Y-84850000D02*
X112502500Y-84883333D01*
X112469166Y-84916666D01*
X112435833Y-84983333D01*
X112435833Y-85083333D01*
X112469166Y-85150000D01*
X112502500Y-85183333D01*
X112569166Y-85216666D01*
X112835833Y-85216666D01*
X112835833Y-84516666D01*
X112602500Y-84516666D01*
X112535833Y-84550000D01*
X112502500Y-84583333D01*
X112469166Y-84650000D01*
X112469166Y-84716666D01*
X112502500Y-84783333D01*
X112535833Y-84816666D01*
X112602500Y-84850000D01*
X112835833Y-84850000D01*
X111702500Y-84750000D02*
X111435833Y-84750000D01*
X111602500Y-84516666D02*
X111602500Y-85116666D01*
X111569166Y-85183333D01*
X111502500Y-85216666D01*
X111435833Y-85216666D01*
X111102500Y-85216666D02*
X111169166Y-85183333D01*
X111202500Y-85150000D01*
X111235833Y-85083333D01*
X111235833Y-84883333D01*
X111202500Y-84816666D01*
X111169166Y-84783333D01*
X111102500Y-84750000D01*
X111002500Y-84750000D01*
X110935833Y-84783333D01*
X110902500Y-84816666D01*
X110869166Y-84883333D01*
X110869166Y-85083333D01*
X110902500Y-85150000D01*
X110935833Y-85183333D01*
X111002500Y-85216666D01*
X111102500Y-85216666D01*
X110035833Y-84516666D02*
X110035833Y-85083333D01*
X110002500Y-85150000D01*
X109969166Y-85183333D01*
X109902500Y-85216666D01*
X109769166Y-85216666D01*
X109702500Y-85183333D01*
X109669166Y-85150000D01*
X109635833Y-85083333D01*
X109635833Y-84516666D01*
X109335833Y-85016666D02*
X109002500Y-85016666D01*
X109402500Y-85216666D02*
X109169166Y-84516666D01*
X108935833Y-85216666D01*
X108302500Y-85216666D02*
X108535833Y-84883333D01*
X108702500Y-85216666D02*
X108702500Y-84516666D01*
X108435833Y-84516666D01*
X108369166Y-84550000D01*
X108335833Y-84583333D01*
X108302500Y-84650000D01*
X108302500Y-84750000D01*
X108335833Y-84816666D01*
X108369166Y-84850000D01*
X108435833Y-84883333D01*
X108702500Y-84883333D01*
X108102500Y-84516666D02*
X107702500Y-84516666D01*
X107902500Y-85216666D02*
X107902500Y-84516666D01*
X114335833Y-85716666D02*
X114102500Y-86416666D01*
X113869166Y-85716666D01*
X113235833Y-86350000D02*
X113269166Y-86383333D01*
X113369166Y-86416666D01*
X113435833Y-86416666D01*
X113535833Y-86383333D01*
X113602500Y-86316666D01*
X113635833Y-86250000D01*
X113669166Y-86116666D01*
X113669166Y-86016666D01*
X113635833Y-85883333D01*
X113602500Y-85816666D01*
X113535833Y-85750000D01*
X113435833Y-85716666D01*
X113369166Y-85716666D01*
X113269166Y-85750000D01*
X113235833Y-85783333D01*
X112535833Y-86350000D02*
X112569166Y-86383333D01*
X112669166Y-86416666D01*
X112735833Y-86416666D01*
X112835833Y-86383333D01*
X112902500Y-86316666D01*
X112935833Y-86250000D01*
X112969166Y-86116666D01*
X112969166Y-86016666D01*
X112935833Y-85883333D01*
X112902500Y-85816666D01*
X112835833Y-85750000D01*
X112735833Y-85716666D01*
X112669166Y-85716666D01*
X112569166Y-85750000D01*
X112535833Y-85783333D01*
X111769166Y-85716666D02*
X111335833Y-85716666D01*
X111569166Y-85983333D01*
X111469166Y-85983333D01*
X111402500Y-86016666D01*
X111369166Y-86050000D01*
X111335833Y-86116666D01*
X111335833Y-86283333D01*
X111369166Y-86350000D01*
X111402500Y-86383333D01*
X111469166Y-86416666D01*
X111669166Y-86416666D01*
X111735833Y-86383333D01*
X111769166Y-86350000D01*
X111035833Y-86350000D02*
X111002500Y-86383333D01*
X111035833Y-86416666D01*
X111069166Y-86383333D01*
X111035833Y-86350000D01*
X111035833Y-86416666D01*
X110769166Y-85716666D02*
X110335833Y-85716666D01*
X110569166Y-85983333D01*
X110469166Y-85983333D01*
X110402500Y-86016666D01*
X110369166Y-86050000D01*
X110335833Y-86116666D01*
X110335833Y-86283333D01*
X110369166Y-86350000D01*
X110402500Y-86383333D01*
X110469166Y-86416666D01*
X110669166Y-86416666D01*
X110735833Y-86383333D01*
X110769166Y-86350000D01*
X110135833Y-85716666D02*
X109902500Y-86416666D01*
X109669166Y-85716666D01*
X114335833Y-86916666D02*
X114102500Y-87616666D01*
X113869166Y-86916666D01*
X113635833Y-87616666D02*
X113635833Y-86916666D01*
X113169166Y-86916666D02*
X113035833Y-86916666D01*
X112969166Y-86950000D01*
X112902500Y-87016666D01*
X112869166Y-87150000D01*
X112869166Y-87383333D01*
X112902500Y-87516666D01*
X112969166Y-87583333D01*
X113035833Y-87616666D01*
X113169166Y-87616666D01*
X113235833Y-87583333D01*
X113302500Y-87516666D01*
X113335833Y-87383333D01*
X113335833Y-87150000D01*
X113302500Y-87016666D01*
X113235833Y-86950000D01*
X113169166Y-86916666D01*
M02*
