M48
;DRILL file {KiCad no-vcs-found-7409~56~ubuntu16.10.1} date Wed Jan 11 20:07:45 2017
;FORMAT={-:-/ absolute / inch / decimal}
FMAT,2
INCH,TZ
T1C0.016
T2C0.032
T3C0.067
%
G90
G05
M72
T1
X3.459Y-3.2638
X3.4606Y-3.3031
X3.4626Y-3.4211
X3.5032Y-3.3683
X3.5197Y-3.4173
X3.5945Y-3.0276
X3.7283Y-3.4606
X3.811Y-3.4252
X3.8661Y-3.0866
X3.8943Y-3.3361
X3.9606Y-3.2913
X3.9961Y-3.3307
X4.0669Y-3.1673
X4.166Y-3.3469
X4.1732Y-3.2992
T2
X3.8657Y-3.4055
X3.9657Y-3.4055
X4.0657Y-3.4055
X4.1657Y-3.4055
T3
X4.0551Y-3.2441
X4.3307Y-3.2441
T0
M30
