G04 #@! TF.FileFunction,Soldermask,Top*
%FSLAX46Y46*%
G04 Gerber Fmt 4.6, Leading zero omitted, Abs format (unit mm)*
G04 Created by KiCad (PCBNEW 4.1.0-alpha+201608131231+7028~46~ubuntu16.04.1-product) date Sun Aug 14 13:26:06 2016*
%MOMM*%
%LPD*%
G01*
G04 APERTURE LIST*
%ADD10C,0.100000*%
%ADD11R,1.000000X0.900000*%
%ADD12R,0.900000X1.000000*%
%ADD13R,8.400000X2.300000*%
%ADD14R,7.900000X2.400000*%
%ADD15C,1.797000*%
%ADD16O,1.797000X1.797000*%
%ADD17C,2.200000*%
%ADD18R,2.400000X3.200000*%
%ADD19R,2.600000X3.200000*%
%ADD20R,3.200000X2.600000*%
%ADD21O,1.250000X0.700000*%
%ADD22O,0.700000X1.250000*%
%ADD23R,2.075000X2.075000*%
%ADD24R,1.060400X0.806400*%
%ADD25R,0.800000X1.000000*%
G04 APERTURE END LIST*
D10*
D11*
X92750000Y-83900000D03*
X91650000Y-83900000D03*
X92750000Y-85100000D03*
X91650000Y-85100000D03*
D12*
X104100000Y-79150000D03*
X104100000Y-78050000D03*
X108900000Y-79150000D03*
X108900000Y-78050000D03*
D11*
X92750000Y-87500000D03*
X91650000Y-87500000D03*
D13*
X83150000Y-86210000D03*
X83150000Y-78590000D03*
D14*
X83400000Y-81100000D03*
X83400000Y-83700000D03*
D15*
X100730000Y-86500000D03*
X103270000Y-86500000D03*
D16*
X98190000Y-86500000D03*
D15*
X105810000Y-86500000D03*
D17*
X110000000Y-82400000D03*
X103000000Y-82400000D03*
D18*
X113900000Y-78700000D03*
D19*
X111100000Y-78700000D03*
X101700000Y-78700000D03*
D20*
X98434500Y-83148000D03*
D18*
X112000000Y-86100000D03*
X109200000Y-86100000D03*
D21*
X91500000Y-78500000D03*
X91500000Y-79000000D03*
X91500000Y-79500000D03*
X91500000Y-80000000D03*
X91500000Y-80500000D03*
X91500000Y-81000000D03*
X91500000Y-81500000D03*
D22*
X92450000Y-82450000D03*
X92950000Y-82450000D03*
X93450000Y-82450000D03*
X93950000Y-82450000D03*
X94450000Y-82450000D03*
X94950000Y-82450000D03*
X95450000Y-82450000D03*
D21*
X96400000Y-81500000D03*
X96400000Y-81000000D03*
X96400000Y-80500000D03*
X96400000Y-80000000D03*
X96400000Y-79500000D03*
X96400000Y-79000000D03*
X96400000Y-78500000D03*
D22*
X95450000Y-77550000D03*
X94950000Y-77550000D03*
X94450000Y-77550000D03*
X93950000Y-77550000D03*
X93450000Y-77550000D03*
X92950000Y-77550000D03*
X92450000Y-77550000D03*
D23*
X94787500Y-80837500D03*
X94787500Y-79162500D03*
X93112500Y-80837500D03*
X93112500Y-79162500D03*
D24*
X107416000Y-79260400D03*
X107416000Y-77939600D03*
X107416000Y-78600000D03*
X105384000Y-77939600D03*
X105384000Y-79260400D03*
D25*
X91750000Y-86400000D03*
X92650000Y-86400000D03*
M02*
